<svg width="2328" height="101" viewBox="0 0 2328 101" fill="none" xmlns="http://www.w3.org/2000/svg">
<g opacity="0.7">
<path d="M2327.99 87.1356H0V100.113H2328V87.1356H2327.99Z" fill="url(#paint0_linear_57_158)" fill-opacity="0.7"/>
</g>
<g opacity="0.7">
<path d="M2327.99 0H1.09673e-05V87.1356H2328V0H2327.99Z" fill="white"/>
</g>
<path d="M2290.41 38.0225H2291.85V39.7349H2291.97C2292.23 39.1437 2292.63 38.6884 2293.17 38.3691C2293.73 38.0429 2294.39 37.8798 2295.16 37.8798C2295.7 37.8798 2296.17 37.9579 2296.58 38.1142C2297 38.2637 2297.36 38.488 2297.66 38.787C2297.95 39.0792 2298.19 39.4393 2298.37 39.8674H2298.46C2298.65 39.4529 2298.91 39.0995 2299.24 38.8073C2299.58 38.5084 2299.98 38.2807 2300.44 38.1244C2300.92 37.9613 2301.43 37.8798 2301.99 37.8798C2302.74 37.8798 2303.38 38.0259 2303.91 38.3181C2304.45 38.6035 2304.86 39.0282 2305.15 39.5922C2305.44 40.1562 2305.59 40.8527 2305.59 41.6818V49.092H2304.1V41.6919C2304.1 40.8493 2303.87 40.214 2303.4 39.7859C2302.94 39.351 2302.31 39.1335 2301.52 39.1335C2300.94 39.1335 2300.44 39.249 2300.03 39.4801C2299.61 39.7111 2299.29 40.0305 2299.08 40.4382C2298.86 40.8391 2298.75 41.3012 2298.75 41.8245V49.092H2297.24V41.5594C2297.24 41.077 2297.14 40.6523 2296.93 40.2853C2296.74 39.9116 2296.45 39.6262 2296.07 39.4291C2295.69 39.2321 2295.24 39.1335 2294.73 39.1335C2294.2 39.1335 2293.72 39.2558 2293.29 39.5005C2292.86 39.7451 2292.52 40.0883 2292.27 40.53C2292.02 40.9648 2291.89 41.4643 2291.89 42.0283V49.092H2290.41V38.0225Z" fill="#2B66AE"/>
<path d="M2285.86 43.6694C2285.75 43.6762 2285.09 43.7238 2283.87 43.8121L2282.63 43.8936C2281.59 43.9616 2280.82 44.179 2280.3 44.546C2279.78 44.9061 2279.52 45.409 2279.52 46.0545C2279.52 46.4758 2279.63 46.8394 2279.86 47.1452C2280.09 47.451 2280.41 47.6854 2280.82 47.8485C2281.23 48.0116 2281.69 48.0931 2282.2 48.0931C2282.9 48.0931 2283.51 47.9504 2284.04 47.665C2284.57 47.3728 2284.98 46.9821 2285.27 46.4928C2285.56 46.0036 2285.71 45.4634 2285.71 44.8722V41.4881C2285.71 40.9921 2285.6 40.564 2285.38 40.2038C2285.16 39.8437 2284.83 39.5718 2284.4 39.3884C2283.97 39.1981 2283.44 39.103 2282.82 39.103C2282.07 39.103 2281.43 39.2525 2280.91 39.5515C2280.4 39.8437 2280.07 40.2446 2279.93 40.7542H2278.37C2278.46 40.1766 2278.71 39.6704 2279.11 39.2355C2279.51 38.8006 2280.04 38.4642 2280.69 38.2264C2281.35 37.9885 2282.08 37.8696 2282.89 37.8696C2283.6 37.8696 2284.28 37.9784 2284.91 38.1958C2285.54 38.4133 2286.08 38.8006 2286.52 39.3578C2286.96 39.915 2287.18 40.6659 2287.18 41.6104V49.092H2285.71V47.3796H2285.62C2285.45 47.7194 2285.19 48.0388 2284.87 48.3378C2284.55 48.63 2284.14 48.8712 2283.64 49.0615C2283.15 49.2517 2282.59 49.3469 2281.96 49.3469C2281.23 49.3469 2280.57 49.2143 2279.97 48.9493C2279.38 48.6843 2278.91 48.297 2278.56 47.7873C2278.21 47.2777 2278.04 46.6797 2278.04 45.9934C2278.04 44.9129 2278.43 44.1213 2279.2 43.6184C2279.99 43.1088 2281.06 42.8098 2282.41 42.7215C2282.74 42.6943 2283.46 42.6467 2284.58 42.5788L2285.85 42.5278L2285.86 43.6694Z" fill="#2B66AE"/>
<path d="M2271.17 38.0225H2272.61V39.7349H2272.72C2272.96 39.1573 2273.38 38.6986 2273.96 38.3589C2274.54 38.0191 2275.2 37.8492 2275.93 37.8492C2276.21 37.8492 2276.47 37.8594 2276.7 37.8798V39.2762C2276.64 39.2626 2276.52 39.2456 2276.34 39.2253C2276.17 39.2049 2275.99 39.1947 2275.82 39.1947C2275.23 39.1947 2274.69 39.317 2274.21 39.5616C2273.73 39.7995 2273.35 40.1324 2273.07 40.5605C2272.8 40.9818 2272.66 41.4575 2272.66 41.9875V49.092H2271.17V38.0225Z" fill="#2B66AE"/>
<path d="M2263.02 53.475C2262.14 53.475 2261.36 53.3595 2260.66 53.1284C2259.96 52.8974 2259.4 52.5576 2258.97 52.1091C2258.55 51.6674 2258.29 51.1272 2258.2 50.4885H2259.76C2259.91 51.0661 2260.27 51.501 2260.84 51.7932C2261.42 52.0921 2262.14 52.2416 2263.02 52.2416C2264.13 52.2416 2264.98 51.997 2265.58 51.5078C2266.17 51.0253 2266.47 50.2914 2266.47 49.3061V46.8496H2266.35C2266.15 47.2505 2265.9 47.6005 2265.62 47.8995C2265.33 48.1985 2264.95 48.4533 2264.46 48.6639C2263.98 48.8746 2263.4 48.9799 2262.73 48.9799C2261.79 48.9799 2260.94 48.7557 2260.2 48.3072C2259.45 47.8587 2258.87 47.2165 2258.45 46.3807C2258.03 45.5449 2257.81 44.5698 2257.81 43.4553C2257.81 42.3477 2258.02 41.3726 2258.44 40.53C2258.85 39.6806 2259.43 39.0248 2260.18 38.5627C2260.92 38.1007 2261.78 37.8696 2262.76 37.8696C2263.43 37.8696 2264.01 37.9784 2264.48 38.1958C2264.96 38.4133 2265.33 38.6647 2265.59 38.9501C2265.85 39.2355 2266.11 39.6092 2266.38 40.0713H2266.5V38.0225H2267.97V49.3774C2267.97 50.2812 2267.76 51.0389 2267.33 51.6505C2266.92 52.2688 2266.34 52.7275 2265.6 53.0265C2264.85 53.3255 2263.99 53.475 2263.02 53.475ZM2262.92 47.716C2263.66 47.716 2264.3 47.5461 2264.84 47.2063C2265.38 46.8666 2265.79 46.3841 2266.08 45.7589C2266.36 45.127 2266.5 44.3727 2266.5 43.4961C2266.5 42.6399 2266.36 41.8822 2266.08 41.2231C2265.8 40.564 2265.39 40.0509 2264.85 39.684C2264.32 39.3102 2263.68 39.1234 2262.92 39.1234C2262.17 39.1234 2261.52 39.317 2260.98 39.7044C2260.45 40.0849 2260.03 40.6047 2259.75 41.2639C2259.47 41.923 2259.32 42.6671 2259.32 43.4961C2259.32 44.3319 2259.47 45.0692 2259.75 45.708C2260.03 46.3399 2260.45 46.8326 2260.98 47.186C2261.52 47.5393 2262.17 47.716 2262.92 47.716Z" fill="#2B66AE"/>
<path d="M2250.57 49.3163C2249.55 49.3163 2248.63 49.075 2247.82 48.5926C2247.02 48.1101 2246.4 47.4374 2245.96 46.5744C2245.51 45.7046 2245.29 44.7125 2245.29 43.598C2245.29 42.4768 2245.51 41.4847 2245.96 40.6217C2246.4 39.7519 2247.02 39.0758 2247.82 38.5933C2248.63 38.1109 2249.55 37.8696 2250.57 37.8696C2251.59 37.8696 2252.5 38.1109 2253.29 38.5933C2254.09 39.0758 2254.71 39.7519 2255.15 40.6217C2255.59 41.4847 2255.81 42.4768 2255.81 43.598C2255.81 44.7125 2255.59 45.7046 2255.15 46.5744C2254.71 47.4374 2254.09 48.1101 2253.29 48.5926C2252.5 49.075 2251.59 49.3163 2250.57 49.3163ZM2250.57 48.0727C2251.35 48.0727 2252.03 47.8723 2252.6 47.4714C2253.17 47.0704 2253.6 46.5302 2253.89 45.8507C2254.18 45.1712 2254.33 44.4203 2254.33 43.598C2254.33 42.7758 2254.18 42.0249 2253.89 41.3454C2253.6 40.6659 2253.17 40.1257 2252.6 39.7247C2252.03 39.317 2251.35 39.1132 2250.57 39.1132C2249.78 39.1132 2249.1 39.317 2248.53 39.7247C2247.97 40.1257 2247.53 40.6659 2247.23 41.3454C2246.94 42.0249 2246.79 42.7758 2246.79 43.598C2246.79 44.4203 2246.93 45.1712 2247.22 45.8507C2247.52 46.5302 2247.96 47.0704 2248.52 47.4714C2249.1 47.8723 2249.78 48.0727 2250.57 48.0727Z" fill="#2B66AE"/>
<path d="M2238.82 38.0225H2240.26V39.7349H2240.37C2240.61 39.1573 2241.02 38.6986 2241.61 38.3589C2242.19 38.0191 2242.84 37.8492 2243.57 37.8492C2243.86 37.8492 2244.12 37.8594 2244.35 37.8798V39.2762C2244.28 39.2626 2244.16 39.2456 2243.99 39.2253C2243.81 39.2049 2243.64 39.1947 2243.46 39.1947C2242.87 39.1947 2242.34 39.317 2241.86 39.5616C2241.38 39.7995 2241 40.1324 2240.72 40.5605C2240.44 40.9818 2240.3 41.4575 2240.3 41.9875V49.092H2238.82V38.0225Z" fill="#2B66AE"/>
<path d="M2225.8 34.3327H2230.97C2232.08 34.3327 2233.02 34.5331 2233.79 34.9341C2234.57 35.3282 2235.15 35.8684 2235.54 36.5547C2235.93 37.2411 2236.13 38.0293 2236.13 38.9195C2236.13 39.7961 2235.93 40.5809 2235.54 41.274C2235.15 41.9672 2234.57 42.5142 2233.8 42.9151C2233.03 43.316 2232.09 43.5165 2230.99 43.5165H2226.99V42.2118H2230.93C2231.73 42.2118 2232.41 42.0725 2232.96 41.7939C2233.51 41.5085 2233.92 41.1178 2234.18 40.6217C2234.45 40.1189 2234.59 39.5514 2234.59 38.9195C2234.59 38.2671 2234.45 37.6963 2234.18 37.2071C2233.92 36.711 2233.51 36.3237 2232.95 36.0451C2232.39 35.7665 2231.71 35.6272 2230.9 35.6272H2227.35V49.092H2225.8V34.3327Z" fill="#2B66AE"/>
<path d="M2212.65 49.3163C2211.56 49.3163 2210.6 49.0784 2209.78 48.6028C2208.95 48.1271 2208.32 47.4578 2207.87 46.5948C2207.43 45.7318 2207.21 44.7431 2207.21 43.6286C2207.21 42.521 2207.43 41.5289 2207.87 40.6523C2208.32 39.7757 2208.94 39.0928 2209.73 38.6035C2210.53 38.1143 2211.43 37.8696 2212.45 37.8696C2213.36 37.8696 2214.19 38.0701 2214.96 38.471C2215.72 38.8651 2216.33 39.4733 2216.79 40.2955C2217.26 41.1178 2217.49 42.1269 2217.49 43.3228V43.9752H2208.22V42.7724H2216C2216 42.0793 2215.85 41.4575 2215.55 40.9071C2215.25 40.3499 2214.83 39.9116 2214.29 39.5922C2213.75 39.2729 2213.14 39.1132 2212.45 39.1132C2211.73 39.1132 2211.08 39.2932 2210.51 39.6534C2209.94 40.0067 2209.5 40.4892 2209.17 41.1008C2208.86 41.7056 2208.7 42.3613 2208.7 43.068V43.8019C2208.7 44.6649 2208.87 45.4192 2209.19 46.0647C2209.51 46.7103 2209.97 47.2063 2210.56 47.5529C2211.16 47.8995 2211.86 48.0727 2212.65 48.0727C2213.17 48.0727 2213.63 48.0014 2214.03 47.8587C2214.44 47.7092 2214.77 47.5257 2215.04 47.3083C2215.32 47.0908 2215.53 46.8496 2215.68 46.5846H2217.27C2217.09 47.101 2216.79 47.5665 2216.37 47.981C2215.94 48.3887 2215.42 48.7149 2214.78 48.9595C2214.15 49.1974 2213.44 49.3163 2212.65 49.3163Z" fill="#2B66AE"/>
<path d="M2200.75 49.3163C2199.69 49.3163 2198.76 49.0716 2197.96 48.5824C2197.16 48.0863 2196.54 47.4068 2196.1 46.5438C2195.66 45.674 2195.45 44.6921 2195.45 43.598C2195.45 42.4972 2195.67 41.5119 2196.11 40.6421C2196.56 39.7723 2197.18 39.0928 2197.97 38.6035C2198.77 38.1143 2199.68 37.8696 2200.71 37.8696C2201.52 37.8696 2202.24 38.0123 2202.9 38.2977C2203.56 38.5831 2204.1 38.9908 2204.52 39.5209C2204.93 40.0441 2205.2 40.6489 2205.31 41.3352H2203.8C2203.71 40.9207 2203.53 40.547 2203.25 40.214C2202.97 39.8742 2202.62 39.6058 2202.19 39.4088C2201.77 39.2117 2201.29 39.1132 2200.75 39.1132C2200 39.1132 2199.34 39.3 2198.77 39.6738C2198.2 40.0475 2197.75 40.5708 2197.42 41.2435C2197.1 41.9094 2196.94 42.6807 2196.94 43.5573C2196.94 44.4339 2197.1 45.2153 2197.41 45.9016C2197.73 46.5812 2198.18 47.1112 2198.75 47.4917C2199.32 47.8723 2199.99 48.0625 2200.75 48.0625C2201.26 48.0625 2201.73 47.9742 2202.16 47.7975C2202.59 47.6209 2202.94 47.3626 2203.23 47.0229C2203.52 46.6831 2203.71 46.289 2203.81 45.8405H2205.31C2205.2 46.5132 2204.95 47.1112 2204.54 47.6344C2204.14 48.1577 2203.61 48.5688 2202.96 48.8678C2202.3 49.1668 2201.56 49.3163 2200.75 49.3163Z" fill="#2B66AE"/>
<path d="M2188.98 38.0225H2190.42V39.7349H2190.53C2190.77 39.1573 2191.18 38.6986 2191.76 38.3589C2192.35 38.0191 2193 37.8492 2193.73 37.8492C2194.01 37.8492 2194.27 37.8594 2194.51 37.8798V39.2762C2194.44 39.2626 2194.32 39.2456 2194.15 39.2253C2193.97 39.2049 2193.8 39.1947 2193.62 39.1947C2193.03 39.1947 2192.5 39.317 2192.01 39.5616C2191.53 39.7995 2191.15 40.1324 2190.88 40.5605C2190.6 40.9818 2190.46 41.4575 2190.46 41.9875V49.092H2188.98V38.0225Z" fill="#2B66AE"/>
<path d="M2181.12 49.3163C2180.1 49.3163 2179.18 49.075 2178.37 48.5926C2177.57 48.1101 2176.95 47.4374 2176.5 46.5744C2176.06 45.7046 2175.84 44.7125 2175.84 43.598C2175.84 42.4768 2176.06 41.4847 2176.5 40.6217C2176.95 39.7519 2177.57 39.0758 2178.37 38.5933C2179.18 38.1109 2180.1 37.8696 2181.12 37.8696C2182.14 37.8696 2183.04 38.1109 2183.84 38.5933C2184.64 39.0758 2185.26 39.7519 2185.7 40.6217C2186.14 41.4847 2186.36 42.4768 2186.36 43.598C2186.36 44.7125 2186.14 45.7046 2185.7 46.5744C2185.26 47.4374 2184.64 48.1101 2183.84 48.5926C2183.04 49.075 2182.14 49.3163 2181.12 49.3163ZM2181.12 48.0727C2181.9 48.0727 2182.58 47.8723 2183.15 47.4714C2183.72 47.0704 2184.15 46.5302 2184.44 45.8507C2184.73 45.1712 2184.88 44.4203 2184.88 43.598C2184.88 42.7758 2184.73 42.0249 2184.44 41.3454C2184.15 40.6659 2183.72 40.1257 2183.15 39.7247C2182.58 39.317 2181.9 39.1132 2181.12 39.1132C2180.33 39.1132 2179.65 39.317 2179.08 39.7247C2178.52 40.1257 2178.08 40.6659 2177.78 41.3454C2177.48 42.0249 2177.33 42.7758 2177.33 43.598C2177.33 44.4203 2177.48 45.1712 2177.77 45.8507C2178.07 46.5302 2178.5 47.0704 2179.07 47.4714C2179.65 47.8723 2180.33 48.0727 2181.12 48.0727Z" fill="#2B66AE"/>
<path d="M2174.61 39.2049H2168.68V38.0225H2174.61V39.2049ZM2170.5 36.4324C2170.5 35.848 2170.63 35.3486 2170.88 34.9341C2171.13 34.5195 2171.49 34.2036 2171.96 33.9861C2172.43 33.7619 2172.98 33.6497 2173.62 33.6497C2173.81 33.6497 2174.01 33.6599 2174.23 33.6803C2174.46 33.6939 2174.66 33.7177 2174.85 33.7517V35.0054C2174.54 34.9578 2174.23 34.9341 2173.91 34.9341C2173.27 34.9341 2172.8 35.0802 2172.48 35.3724C2172.17 35.6645 2172.01 36.1096 2172.01 36.7076L2172 49.092H2170.5V36.4324Z" fill="#2B66AE"/>
<path d="M2159.85 43.1597H2160.16L2165.63 38.0225H2167.5L2162 43.1801L2161.86 43.2005L2159.87 44.9537L2159.85 43.1597ZM2158.5 34.3327H2159.99V49.092H2158.5V34.3327ZM2161.17 43.4553L2162.21 42.4972L2167.81 49.092H2165.92L2161.17 43.4553Z" fill="#2B66AE"/>
<path d="M2151.03 38.0225H2152.47V39.7349H2152.58C2152.82 39.1573 2153.23 38.6986 2153.81 38.3589C2154.4 38.0191 2155.05 37.8492 2155.78 37.8492C2156.06 37.8492 2156.32 37.8594 2156.56 37.8798V39.2762C2156.49 39.2626 2156.37 39.2456 2156.2 39.2253C2156.02 39.2049 2155.85 39.1947 2155.67 39.1947C2155.08 39.1947 2154.55 39.317 2154.06 39.5616C2153.58 39.7995 2153.2 40.1324 2152.93 40.5605C2152.65 40.9818 2152.51 41.4575 2152.51 41.9875V49.092H2151.03V38.0225Z" fill="#2B66AE"/>
<path d="M2143.17 49.3163C2142.15 49.3163 2141.23 49.075 2140.42 48.5926C2139.62 48.1101 2139 47.4374 2138.55 46.5744C2138.11 45.7046 2137.89 44.7125 2137.89 43.598C2137.89 42.4768 2138.11 41.4847 2138.55 40.6217C2139 39.7519 2139.62 39.0758 2140.42 38.5933C2141.23 38.1109 2142.15 37.8696 2143.17 37.8696C2144.19 37.8696 2145.09 38.1109 2145.89 38.5933C2146.69 39.0758 2147.31 39.7519 2147.75 40.6217C2148.19 41.4847 2148.41 42.4768 2148.41 43.598C2148.41 44.7125 2148.19 45.7046 2147.75 46.5744C2147.31 47.4374 2146.69 48.1101 2145.89 48.5926C2145.09 49.075 2144.19 49.3163 2143.17 49.3163ZM2143.17 48.0727C2143.95 48.0727 2144.63 47.8723 2145.2 47.4714C2145.77 47.0704 2146.2 46.5302 2146.49 45.8507C2146.78 45.1712 2146.93 44.4203 2146.93 43.598C2146.93 42.7758 2146.78 42.0249 2146.49 41.3454C2146.2 40.6659 2145.77 40.1257 2145.2 39.7247C2144.63 39.317 2143.95 39.1132 2143.17 39.1132C2142.38 39.1132 2141.7 39.317 2141.13 39.7247C2140.57 40.1257 2140.13 40.6659 2139.83 41.3454C2139.53 42.0249 2139.39 42.7758 2139.39 43.598C2139.39 44.4203 2139.53 45.1712 2139.82 45.8507C2140.12 46.5302 2140.55 47.0704 2141.12 47.4714C2141.7 47.8723 2142.38 48.0727 2143.17 48.0727Z" fill="#2B66AE"/>
<path d="M2118.34 34.3327H2119.92L2123.46 46.87H2123.58L2127.11 34.3327H2128.89L2132.44 46.87H2132.55L2136.1 34.3327H2137.67L2133.33 49.092H2131.68L2128.07 36.7484H2127.95L2124.33 49.092H2122.67L2118.34 34.3327Z" fill="#2B66AE"/>
<path d="M2106.71 49.3163C2105.62 49.3163 2104.66 49.0784 2103.84 48.6028C2103.02 48.1271 2102.38 47.4578 2101.94 46.5948C2101.49 45.7318 2101.27 44.7431 2101.27 43.6286C2101.27 42.521 2101.49 41.5289 2101.94 40.6523C2102.38 39.7757 2103 39.0928 2103.8 38.6035C2104.59 38.1143 2105.5 37.8696 2106.52 37.8696C2107.42 37.8696 2108.26 38.0701 2109.02 38.471C2109.79 38.8651 2110.4 39.4733 2110.86 40.2955C2111.32 41.1178 2111.56 42.1269 2111.56 43.3228V43.9752H2102.29V42.7724H2110.06C2110.06 42.0793 2109.91 41.4575 2109.61 40.9071C2109.31 40.3499 2108.89 39.9116 2108.35 39.5922C2107.81 39.2729 2107.2 39.1132 2106.52 39.1132C2105.79 39.1132 2105.14 39.2932 2104.57 39.6534C2104 40.0067 2103.56 40.4892 2103.24 41.1008C2102.93 41.7056 2102.77 42.3613 2102.77 43.068V43.8019C2102.77 44.6649 2102.93 45.4192 2103.25 46.0647C2103.58 46.7103 2104.04 47.2063 2104.63 47.5529C2105.22 47.8995 2105.92 48.0727 2106.71 48.0727C2107.23 48.0727 2107.69 48.0014 2108.09 47.8587C2108.5 47.7092 2108.84 47.5257 2109.11 47.3083C2109.39 47.0908 2109.6 46.8496 2109.74 46.5846H2111.34C2111.16 47.101 2110.85 47.5665 2110.43 47.981C2110.01 48.3887 2109.48 48.7149 2108.85 48.9595C2108.21 49.1974 2107.5 49.3163 2106.71 49.3163Z" fill="#2B66AE"/>
<path d="M2094.8 38.0225H2096.24V39.7349H2096.35C2096.59 39.1573 2097 38.6986 2097.59 38.3589C2098.17 38.0191 2098.83 37.8492 2099.56 37.8492C2099.84 37.8492 2100.1 37.8594 2100.33 37.8798V39.2762C2100.27 39.2626 2100.15 39.2456 2099.97 39.2253C2099.8 39.2049 2099.62 39.1947 2099.45 39.1947C2098.86 39.1947 2098.32 39.317 2097.84 39.5616C2097.36 39.7995 2096.98 40.1324 2096.7 40.5605C2096.43 40.9818 2096.29 41.4575 2096.29 41.9875V49.092H2094.8V38.0225Z" fill="#2B66AE"/>
<path d="M2090.11 38.0225H2091.58V49.092H2090.11V47.2471H2089.99C2089.69 47.8383 2089.24 48.3174 2088.64 48.6843C2088.03 49.0513 2087.31 49.2347 2086.46 49.2347C2085.7 49.2347 2085.02 49.0784 2084.43 48.7659C2083.84 48.4465 2083.39 47.9844 2083.05 47.3796C2082.72 46.768 2082.56 46.0308 2082.56 45.1678V38.0225H2084.05V45.0862C2084.05 45.6366 2084.17 46.1259 2084.41 46.554C2084.65 46.9753 2084.99 47.3049 2085.42 47.5427C2085.86 47.7737 2086.35 47.8893 2086.9 47.8893C2087.44 47.8893 2087.96 47.7704 2088.45 47.5325C2088.94 47.2879 2089.34 46.9311 2089.64 46.4623C2089.95 45.9934 2090.11 45.4396 2090.11 44.8008V38.0225Z" fill="#2B66AE"/>
<path d="M2079.87 39.2049H2074.11V38.0225H2079.87V39.2049ZM2077.38 35.3723V46.1463C2077.38 46.588 2077.45 46.9379 2077.61 47.1961C2077.77 47.4544 2077.98 47.6412 2078.23 47.7567C2078.49 47.8655 2078.79 47.9198 2079.13 47.9198C2079.45 47.9198 2079.78 47.9096 2080.11 47.8892V49.1837C2079.81 49.2313 2079.44 49.2551 2078.98 49.2551C2078.45 49.2551 2077.95 49.1464 2077.48 48.9289C2077 48.7115 2076.62 48.3921 2076.32 47.9708C2076.03 47.5495 2075.88 47.05 2075.88 46.4724V35.3723H2077.38Z" fill="#2B66AE"/>
<path d="M2070.42 38.0225H2071.88V49.092H2070.42V47.2471H2070.3C2070 47.8383 2069.54 48.3174 2068.94 48.6843C2068.33 49.0513 2067.61 49.2347 2066.76 49.2347C2066 49.2347 2065.32 49.0784 2064.73 48.7659C2064.15 48.4465 2063.69 47.9844 2063.35 47.3796C2063.03 46.768 2062.86 46.0308 2062.86 45.1678V38.0225H2064.35V45.0862C2064.35 45.6366 2064.47 46.1259 2064.71 46.554C2064.96 46.9753 2065.3 47.3049 2065.73 47.5427C2066.16 47.7737 2066.66 47.8893 2067.2 47.8893C2067.75 47.8893 2068.27 47.7704 2068.75 47.5325C2069.24 47.2879 2069.64 46.9311 2069.95 46.4623C2070.26 45.9934 2070.42 45.4396 2070.42 44.8008V38.0225Z" fill="#2B66AE"/>
<path d="M2051.48 34.3327H2060.73V35.6272H2053.04V41.06H2060V42.3443H2053.04V49.092H2051.48V34.3327Z" fill="#2B66AE"/>
<path d="M2038.31 38.0225H2039.76V39.7349H2039.87C2040.11 39.1573 2040.52 38.6986 2041.1 38.3589C2041.68 38.0191 2042.34 37.8492 2043.07 37.8492C2043.35 37.8492 2043.61 37.8594 2043.84 37.8798V39.2762C2043.78 39.2626 2043.66 39.2456 2043.48 39.2253C2043.31 39.2049 2043.13 39.1947 2042.96 39.1947C2042.37 39.1947 2041.83 39.317 2041.35 39.5616C2040.87 39.7995 2040.49 40.1324 2040.21 40.5605C2039.94 40.9818 2039.8 41.4575 2039.8 41.9875V49.092H2038.31V38.0225Z" fill="#2B66AE"/>
<path d="M2030.45 49.3163C2029.43 49.3163 2028.52 49.075 2027.71 48.5926C2026.91 48.1101 2026.29 47.4374 2025.84 46.5744C2025.4 45.7046 2025.17 44.7125 2025.17 43.598C2025.17 42.4768 2025.4 41.4847 2025.84 40.6217C2026.29 39.7519 2026.91 39.0758 2027.71 38.5933C2028.52 38.1109 2029.43 37.8696 2030.45 37.8696C2031.47 37.8696 2032.38 38.1109 2033.18 38.5933C2033.98 39.0758 2034.6 39.7519 2035.03 40.6217C2035.48 41.4847 2035.7 42.4768 2035.7 43.598C2035.7 44.7125 2035.48 45.7046 2035.03 46.5744C2034.6 47.4374 2033.98 48.1101 2033.18 48.5926C2032.38 49.075 2031.47 49.3163 2030.45 49.3163ZM2030.45 48.0727C2031.24 48.0727 2031.92 47.8723 2032.49 47.4714C2033.06 47.0704 2033.49 46.5302 2033.78 45.8507C2034.07 45.1712 2034.21 44.4203 2034.21 43.598C2034.21 42.7758 2034.07 42.0249 2033.78 41.3454C2033.49 40.6659 2033.06 40.1257 2032.49 39.7247C2031.92 39.317 2031.24 39.1132 2030.45 39.1132C2029.67 39.1132 2028.99 39.317 2028.42 39.7247C2027.85 40.1257 2027.42 40.6659 2027.12 41.3454C2026.82 42.0249 2026.67 42.7758 2026.67 43.598C2026.67 44.4203 2026.82 45.1712 2027.11 45.8507C2027.41 46.5302 2027.84 47.0704 2028.41 47.4714C2028.99 47.8723 2029.67 48.0727 2030.45 48.0727Z" fill="#2B66AE"/>
<path d="M2023.95 39.2049H2018.02V38.0225H2023.95V39.2049ZM2019.84 36.4324C2019.84 35.848 2019.96 35.3486 2020.21 34.9341C2020.47 34.5195 2020.83 34.2036 2021.29 33.9861C2021.77 33.7619 2022.32 33.6497 2022.96 33.6497C2023.15 33.6497 2023.35 33.6599 2023.57 33.6803C2023.79 33.6939 2024 33.7177 2024.19 33.7517V35.0054C2023.88 34.9578 2023.56 34.9341 2023.25 34.9341C2022.61 34.9341 2022.13 35.0802 2021.82 35.3724C2021.51 35.6645 2021.35 36.1096 2021.35 36.7076L2021.34 49.092H2019.84V36.4324Z" fill="#2B66AE"/>
<path d="M2010.08 49.092H2008.53V34.3327H2010.08V49.092Z" fill="#2B66AE"/>
<path d="M1993.05 49.092L1998.8 34.3327H2000.48L2006.24 49.092H2004.6L1999.7 36.2082H1999.58L1994.67 49.092H1993.05ZM2003.6 43.4146V44.6989H1995.7V43.4146H2003.6Z" fill="#2B66AE"/>
<path d="M1978 37.1663H1980.77C1981.06 37.1663 1981.35 37.2343 1981.62 37.3702C1981.89 37.4993 1982.11 37.6895 1982.27 37.941C1982.45 38.1924 1982.54 38.4948 1982.54 38.8481C1982.54 39.1947 1982.45 39.5005 1982.27 39.7655C1982.1 40.0305 1981.87 40.2378 1981.58 40.3873C1981.3 40.53 1981.01 40.6013 1980.7 40.6013H1978.6V39.847H1980.42C1980.59 39.847 1980.75 39.8063 1980.91 39.7247C1981.06 39.6432 1981.18 39.5277 1981.27 39.3782C1981.36 39.2219 1981.4 39.0452 1981.4 38.8481C1981.4 38.5288 1981.3 38.2977 1981.11 38.155C1980.93 38.0055 1980.71 37.9308 1980.45 37.9308H1979.04V42.487H1978V37.1663ZM1982.77 42.487H1981.61L1980.23 40.0101H1981.36L1982.77 42.487ZM1980.11 45.6672C1979 45.6672 1977.97 45.409 1977.03 44.8925C1976.08 44.3693 1975.33 43.666 1974.76 42.7826C1974.2 41.8992 1973.92 40.9377 1973.92 39.898C1973.92 38.8515 1974.2 37.8866 1974.76 37.0032C1975.33 36.1198 1976.08 35.4199 1977.03 34.9035C1977.97 34.387 1979 34.1288 1980.11 34.1288C1981.23 34.1288 1982.27 34.387 1983.21 34.9035C1984.16 35.4199 1984.91 36.1198 1985.47 37.0032C1986.02 37.8866 1986.3 38.8515 1986.3 39.898C1986.3 40.9377 1986.02 41.8992 1985.47 42.7826C1984.91 43.666 1984.16 44.3693 1983.21 44.8925C1982.27 45.409 1981.23 45.6672 1980.11 45.6672ZM1980.11 44.5358C1981.02 44.5358 1981.85 44.3285 1982.61 43.914C1983.38 43.4995 1983.98 42.9355 1984.43 42.222C1984.87 41.5085 1985.09 40.7338 1985.09 39.898C1985.09 39.0486 1984.87 38.2705 1984.43 37.5638C1983.98 36.8503 1983.38 36.2897 1982.61 35.882C1981.85 35.4675 1981.02 35.2602 1980.11 35.2602C1979.21 35.2602 1978.38 35.4675 1977.62 35.882C1976.85 36.2897 1976.24 36.8503 1975.79 37.5638C1975.35 38.2705 1975.13 39.0486 1975.13 39.898C1975.13 40.7338 1975.35 41.5085 1975.79 42.222C1976.24 42.9355 1976.85 43.4995 1977.62 43.914C1978.38 44.3285 1979.21 44.5358 1980.11 44.5358Z" fill="#2B66AE"/>
<path d="M1971.42 49.092H1969.93V34.3327H1971.42V49.092Z" fill="#2B66AE"/>
<path d="M1962.48 49.3163C1961.39 49.3163 1960.43 49.0784 1959.6 48.6028C1958.78 48.1271 1958.15 47.4578 1957.7 46.5948C1957.26 45.7318 1957.04 44.7431 1957.04 43.6286C1957.04 42.521 1957.26 41.5289 1957.7 40.6523C1958.15 39.7757 1958.77 39.0928 1959.56 38.6035C1960.36 38.1143 1961.26 37.8696 1962.28 37.8696C1963.19 37.8696 1964.02 38.0701 1964.79 38.471C1965.55 38.8651 1966.16 39.4733 1966.62 40.2955C1967.09 41.1178 1967.32 42.1269 1967.32 43.3228V43.9752H1958.05V42.7724H1965.82C1965.82 42.0793 1965.67 41.4575 1965.38 40.9071C1965.08 40.3499 1964.66 39.9116 1964.12 39.5922C1963.58 39.2729 1962.97 39.1132 1962.28 39.1132C1961.55 39.1132 1960.91 39.2932 1960.34 39.6534C1959.77 40.0067 1959.32 40.4892 1959 41.1008C1958.69 41.7056 1958.53 42.3613 1958.53 43.068V43.8019C1958.53 44.6649 1958.69 45.4192 1959.01 46.0647C1959.34 46.7103 1959.8 47.2063 1960.39 47.5529C1960.99 47.8995 1961.68 48.0727 1962.48 48.0727C1963 48.0727 1963.46 48.0014 1963.86 47.8587C1964.26 47.7092 1964.6 47.5257 1964.87 47.3083C1965.15 47.0908 1965.36 46.8496 1965.51 46.5846H1967.1C1966.92 47.101 1966.62 47.5665 1966.2 47.981C1965.77 48.3887 1965.24 48.7149 1964.61 48.9595C1963.98 49.1974 1963.27 49.3163 1962.48 49.3163Z" fill="#2B66AE"/>
<path d="M1955.09 39.2049H1949.33V38.0225H1955.09V39.2049ZM1952.6 35.3723V46.1463C1952.6 46.588 1952.67 46.9379 1952.83 47.1961C1952.99 47.4544 1953.2 47.6412 1953.45 47.7567C1953.71 47.8655 1954.01 47.9198 1954.35 47.9198C1954.67 47.9198 1955 47.9096 1955.33 47.8892V49.1837C1955.03 49.2313 1954.66 49.2551 1954.2 49.2551C1953.67 49.2551 1953.17 49.1464 1952.7 48.9289C1952.22 48.7115 1951.84 48.3921 1951.54 47.9708C1951.25 47.5495 1951.1 47.05 1951.1 46.4724V35.3723H1952.6Z" fill="#2B66AE"/>
<path d="M1939.53 49.092H1938.04V38.0225H1939.48V39.7655H1939.6C1939.91 39.1675 1940.35 38.7054 1940.94 38.3792C1941.53 38.0463 1942.25 37.8798 1943.11 37.8798C1943.92 37.8798 1944.62 38.0361 1945.22 38.3487C1945.82 38.6545 1946.29 39.1131 1946.62 39.7247C1946.95 40.3363 1947.12 41.077 1947.12 41.9468V49.092H1945.64V42.0283C1945.64 41.4371 1945.52 40.9241 1945.27 40.4892C1945.04 40.0543 1944.7 39.7213 1944.26 39.4903C1943.82 39.2524 1943.3 39.1335 1942.7 39.1335C1942.08 39.1335 1941.54 39.2592 1941.06 39.5107C1940.57 39.7553 1940.2 40.112 1939.93 40.5809C1939.66 41.043 1939.53 41.59 1939.53 42.222V49.092Z" fill="#2B66AE"/>
<path d="M1934.55 49.092H1933V34.3327H1934.55V49.092Z" fill="#2B66AE"/>
<g clip-path="url(#clip0_57_158)">
<path d="M87 0H1.28746e-05V87H87V0Z" fill="#0068B6"/>
<path d="M17.6677 32.6696H13.3846V36.9527H17.6677V32.6696Z" fill="#00C7FD"/>
<path d="M17.5673 54.9996V39.5515H13.4962V54.9885H17.5673V54.9996ZM44.5262 55.1558V51.3746C44.0354 51.3746 43.5446 51.3523 43.065 51.2854C42.7081 51.2519 42.3735 51.0958 42.1058 50.8615C41.8715 50.605 41.7265 50.2815 41.6819 49.9358C41.615 49.445 41.5815 48.9431 41.5927 48.4412V43.0539H44.5373V39.5627H41.5927V33.5508H37.5215V48.4858C37.4992 49.5565 37.6108 50.6273 37.845 51.6758C38.0235 52.4454 38.3915 53.1481 38.9269 53.7169C39.4735 54.2523 40.165 54.6427 40.9123 54.8323C41.9273 55.0777 42.9646 55.1892 44.0131 55.1669H44.5485L44.5262 55.1558ZM67.8377 54.9996V32.3462H63.7554V54.9996H67.8377ZM33.5954 41.0685C32.3573 39.8081 30.6285 39.1389 28.8662 39.2392C27.9404 39.2281 27.0258 39.4289 26.2004 39.8304C25.4085 40.2208 24.7169 40.7785 24.1704 41.4812L23.9585 41.7712V39.5404H19.9431V54.9773H23.9808V47.0469C23.925 45.8869 24.3042 44.7381 25.0515 43.8458C25.7208 43.1319 26.6577 42.7415 27.6281 42.7527C28.6319 42.6858 29.6135 43.0762 30.2939 43.8235C30.9296 44.6712 31.2419 45.7196 31.175 46.7792V46.8239V54.9885H35.2796V46.2327C35.4023 44.3589 34.7889 42.5185 33.5842 41.0796L33.5954 41.0685ZM61.6696 47.2477C61.6696 46.1769 61.48 45.1173 61.0896 44.1246C60.6992 43.1765 60.1415 42.3177 59.45 41.5704C58.7362 40.8342 57.8773 40.2542 56.9292 39.8639C55.9031 39.44 54.7989 39.2392 53.6946 39.2504C52.6127 39.2504 51.5419 39.4623 50.5492 39.875C49.6012 40.2765 48.7312 40.8565 48.0062 41.5815C47.2812 42.3065 46.7012 43.1765 46.2996 44.1246C45.8758 45.1173 45.6639 46.1881 45.675 47.27C45.675 48.3408 45.8646 49.4115 46.2662 50.4154C46.6454 51.3635 47.2142 52.2335 47.9281 52.9585C48.6642 53.6946 49.5454 54.2746 50.5158 54.665C51.5642 55.1 52.6908 55.3119 53.8285 55.3008C56.4608 55.3677 58.9815 54.2635 60.6881 52.2669L57.7546 50.0362C56.7508 51.1292 55.3342 51.7539 53.8508 51.765C52.8581 51.8096 51.8654 51.5308 51.04 50.9731C50.3262 50.4489 49.8019 49.6904 49.5789 48.8204L49.5342 48.6865H61.6585V47.2365L61.6696 47.2477ZM49.5677 45.8312C49.5677 44.7046 50.8615 42.7304 53.6612 42.7192C56.4608 42.7081 57.7658 44.6823 57.7658 45.82H49.5789L49.5677 45.8312ZM72.4777 53.0477C72.3216 52.6908 72.0427 52.4119 71.6858 52.2558C71.5073 52.1777 71.3065 52.1331 71.1058 52.1331C70.905 52.1331 70.7042 52.1777 70.5258 52.2558C70.1689 52.4119 69.89 52.6908 69.7339 53.0477C69.6558 53.2262 69.6112 53.4269 69.6112 53.6277C69.6112 53.8285 69.6558 54.0292 69.7339 54.2077C69.89 54.5646 70.1689 54.8435 70.5258 54.9996C70.7042 55.0777 70.905 55.1223 71.1058 55.1223C71.3065 55.1223 71.5073 55.0777 71.6858 54.9996C72.0427 54.8435 72.3216 54.5646 72.4777 54.2077C72.645 53.8396 72.645 53.4158 72.4777 53.0477ZM72.2323 54.1073C72.1096 54.4085 71.8754 54.6427 71.5742 54.7654C71.4181 54.8323 71.2508 54.8546 71.0835 54.8546C70.9162 54.8546 70.7489 54.8212 70.5927 54.7654C70.2915 54.6427 70.0573 54.4085 69.9346 54.1073C69.8677 53.9512 69.8454 53.7839 69.8454 53.6165C69.8454 53.4492 69.8789 53.2819 69.9346 53.1258C70.0573 52.8246 70.2915 52.5904 70.5927 52.4677C70.7489 52.4008 70.9162 52.3785 71.0835 52.3785C71.2508 52.3785 71.4181 52.4119 71.5742 52.4677C71.8754 52.5904 72.1096 52.8246 72.2323 53.1258C72.355 53.4381 72.355 53.7838 72.2323 54.1073ZM71.3846 53.7615C71.4962 53.7615 71.5965 53.7058 71.6746 53.6277C71.7639 53.5385 71.8085 53.4158 71.7973 53.2931C71.8085 53.1481 71.7527 53.0031 71.6412 52.9139C71.5073 52.8135 71.3512 52.7689 71.1839 52.78H70.5146V54.5089H70.8269V53.8062H71.0612L71.485 54.5089H71.8196L71.3846 53.7727V53.7615ZM71.2173 53.505H70.8269V53.0142H71.2062C71.2062 53.0142 71.2954 53.0254 71.34 53.0477C71.3846 53.0589 71.4069 53.0923 71.4292 53.1258C71.4627 53.1592 71.4627 53.2039 71.4627 53.2596C71.4627 53.3042 71.4627 53.3489 71.4292 53.3935C71.4069 53.4269 71.3735 53.4492 71.34 53.4715C71.2954 53.4939 71.2508 53.4939 71.2062 53.505H71.2173Z" fill="white"/>
</g>
<defs>
<linearGradient id="paint0_linear_57_158" x1="1607.43" y1="100.113" x2="1607.41" y2="86.3265" gradientUnits="userSpaceOnUse">
<stop stop-color="white" stop-opacity="0"/>
<stop offset="1" stop-color="#737373" stop-opacity="0.28"/>
</linearGradient>
<clipPath id="clip0_57_158">
<rect width="87" height="87" fill="white"/>
</clipPath>
</defs>
</svg>
