<svg width="234" height="91" viewBox="0 0 234 91" fill="none" xmlns="http://www.w3.org/2000/svg">
<path d="M16.9435 1.26086H0V18.2044H16.9435V1.26086Z" fill="#00C7FD"/>
<path d="M16.5097 89.5159V28.4515H0.420166V89.4482H16.5097V89.5159ZM123.091 90.1259V75.1749C121.153 75.2021 119.214 75.0801 117.303 74.809C115.894 74.6734 114.552 74.077 113.508 73.1146C112.586 72.0845 111.99 70.8103 111.814 69.4413C111.542 67.4894 111.42 65.5104 111.448 63.5314V42.2503H123.078V28.4515H111.448V4.70352H95.3445V63.7211C95.2631 67.9502 95.6833 72.1793 96.6051 76.3136C97.2963 79.3363 98.7738 82.115 100.888 84.3922C103.071 86.5339 105.768 88.052 108.723 88.7975C112.722 89.7735 116.842 90.2208 120.963 90.1259H123.078H123.091ZM215.21 89.5159V0H199.093V89.5159H215.21ZM79.892 34.4834C74.9987 29.4953 68.1806 26.8521 61.2135 27.2452C57.5672 27.1909 53.9481 28.0042 50.6678 29.5901C47.5367 31.1218 44.785 33.3448 42.6434 36.0964L41.803 37.2486V28.438H25.9303V89.4482H41.8979V58.1095C41.6674 53.5144 43.172 48.9871 46.1134 45.4493C48.7566 42.6434 52.4435 41.0711 56.3066 41.1117C60.2782 40.8406 64.1549 42.3994 66.8523 45.3273C69.3463 48.7024 70.5934 52.8366 70.3494 57.0251V57.2013V89.4482H86.561V54.8427C87.0354 47.4418 84.6362 40.1493 79.8649 34.4699H79.892V34.4834ZM190.811 58.8956C190.825 54.6801 190.052 50.4917 188.52 46.5472C186.989 42.8196 184.793 39.4038 182.041 36.4624C179.222 33.5481 175.846 31.2574 172.092 29.7121C168.039 28.0584 163.688 27.2316 159.31 27.2994C155.04 27.2858 150.824 28.1262 146.893 29.7664C143.139 31.3658 139.723 33.6566 136.822 36.5167C133.935 39.4038 131.644 42.8196 130.072 46.5879C128.391 50.5052 127.551 54.7343 127.605 59.0041C127.578 63.2603 128.378 67.4758 129.95 71.4203C131.468 75.175 133.691 78.5908 136.524 81.4915C139.425 84.4193 142.908 86.7101 146.731 88.2418C150.879 89.9632 155.324 90.8172 159.811 90.7765C170.194 91.0612 180.157 86.6559 186.934 78.7805L175.358 69.9699C171.387 74.2803 165.802 76.7473 159.933 76.7744C155.989 76.9642 152.098 75.8662 148.845 73.6433C145.999 71.5558 143.966 68.5602 143.057 65.1444L142.881 64.6022H190.797V58.8685L190.825 58.8956H190.811ZM142.99 53.2839C142.99 48.8244 148.113 41.0439 159.147 40.9897C170.181 40.922 175.358 48.7702 175.358 53.2297L142.99 53.2975V53.2839ZM233.522 81.8033C232.912 80.3936 231.801 79.2685 230.391 78.6721C229.673 78.3603 228.886 78.1977 228.1 78.1977C227.314 78.1977 226.528 78.3603 225.809 78.6721C224.4 79.2821 223.275 80.3936 222.678 81.8033C222.367 82.5217 222.204 83.3078 222.204 84.094C222.204 84.8802 222.367 85.6664 222.678 86.3848C223.288 87.7945 224.4 88.9195 225.809 89.5159C226.528 89.8277 227.314 89.9904 228.1 89.9904C228.886 89.9904 229.673 89.8277 230.391 89.5159C231.801 88.906 232.926 87.7945 233.522 86.3848C234.159 84.9209 234.159 83.2672 233.522 81.8033ZM232.56 86.0188C232.099 87.2116 231.15 88.1469 229.971 88.6078C229.361 88.8517 228.697 88.9737 228.046 88.9737C227.382 88.9737 226.731 88.8517 226.121 88.6078C224.928 88.1469 223.993 87.1981 223.532 86.0188C223.288 85.4088 223.166 84.7446 223.166 84.094C223.166 83.4298 223.288 82.7792 223.532 82.1692C223.993 80.9764 224.942 80.0411 226.121 79.5803C226.731 79.3363 227.395 79.2143 228.046 79.2143C228.71 79.2143 229.361 79.3363 229.971 79.5803C231.164 80.0411 232.099 80.99 232.56 82.1692C233.048 83.4163 233.048 84.7853 232.56 86.0323V86.0188ZM229.198 84.6362C229.632 84.5955 230.039 84.4058 230.35 84.094C230.689 83.7416 230.865 83.2536 230.825 82.7656C230.865 82.1963 230.649 81.6406 230.215 81.2611C229.7 80.8544 229.063 80.6646 228.412 80.7189H225.769V87.5234H226.989V84.7447H227.897L229.591 87.5234H230.92L229.212 84.6227L229.198 84.6362ZM228.534 83.606H226.989V81.6813H228.493C228.683 81.6813 228.859 81.7355 229.036 81.8033C229.185 81.8575 229.32 81.9659 229.401 82.1015C229.523 82.2235 229.523 82.3997 229.523 82.6437C229.523 82.8334 229.483 83.0232 229.401 83.1858C229.293 83.3078 229.171 83.4027 229.036 83.484C228.873 83.5518 228.697 83.5925 228.52 83.606H228.534Z" fill="white"/>
</svg>
