<svg width="455" height="75" viewBox="0 0 455 75" fill="none" xmlns="http://www.w3.org/2000/svg">
<path d="M66.9605 74.0186H66.9725C71.9456 74.0186 75.9771 70.1391 75.9771 65.3535V28.8264C75.9771 24.0408 71.9456 20.1613 66.9725 20.1613H66.9605C61.9875 20.1613 57.956 24.0408 57.956 28.8264L57.956 65.3535C57.956 70.1391 61.9875 74.0186 66.9605 74.0186Z" fill="#C0DAE2"/>
<path d="M33.5926 60.7663L33.6011 60.7745C37.1176 64.1584 42.8189 64.1584 46.3354 60.7745L73.1758 34.946C76.6923 31.562 76.6923 26.0756 73.1758 22.6917L73.1673 22.6835C69.6508 19.2996 63.9495 19.2996 60.433 22.6835L33.5926 48.512C30.0761 51.896 30.0761 57.3824 33.5926 60.7663Z" fill="#C0DAE2"/>
<path d="M12.6034 20.1631H12.5915C7.61839 20.1631 3.58691 24.0426 3.58691 28.8282V65.3552C3.58691 70.1408 7.61839 74.0203 12.5915 74.0203H12.6034C17.5765 74.0203 21.608 70.1408 21.608 65.3552V28.8282C21.608 24.0426 17.5765 20.1631 12.6034 20.1631Z" fill="#233455"/>
<path d="M6.37564 22.6875L6.36718 22.6956C2.85068 26.0795 2.85068 31.566 6.36718 34.9499L33.2075 60.7784C36.724 64.1623 42.4254 64.1623 45.9419 60.7784L45.9503 60.7703C49.4668 57.3863 49.4668 51.8999 45.9504 48.516L19.11 22.6875C15.5935 19.3035 9.89214 19.3035 6.37564 22.6875Z" fill="#233455"/>
<path d="M12.538 17.3993C17.5309 17.3993 21.5785 13.5043 21.5785 8.69966C21.5785 3.89497 17.5309 0 12.538 0C7.54511 0 3.49756 3.89497 3.49756 8.69966C3.49756 13.5043 7.54511 17.3993 12.538 17.3993Z" fill="#C0DAE2"/>
<path d="M67.0078 17.3998C72.0007 17.3998 76.0482 13.5048 76.0482 8.70015C76.0482 3.89546 72.0007 0.000488281 67.0078 0.000488281C62.0148 0.000488281 57.9673 3.89546 57.9673 8.70015C57.9673 13.5048 62.0148 17.3998 67.0078 17.3998Z" fill="#233455"/>
<path d="M94.8626 23.7227C97.6406 23.7227 99.8918 25.8889 99.8918 28.5622V61.3098C99.8918 63.9831 97.6406 66.1493 94.8626 66.1493C92.0846 66.1493 89.8335 63.9831 89.8335 61.3098V28.5622C89.8335 25.8889 92.0846 23.7227 94.8626 23.7227Z" fill="#233455"/>
<path d="M114.071 23.7227H118.657C120.238 23.7227 121.711 24.5408 122.501 25.8544L137.983 51.6538V27.9861C137.983 25.624 139.971 23.7112 142.426 23.7112C144.881 23.7112 146.868 25.624 146.868 27.9861V61.8629C146.868 64.2251 144.881 66.1378 142.426 66.1378H139.42C137.84 66.1378 136.391 65.3313 135.589 64.0292L118.502 35.9483V61.8744C118.502 64.2366 116.514 66.1494 114.059 66.1494C111.604 66.1494 109.617 64.2366 109.617 61.8744V27.9976C109.617 25.6355 111.604 23.7227 114.059 23.7227H114.071Z" fill="#233455"/>
<path d="M156.347 27.5234C156.347 25.4263 158.12 23.7324 160.287 23.7324H170.764C186.235 23.7324 193.874 31.7983 193.874 44.4964V44.9688C193.874 57.6668 186.175 66.1476 170.692 66.1476H160.275C158.096 66.1476 156.335 64.4422 156.335 62.3566V27.5349L156.347 27.5234ZM170.405 58.6578C179.278 58.6578 183.469 53.8528 183.469 45.0725V44.6001C183.469 35.8774 179.589 31.1991 170.273 31.1991H166.334V58.6578H170.405Z" fill="#233455"/>
<path d="M201.41 45.2013V44.7288C201.41 31.858 210.773 23.0776 223.298 23.0776C231.357 23.0776 237.835 25.9468 240.948 31.904C242.529 34.923 240.146 38.495 236.638 38.495H236.326C234.362 38.495 232.566 37.3543 231.836 35.5913C230.507 32.365 227.741 30.6596 223.358 30.6596C216.389 30.6596 211.959 35.8794 211.959 44.6597V45.1321C211.959 53.9124 216.15 59.017 223.43 59.017C227.873 59.017 231.225 57.2656 232.758 53.705C233.5 51.9997 235.237 50.8935 237.152 50.8935C240.661 50.8935 243.008 54.4194 241.475 57.4614C238.362 63.6376 231.836 66.7949 223.538 66.7949C209.109 66.7949 201.41 58.2565 201.41 45.2013Z" fill="#C0DAE2"/>
<path d="M261.795 23.7251H271.015C272.153 23.7251 273.147 24.428 273.494 25.465L286.103 62.8563C286.654 64.481 285.396 66.1403 283.624 66.1403H278.727C277.577 66.1403 276.571 65.4258 276.236 64.3658L273.781 56.7031H257.82L255.365 64.3658C255.03 65.4143 254.012 66.1403 252.874 66.1403H249.043C247.271 66.1403 246.001 64.4695 246.564 62.8448L259.329 25.4535C259.676 24.428 260.682 23.7251 261.807 23.7251H261.795ZM259.963 49.8932H271.614L265.819 31.5606L259.963 49.8932Z" fill="#C0DAE2"/>
<path d="M295.849 23.7251H303.32C304.254 23.7251 305.117 24.2091 305.584 24.9811L321.593 51.6677V26.2371C321.593 24.8543 322.766 23.7251 324.203 23.7251H327.855C329.292 23.7251 330.466 24.8543 330.466 26.2371V63.6283C330.466 65.011 329.292 66.1403 327.855 66.1403H321.976C321.054 66.1403 320.192 65.6678 319.725 64.8958L302.111 35.9507V63.6283C302.111 65.011 300.938 66.1403 299.501 66.1403H295.849C294.412 66.1403 293.238 65.011 293.238 63.6283V26.2371C293.238 24.8543 294.412 23.7251 295.849 23.7251Z" fill="#C0DAE2"/>
<path d="M340.01 23.7251H345.003C346.153 23.7251 347.158 24.4395 347.494 25.4996L357.408 56.2998L367.323 25.4996C367.658 24.451 368.676 23.7251 369.814 23.7251H373.633C375.417 23.7251 376.675 25.4074 376.112 27.0321L363.18 64.4234C362.821 65.4489 361.827 66.1403 360.701 66.1403H353.002C351.876 66.1403 350.882 65.4489 350.523 64.4234L337.531 27.0321C336.968 25.4074 338.226 23.7251 340.01 23.7251Z" fill="#C0DAE2"/>
<path d="M391.595 23.7251H400.815C401.953 23.7251 402.946 24.428 403.294 25.465L415.902 62.8563C416.453 64.481 415.196 66.1403 413.424 66.1403H408.526C407.377 66.1403 406.371 65.4258 406.036 64.3658L403.581 56.7031H387.62L385.165 64.3658C384.83 65.4143 383.812 66.1403 382.674 66.1403H378.843C377.07 66.1403 375.801 64.4695 376.364 62.8448L389.128 25.4535C389.476 24.428 390.481 23.7251 391.607 23.7251H391.595ZM389.763 49.8932H401.414L395.618 31.5606L389.763 49.8932Z" fill="#C0DAE2"/>
<path d="M422.343 52.8553H426.57C427.863 52.8553 428.94 53.708 429.288 54.9063C430.114 57.7179 432.209 59.792 437.526 59.792C441.896 59.792 444.794 57.4759 444.794 54.1574C444.794 50.8388 442.95 49.5944 436.472 48.638C425.193 47.2092 420.571 43.9482 420.571 35.7671C420.571 28.5308 426.857 23.1382 436.592 23.1382C445.153 23.1382 450.638 26.3185 452.506 32.5983C452.985 34.2115 451.751 35.8362 450.003 35.8362H445.968C444.89 35.8362 443.884 35.2025 443.537 34.223C442.567 31.4806 440.316 30.2016 436.604 30.2016C432.233 30.2016 430.006 32.1605 430.006 35.0066C430.006 38.0371 431.419 39.4544 438.208 40.3992C448.877 41.7013 454.362 44.4898 454.362 53.2701C454.362 60.806 447.955 66.7978 437.538 66.7978C427.12 66.7978 421.385 62.6035 419.792 55.8627C419.433 54.3187 420.714 52.8553 422.355 52.8553H422.343Z" fill="#C0DAE2"/>
</svg>
