<svg width="884" height="233" viewBox="0 0 884 233" fill="none" xmlns="http://www.w3.org/2000/svg">
<g clip-path="url(#clip0_118_12)">
<path d="M349.47 1.03705H361.19V101.188H349.607V90.0248C346.452 94.0357 342.672 97.1316 338.237 99.3277C333.801 101.524 329.061 102.622 324.016 102.622C314.384 102.622 306.306 99.2515 299.783 92.5412C293.244 85.8156 289.982 77.26 289.982 66.859C289.982 56.458 293.351 47.6584 300.057 40.7498C306.778 33.826 315.054 30.3794 324.87 30.3794C329.64 30.3794 334.137 31.3554 338.374 33.3075C342.611 35.2596 346.315 38.0505 349.454 41.6801V1.03705H349.47ZM325.312 92.4649C332.262 92.4649 338.115 89.9638 342.824 84.9463C347.549 79.9441 349.896 73.7676 349.896 66.4167C349.896 59.0659 347.61 52.8284 343.038 47.9634C338.465 43.0984 332.734 40.6736 325.876 40.6736C319.017 40.6736 313.058 43.0527 308.577 47.8262C304.096 52.5996 301.855 58.8524 301.855 66.5693C301.855 74.2861 304.05 80.5389 308.425 85.3123C312.814 90.0858 318.438 92.4649 325.297 92.4649" fill="#2B66AE"/>
<path d="M377.163 8.90637H390.027V21.6407H377.163V8.90637ZM377.742 32.0874H389.463V101.188H377.742V32.0874Z" fill="#2B66AE"/>
<path d="M461.966 93.0445V88.1795C458.826 91.9922 455.031 94.9508 450.596 97.0554C446.161 99.16 441.421 100.197 436.376 100.197C426.652 100.197 418.543 96.9486 412.066 90.4671C405.588 83.9856 402.342 75.6434 402.342 65.4255C402.342 55.2075 405.649 46.9416 412.279 40.3228C418.909 33.6888 427.079 30.3794 436.803 30.3794C441.756 30.3794 446.435 31.4317 450.809 33.521C455.184 35.6256 458.964 38.5843 462.103 42.3817V32.0875H473.687V92.6174C473.687 104.071 470.638 112.642 464.542 118.376C458.445 124.095 449.239 126.962 436.94 126.962H419.504V116.942H437.519C445.612 116.942 451.724 114.944 455.824 110.934C459.924 106.923 461.966 100.975 461.966 93.0445ZM438.098 89.8876C444.972 89.8876 450.748 87.5237 455.473 82.8113C460.183 78.0835 462.545 72.2883 462.545 65.4255C462.545 58.5627 460.183 52.4776 455.473 47.7499C450.748 43.0375 444.972 40.6736 438.098 40.6736C431.224 40.6736 425.173 42.9155 420.799 47.3992C416.41 51.8829 414.23 57.8459 414.23 65.2882C414.23 72.7306 416.44 78.5716 420.875 83.101C425.311 87.6305 431.057 89.9028 438.113 89.9028" fill="#2B66AE"/>
<path d="M489.675 8.90637H502.539V21.6407H489.675V8.90637ZM490.239 32.0874H501.959V101.188H490.239V32.0874Z" fill="#2B66AE"/>
<path d="M521.362 82.735V42.3817H511.927V32.0874H521.362V10.9042H532.945V32.0722H548.964V42.3664H532.945V81.7132C532.945 84.7633 533.631 87.0357 535.018 88.515C536.39 89.9943 538.524 90.7263 541.374 90.7263H548.949V101.173H539.651C533.265 101.173 528.617 99.6937 525.706 96.7351C522.794 93.7765 521.347 89.1098 521.347 82.7197" fill="#2B66AE"/>
<path d="M620.233 101.188H608.939V89.8876C606.18 93.8985 602.431 97.0249 597.721 99.2667C592.996 101.509 587.921 102.637 582.495 102.637C574.859 102.637 568.671 100.7 563.901 96.8419C559.13 92.9834 556.752 87.905 556.752 81.6064C556.752 74.6521 559.42 69.3754 564.754 65.7915C570.089 62.2076 577.999 60.4232 588.485 60.4232H608.786C608.695 53.9417 607.003 48.9242 603.711 45.4013C600.419 41.8784 595.724 40.1093 589.628 40.1093C586 40.1093 582.434 40.8718 578.913 42.3969C575.377 43.922 571.902 46.2553 568.473 49.4122L562.331 41.6801C566.339 37.8675 570.713 34.9851 575.484 33.033C580.254 31.0809 585.345 30.1049 590.786 30.1049C600.023 30.1049 607.247 32.85 612.444 38.325C617.642 43.8152 620.233 51.3643 620.233 61.0028V101.204V101.188ZM608.786 69.4364H588.622C581.657 69.4364 576.505 70.3972 573.183 72.3035C569.845 74.2098 568.183 77.2142 568.183 81.3167C568.183 84.7481 569.631 87.6152 572.542 89.9028C575.453 92.1904 579.188 93.3342 583.76 93.3342C590.619 93.3342 596.41 91.1229 601.135 86.6849C605.86 82.247 608.405 76.4974 608.786 69.4364Z" fill="#2B66AE"/>
<path d="M647.972 1.03705H636.251V101.188H647.972V1.03705Z" fill="#2B66AE"/>
<path d="M293.137 161.749H304.584V170.472C306.687 167.422 309.4 165.134 312.738 163.609C316.076 162.084 320.023 161.322 324.611 161.322H330.906V172.333H324.474C317.905 172.333 312.966 174.056 309.674 177.488C306.382 180.919 304.751 186.119 304.751 193.089V230.865H293.168V161.764L293.137 161.749Z" fill="#2B66AE"/>
<path d="M371.752 223.133C376.325 223.133 380.547 222.157 384.403 220.205C388.259 218.253 391.81 215.263 395.057 211.253L402.067 217.688C398.15 222.843 393.578 226.686 388.335 229.203C383.092 231.734 377.224 233 370.746 233C360.352 233 351.847 229.599 345.217 222.767C338.587 215.95 335.28 207.196 335.28 196.505C335.28 185.814 338.663 177.426 345.431 170.472C352.198 163.518 360.535 160.025 370.457 160.025C380.379 160.025 388.762 163.32 395.057 169.893C401.351 176.481 404.491 185.067 404.491 195.651C404.491 196.414 404.445 197.298 404.354 198.305C404.262 199.311 404.156 200.043 404.064 200.516H347.305C348.067 207.287 350.719 212.747 355.246 216.895C359.773 221.043 365.275 223.118 371.752 223.118M370.609 169.908C364.604 169.908 359.453 171.86 355.17 175.779C350.872 179.699 348.25 184.945 347.305 191.518H392.77C391.917 184.838 389.478 179.577 385.485 175.703C381.476 171.845 376.523 169.908 370.609 169.908Z" fill="#2B66AE"/>
<path d="M475.257 230.85H463.963V219.549C461.189 223.56 457.455 226.686 452.745 228.928C448.02 231.17 442.945 232.298 437.519 232.298C429.898 232.298 423.695 230.362 418.94 226.503C414.169 222.645 411.792 217.566 411.792 211.268C411.792 204.298 414.459 199.037 419.793 195.453C425.128 191.869 433.038 190.085 443.524 190.085H463.826C463.734 183.603 462.042 178.586 458.75 175.063C455.458 171.524 450.764 169.771 444.667 169.771C441.04 169.771 437.473 170.533 433.937 172.058C430.416 173.583 426.926 175.917 423.497 179.074L417.355 171.341C421.363 167.529 425.737 164.646 430.508 162.694C435.278 160.742 440.369 159.751 445.81 159.751C455.047 159.751 462.271 162.496 467.468 167.971C472.666 173.461 475.257 181.01 475.257 190.649V230.85ZM463.826 199.098H443.661C436.696 199.098 431.56 200.043 428.222 201.95C424.884 203.856 423.223 206.86 423.223 210.963C423.223 214.394 424.67 217.261 427.582 219.549C430.493 221.836 434.227 222.98 438.799 222.98C445.658 222.98 451.45 220.769 456.174 216.331C460.899 211.893 463.445 206.143 463.826 199.082" fill="#2B66AE"/>
<path d="M546.647 130.698H558.368V230.85H546.784V219.686C543.645 223.697 539.85 226.793 535.414 228.989C530.979 231.185 526.239 232.283 521.194 232.283C511.562 232.283 503.484 228.913 496.96 222.187C490.422 215.462 487.16 206.906 487.16 196.505C487.16 186.104 490.528 177.304 497.235 170.396C503.956 163.487 512.232 160.025 522.048 160.025C526.818 160.025 531.314 161.001 535.552 162.954C539.789 164.906 543.492 167.697 546.632 171.326V130.698H546.647ZM522.49 222.126C529.44 222.126 535.292 219.625 540.002 214.608C544.727 209.605 547.074 203.429 547.074 196.078C547.074 188.727 544.788 182.49 540.215 177.625C535.643 172.76 529.927 170.335 523.054 170.335C516.18 170.335 510.236 172.714 505.755 177.487C501.274 182.261 499.033 188.498 499.033 196.231C499.033 203.963 501.228 210.2 505.602 214.974C509.992 219.747 515.616 222.126 522.474 222.126" fill="#2B66AE"/>
<path d="M574.341 138.568H587.205V151.302H574.341V138.568ZM574.92 161.749H586.641V230.85H574.92V161.749Z" fill="#2B66AE"/>
<path d="M603.269 161.749H614.715V172.485C617.474 168.474 620.98 165.394 625.232 163.259C629.469 161.108 634.209 160.041 639.452 160.041C648.612 160.041 655.76 162.999 660.897 168.917C666.048 174.834 668.624 182.932 668.624 193.241V230.865H657.041V193.958C657.041 186.714 655.257 180.995 651.676 176.786C648.094 172.592 643.125 170.487 636.739 170.487C630.353 170.487 624.866 172.729 620.873 177.213C616.864 181.697 614.868 187.507 614.868 194.675V230.88H603.284V161.779L603.269 161.749Z" fill="#2B66AE"/>
<path d="M716.726 223.133C721.298 223.133 725.52 222.157 729.376 220.205C733.232 218.253 736.783 215.263 740.03 211.253L747.041 217.688C743.124 222.843 738.551 226.686 733.308 229.203C728.065 231.734 722.197 233 715.72 233C705.325 233 696.821 229.599 690.206 222.767C683.576 215.95 680.268 207.196 680.268 196.505C680.268 185.814 683.652 177.426 690.419 170.472C697.186 163.518 705.523 160.025 715.446 160.025C725.368 160.025 733.75 163.32 740.045 169.893C746.34 176.481 749.48 185.067 749.48 195.651C749.48 196.414 749.434 197.298 749.342 198.305C749.251 199.311 749.144 200.043 749.053 200.516H692.294C693.056 207.287 695.708 212.747 700.235 216.895C704.761 221.043 710.263 223.118 716.756 223.118M715.567 169.908C709.562 169.908 704.411 171.86 700.128 175.779C695.845 179.699 693.208 184.945 692.263 191.518H737.728C736.875 184.838 734.436 179.577 730.443 175.703C726.435 171.845 721.481 169.908 715.567 169.908Z" fill="#2B66AE"/>
<path d="M816.664 210.688C816.664 217.17 813.89 222.462 808.372 226.564C802.84 230.667 795.646 232.71 786.775 232.71C780.953 232.71 775.497 231.78 770.406 229.919C765.3 228.059 760.712 225.268 756.613 221.547L762.618 212.671C767.007 216.3 771.107 218.924 774.917 220.54C778.728 222.157 782.782 222.965 787.08 222.965C792.597 222.965 797.063 221.882 800.447 219.747C803.83 217.597 805.522 214.806 805.522 211.375C805.522 207.943 804.089 205.289 801.239 203.719C798.374 202.148 793.664 201.309 787.08 201.218C777.447 200.836 770.421 199.067 765.986 195.926C761.551 192.784 759.341 187.873 759.341 181.193C759.341 175.093 761.886 170.015 766.992 165.958C772.098 161.901 778.652 159.873 786.653 159.873C792.094 159.873 797.185 160.742 801.956 162.45C806.726 164.174 811.055 166.705 814.972 170.03L809.393 178.753C805.476 175.596 801.712 173.309 798.1 171.89C794.472 170.457 790.616 169.74 786.516 169.74C781.837 169.74 778.011 170.792 775.009 172.882C772.006 174.986 770.513 177.548 770.513 180.614C770.513 183.954 771.839 186.379 774.521 187.904C777.188 189.429 781.426 190.329 787.248 190.618C797.642 190.908 805.141 192.616 809.774 195.773C814.393 198.93 816.709 203.886 816.709 210.658" fill="#2B66AE"/>
<path d="M884 210.688C884 217.17 881.226 222.462 875.709 226.564C870.176 230.667 862.982 232.71 854.112 232.71C848.289 232.71 842.833 231.78 837.742 229.919C832.637 228.059 828.049 225.268 823.949 221.547L829.954 212.671C834.343 216.3 838.443 218.924 842.254 220.54C846.064 222.157 850.118 222.965 854.401 222.965C859.934 222.965 864.384 221.882 867.768 219.747C871.151 217.597 872.843 214.806 872.843 211.375C872.843 207.943 871.411 205.289 868.56 203.719C865.695 202.148 860.985 201.309 854.401 201.218C844.769 200.836 837.742 199.067 833.307 195.926C828.872 192.784 826.662 187.873 826.662 181.193C826.662 175.093 829.207 170.015 834.313 165.958C839.404 161.901 845.973 159.873 853.974 159.873C859.416 159.873 864.506 160.742 869.277 162.45C874.047 164.174 878.376 166.705 882.293 170.03L876.714 178.753C872.813 175.596 869.048 173.309 865.421 171.89C861.793 170.457 857.937 169.74 853.837 169.74C849.158 169.74 845.333 170.792 842.33 172.882C839.327 174.986 837.834 177.548 837.834 180.614C837.834 183.954 839.16 186.379 841.842 187.904C844.51 189.429 848.747 190.329 854.569 190.618C864.963 190.908 872.462 192.616 877.08 195.773C881.699 198.93 884.015 203.886 884.015 210.658" fill="#2B66AE"/>
<path d="M19.2194 1.40308H0V20.6342H19.2194V1.40308Z" fill="#00285A"/>
<path d="M18.7164 32.2705H0.50293V101.432H18.7164V32.2705ZM139.398 102.134V85.1751C136.715 85.1598 134.505 85.0073 132.813 84.7481C130.939 84.4583 129.506 83.8178 128.546 82.857C127.586 81.8962 126.945 80.5084 126.656 78.724C126.366 77.016 126.229 74.7741 126.229 72.0443V47.8567H139.413V32.2705H126.229V5.33774H108.016V72.1968C108.016 77.8395 108.503 82.6282 109.464 86.4561C110.424 90.2231 112.055 93.319 114.31 95.6218C116.566 97.9399 119.569 99.6175 123.196 100.609C126.869 101.615 131.548 102.134 137.081 102.134H139.382H139.398ZM243.755 0H225.542V101.432H243.755V0ZM90.4576 39.0875C85.4127 33.643 78.2949 30.8674 69.2873 30.8674C64.9435 30.8674 60.9198 31.7672 57.338 33.5363C53.7563 35.3053 50.708 37.7912 48.2847 40.9176L47.294 42.1987V41.0396V32.2705H29.3396V101.432H47.4464V64.5867V67.1488C47.4464 66.7218 47.4616 66.31 47.4769 65.8982C47.6598 59.4319 49.2753 54.6127 52.2779 51.5626C55.4786 48.2989 59.3651 46.6519 63.8309 46.6519C69.0891 46.6519 73.0976 48.2684 75.7496 51.4406C78.3559 54.5517 79.6819 59.0202 79.7124 64.6934V101.448H98.0935V62.1923C98.0935 52.3404 95.5329 44.5625 90.4728 39.1028M216.062 66.7065C216.062 61.75 215.178 57.0528 213.425 52.7216C211.687 48.4057 209.218 44.5625 206.094 41.2989C202.985 38.0505 199.19 35.4578 194.831 33.6278C190.471 31.7977 185.609 30.8521 180.366 30.8521C175.413 30.8521 170.688 31.8129 166.329 33.6888C161.97 35.5799 158.129 38.1572 154.913 41.3751C151.697 44.593 149.122 48.4362 147.232 52.7979C145.357 57.1596 144.397 61.8873 144.397 66.8438C144.397 71.8002 145.311 76.5432 147.095 80.8896C148.878 85.2513 151.393 89.0945 154.563 92.2972C157.733 95.5151 161.62 98.0924 166.116 99.9835C170.612 101.859 175.596 102.82 180.93 102.82C196.339 102.82 205.941 95.8048 211.672 89.247L198.565 79.2578C195.806 82.5367 189.252 86.9899 181.052 86.9899C175.916 86.9899 171.679 85.8004 168.478 83.4518C165.262 81.1032 163.052 77.87 161.909 73.8591L161.726 73.2185H216.031V66.7065H216.062ZM161.909 60.3775C161.909 55.3142 167.716 46.4688 180.245 46.4536C192.773 46.4536 198.595 55.2837 198.595 60.347H161.924L161.909 60.3775Z" fill="#00285A"/>
<path d="M264.499 91.8701C264.148 91.0618 263.661 90.3451 263.051 89.735C262.441 89.125 261.725 88.637 260.917 88.2862C260.109 87.9354 259.225 87.7524 258.296 87.7524C257.366 87.7524 256.497 87.9354 255.674 88.2862C254.866 88.637 254.15 89.125 253.54 89.735C252.931 90.3451 252.443 91.0618 252.093 91.8701C251.742 92.6784 251.559 93.563 251.559 94.4932C251.559 95.4235 251.742 96.2928 252.093 97.1164C252.443 97.9246 252.931 98.6414 253.54 99.2515C254.15 99.8615 254.866 100.35 255.674 100.7C256.497 101.051 257.366 101.234 258.296 101.234C259.225 101.234 260.094 101.051 260.917 100.7C261.725 100.35 262.441 99.8615 263.051 99.2515C263.661 98.6414 264.148 97.9246 264.499 97.1164C264.85 96.2928 265.032 95.4235 265.032 94.4932C265.032 93.563 264.85 92.6937 264.499 91.8701ZM263.402 96.6436C263.112 97.3146 262.716 97.9094 262.213 98.4127C261.71 98.9159 261.115 99.3125 260.445 99.6022C259.774 99.892 259.043 100.029 258.296 100.029C257.549 100.029 256.817 99.892 256.147 99.6022C255.476 99.3125 254.882 98.9159 254.379 98.4127C253.876 97.9094 253.479 97.3299 253.19 96.6436C252.9 95.9726 252.763 95.2405 252.763 94.4932C252.763 93.746 252.9 93.0139 253.19 92.3429C253.479 91.6719 253.876 91.0771 254.379 90.5738C254.882 90.0705 255.476 89.674 256.147 89.3843C256.817 89.0945 257.549 88.9572 258.296 88.9572C259.043 88.9572 259.774 89.0945 260.445 89.3843C261.115 89.674 261.71 90.0705 262.213 90.5738C262.716 91.0771 263.112 91.6566 263.402 92.3429C263.691 93.0139 263.828 93.746 263.828 94.4932C263.828 95.2405 263.691 95.9726 263.402 96.6436ZM259.561 95.027C260.079 94.966 260.521 94.7678 260.872 94.4322C261.222 94.0967 261.39 93.5782 261.39 92.9072C261.39 92.1599 261.176 91.5804 260.734 91.1838C260.292 90.7873 259.607 90.5891 258.677 90.5891H255.705V98.2907H257.122V95.1338H258.159L260.079 98.2907H261.557L259.561 95.027ZM258.799 93.9137C258.585 93.929 258.372 93.9442 258.143 93.9442H257.107V91.7939H258.143C258.357 91.7939 258.585 91.7939 258.799 91.8091C259.012 91.8091 259.21 91.8701 259.393 91.9311C259.576 92.0074 259.713 92.1141 259.82 92.2514C259.927 92.4039 259.988 92.6022 259.988 92.8462C259.988 93.0902 259.927 93.3037 259.82 93.4409C259.713 93.5782 259.576 93.7002 259.393 93.7612C259.225 93.8375 259.027 93.8832 258.799 93.8985" fill="#00285A"/>
</g>
<defs>
<clipPath id="clip0_118_12">
<rect width="884" height="233" fill="white"/>
</clipPath>
</defs>
</svg>
