<svg width="193" height="76" viewBox="0 0 193 76" fill="none" xmlns="http://www.w3.org/2000/svg">
<path d="M0 1.04712H13.9224V15.0747H0V1.04712Z" fill="#2B66AE"/>
<path d="M13.5771 74.1227V23.561H0.350098V74.0767H13.5771V74.1262V74.1227ZM101.165 74.6216V62.2431C99.5735 62.2678 97.9825 62.1688 96.409 61.9423C95.0217 61.7441 93.9821 61.2451 93.2867 60.5445C92.5912 59.8438 92.1487 58.8459 91.8993 57.5011C91.6781 55.8804 91.5797 54.2455 91.6008 52.6106V34.9876H101.161V23.5575H91.6008V3.89263H78.3738V52.7592C78.3738 56.9031 78.718 60.3959 79.4134 63.1915C80.1053 65.9375 81.296 68.1846 82.9291 69.8797C84.5623 71.5783 86.7434 72.7744 89.3705 73.5246C92.0468 74.2748 95.415 74.6216 99.426 74.6216H101.161H101.165ZM176.863 74.1227V0H163.636V74.1227H176.863ZM65.6456 28.5506C61.9823 24.5589 56.8264 22.5595 50.2867 22.5595C47.2872 22.5171 44.3159 23.1823 41.6185 24.5058C39.0406 25.7692 36.7858 27.6164 35.0296 29.8954L34.3377 30.8437V23.5575H21.3074V74.0696H34.4361V48.1128C34.5836 43.3709 35.7251 39.8782 37.9026 37.6311C40.0732 35.3096 43.1077 34.0074 46.2757 34.0357C50.09 34.0357 53.0121 35.2353 54.9439 37.5284C56.8264 39.8251 57.8169 43.0701 57.8169 47.2105V74.066H71.1422V45.4128C71.1913 38.2256 69.3088 32.5353 65.6421 28.5436L65.6456 28.5506ZM156.801 48.7675C156.819 45.2677 156.18 41.7962 154.919 38.5334C153.669 35.4547 151.874 32.6273 149.619 30.1962C147.304 27.7863 144.523 25.8824 141.446 24.6049C138.278 23.2567 134.759 22.6091 130.945 22.6091C127.439 22.5914 123.969 23.2885 120.738 24.6545C117.654 25.978 114.848 27.8747 112.463 30.2457C110.096 32.6344 108.21 35.4654 106.914 38.583C105.534 41.8316 104.842 45.3314 104.884 48.8666C104.859 52.3877 105.516 55.8804 106.816 59.1502C108.059 62.2572 109.892 65.0882 112.214 67.4875C114.595 69.908 117.444 71.8119 120.584 73.0787C123.99 74.5013 127.647 75.2126 131.334 75.1737C142.531 75.1737 149.468 70.0319 153.626 65.2404L144.115 57.9541C142.134 60.3498 137.379 63.5949 131.433 63.5949C127.717 63.5949 124.647 62.7456 122.319 61.001C119.99 59.3024 118.406 56.9066 117.563 53.9624L117.416 53.513H156.801V48.7711V48.7675ZM117.514 44.1247C117.514 40.4302 121.725 33.9932 130.79 33.9437C139.855 33.9437 144.115 40.3842 144.115 44.0751L117.51 44.1247H117.514ZM191.924 67.7352C191.428 66.571 190.505 65.6403 189.349 65.1413C188.752 64.8865 188.113 64.7485 187.467 64.7414C186.817 64.7414 186.178 64.8794 185.584 65.1413C184.428 65.6403 183.505 66.571 183.01 67.7352C182.757 68.3368 182.62 68.9809 182.613 69.632C182.613 70.2867 182.75 70.9307 183.01 71.5288C183.505 72.693 184.428 73.6237 185.584 74.1227C186.181 74.3774 186.82 74.5155 187.467 74.5225C188.116 74.5225 188.755 74.3845 189.349 74.1227C190.505 73.6237 191.428 72.693 191.924 71.5288C192.454 70.322 192.454 68.9419 191.924 67.7352ZM191.13 71.228C190.747 72.2117 189.974 72.9903 188.998 73.376C188.496 73.5812 187.955 73.6839 187.414 73.6768C186.873 73.6768 186.336 73.5777 185.83 73.376C184.853 72.9903 184.081 72.2117 183.698 71.228C183.494 70.7219 183.392 70.177 183.399 69.632C183.399 69.087 183.498 68.5456 183.698 68.036C184.081 67.0522 184.853 66.2737 185.83 65.888C186.332 65.6827 186.873 65.5801 187.414 65.5872C187.955 65.5872 188.492 65.6863 188.998 65.888C189.974 66.2737 190.747 67.0522 191.13 68.036C191.527 69.0622 191.527 70.2017 191.13 71.228ZM188.355 70.0814C188.71 70.046 189.044 69.8868 189.296 69.632C189.574 69.3383 189.718 68.9384 189.693 68.535C189.728 68.0643 189.546 67.6007 189.198 67.2858C188.9 66.985 188.355 66.8364 187.712 66.8364H185.531V72.4771H186.571V70.1805H187.316L188.703 72.4771H189.792L188.355 70.0814ZM187.811 69.2321H186.571V67.6361H187.811C187.965 67.6467 188.113 67.6786 188.257 67.7352C188.383 67.7741 188.492 67.8661 188.555 67.9865C188.654 68.0856 188.654 68.2377 188.654 68.4359C188.654 68.5916 188.622 68.7438 188.555 68.8853C188.467 68.9844 188.369 69.0658 188.257 69.1366C188.113 69.1932 187.965 69.2286 187.811 69.2356V69.2321Z" fill="black"/>
</svg>
