<svg width="132" height="70" viewBox="0 0 132 70" fill="none" xmlns="http://www.w3.org/2000/svg">
<path d="M95.8452 22.2235H130.39C131.274 22.2235 132 21.5184 132 20.6305V1.57993C132 0.705093 131.287 0 130.39 0H85.206C84.5064 0 83.8332 0.28726 83.3448 0.783436L70.7256 13.8929L58.1064 0.783436C57.618 0.28726 56.958 0 56.2452 0H14.4672C13.7676 0 13.0944 0.287261 12.606 0.796494L0.6996 13.2009C0.2508 13.671 0 14.2977 0 14.9506V68.407C0 69.2819 0.7128 70 1.5972 70H20.856C21.7404 70 22.4664 69.2949 22.4664 68.407V25.1483C22.4664 23.6989 23.6544 22.5368 25.1064 22.5368H45.6324C47.0976 22.5368 48.2724 23.712 48.2724 25.1483V68.394C48.2724 69.2688 48.9852 69.9869 49.8828 69.9869H69.1416C70.026 69.9869 70.7388 69.2819 70.7388 68.394V56.1071L83.3448 69.1905C83.8332 69.6866 84.4932 69.9739 85.1928 69.9739H130.376C131.261 69.9739 131.987 69.2688 131.987 68.3809V49.3304C131.987 48.4555 131.274 47.7374 130.376 47.7374H95.832C94.3668 47.7374 93.192 46.5622 93.192 45.1259V24.848C93.192 23.3986 94.38 22.2365 95.832 22.2365" fill="#003569"/>
</svg>
