<svg width="607" height="105" viewBox="0 0 607 105" fill="none" xmlns="http://www.w3.org/2000/svg">
<g clip-path="url(#clip0_79_9)">
<path d="M38.2292 2.39862C30.246 9.60973 38.9113 31.1156 71.9835 67.7334C53.3635 47.127 29.8038 12.5781 39.646 3.97277C47.2618 -2.68364 71.5562 11.9859 94.1565 37.0149C116.757 62.0364 128.998 87.8225 121.494 94.5989C113.991 101.375 97.5147 87.7101 82.7852 73.8426C81.316 72.4108 79.0072 72.3134 77.5155 73.6627C75.9564 75.0644 75.8739 77.5156 77.3281 79.1272C77.4031 79.2172 77.4855 79.2921 77.568 79.3671L77.493 79.442C102.335 104.044 118.661 108.579 127.371 101.113C137.498 92.4325 123.541 64.4501 98.924 37.1948C74.3147 9.93205 46.7446 -5.29223 38.2292 2.39862Z" fill="#00AEEF" stroke="white" stroke-width="1.09"/>
<path d="M18.5223 73.6777L7.67569 58.5209V73.6777H0.412109V34.7288H12.623C17.1656 34.7288 20.6662 35.8831 23.1249 38.1919C25.5835 40.4632 26.8129 43.6415 26.8129 47.7342C26.8129 50.7251 25.8459 53.3412 23.9194 55.575C22.0604 57.7338 19.7592 59.0232 16.9932 59.4354L27.7274 73.6852H18.5298L18.5223 73.6777ZM17.5029 43.1092C16.1386 42.1647 13.9273 41.6925 10.8615 41.6925H7.68319V54.0758H9.49721C12.9828 54.0758 15.5165 53.5661 17.1056 52.5466C18.7322 51.5197 19.5493 49.8931 19.5493 47.6593C19.5493 45.5754 18.8672 44.0612 17.5029 43.1167V43.1092Z" fill="#2E3092" stroke="white" stroke-width="1.09"/>
<path d="M46.2727 45.8827L39.8262 63.026L35.6809 73.7002H27.8477L43.012 34.7512H49.7733L64.8777 73.7002H56.9245L52.8916 63.026L46.2802 45.8827H46.2727Z" fill="#2E3092" stroke="white" stroke-width="1.09"/>
<path d="M101.608 45.8827L95.1612 63.026L91.0159 73.7002H83.1826L98.3469 34.7512H105.108L120.213 73.7002H112.259L108.227 63.026L101.615 45.8827H101.608Z" fill="#2E3092" stroke="white" stroke-width="1.09"/>
<path d="M85.761 55.2227C83.3024 57.6514 79.8542 58.8582 75.4241 58.8582H72.0134V73.6777H64.8623V34.7288H76.556C80.4914 34.7288 83.6172 35.8232 85.9259 38.0195C88.1597 40.1408 89.2766 42.9743 89.2766 46.5349C89.2766 50.0955 88.0998 53.0264 85.761 55.2227ZM80.1391 42.8244C78.9997 42.0673 77.3955 41.685 75.3117 41.685H72.0134V52.1943H74.9669C77.2007 52.1943 78.9022 51.8195 80.0791 51.0549C81.4059 50.1854 82.0655 48.8212 82.0655 46.9697C82.0655 45.1182 81.4209 43.6939 80.1391 42.8244Z" fill="#2E3092" stroke="white" stroke-width="1.09"/>
<path d="M204.264 45.5004V38.949H194.092V78.9474H170.128V66.4291H159.956V76.6461C159.956 76.6461 159.506 84.9891 165.3 84.9891H204.264V52.5766H211.738V45.5079H204.264V45.5004Z" fill="#221E1F"/>
<path d="M189.153 40.3283H178.636V36.7078H168.291V40.3283H156.74V45.8453H160.323C158.667 47.7043 157.692 49.9456 157.692 52.3518C157.692 58.7833 164.581 63.993 173.081 63.993C181.582 63.993 188.471 58.7833 188.471 52.3518C188.471 49.9456 187.504 47.7043 185.84 45.8453H189.16V40.3283H189.153ZM173.074 58.3036C169.791 58.3036 167.122 55.6425 167.122 52.3518C167.122 49.0611 169.783 46.4 173.074 46.4C176.365 46.4 179.018 49.0611 179.018 52.3518C179.018 55.6425 176.357 58.3036 173.074 58.3036Z" fill="#221E1F"/>
<path d="M264.884 61.9241V56.2347H258.805C261.736 51.1749 261.736 42.2323 261.736 42.2323C261.736 39.2939 257.358 38.9565 257.358 38.9565H216.048V45.6804H251.047C251.047 45.6804 252.096 54.3607 250.14 56.2422H212.645V61.9316H233.071V66.6091H216.153V72.6434H250.462V84.9892H260.117V71.1966C260.117 71.1966 261.264 66.6691 257.358 66.6016H244.578V61.9241H264.877H264.884Z" fill="#221E1F"/>
<path d="M309.688 38.949V47.5693H300.7V53.776H309.688V78.9474H285.723V66.4291H275.551V76.6461C275.551 76.6461 275.101 84.9891 280.896 84.9891H319.86V38.9565H309.688V38.949Z" fill="#221E1F"/>
<path d="M305.355 63.6031V58.9481C305.355 58.9481 296.824 59.4653 292.169 49.6381V45.8451H303.983V40.3281H271.571V45.8451H282.087V47.3069C282.087 47.3069 281.57 55.0652 270.963 58.9481V63.6031C270.963 63.6031 279.756 63.8579 286.48 56.6168C286.48 56.6168 297.342 66.1892 305.355 63.6031Z" fill="#221E1F"/>
<path d="M427.607 38.949V78.9474H403.642V66.4291H393.47V76.6461C393.47 76.6461 393.02 84.9891 398.815 84.9891H437.771V38.9565H427.599L427.607 38.949Z" fill="#221E1F"/>
<path d="M422.757 63.6032V58.9482C422.757 58.9482 414.226 59.4654 409.571 49.6382V46.5349H420.433V40.5906H388.628V46.5349H399.489V47.307C399.489 47.307 398.972 55.0653 388.365 58.9482V63.6032C388.365 63.6032 397.158 63.858 403.882 56.6169C403.882 56.6169 414.744 66.1893 422.764 63.6032H422.757Z" fill="#221E1F"/>
<path d="M383.456 53.776H376.492V38.949H366.32V84.9891H376.492V59.9826H383.456V53.776Z" fill="#221E1F"/>
<path d="M358.104 68.0033V46.5349H362.504V40.5906H328.63V46.5349H333.03V75.7616H328.113V81.7059H363.021V75.7616H356.95C357.572 71.9162 358.104 68.0033 358.104 68.0033ZM343.112 68.0033V46.5349H348.022V68.0033C348.022 68.0033 348.329 72.5308 347.377 75.7616H343.285L343.105 68.0033H343.112Z" fill="#221E1F"/>
<path d="M496.719 61.0171H444.225V66.9689H496.719V61.0171Z" fill="#221E1F"/>
<path d="M471.023 68.2283C457.793 68.2283 447.066 72.7034 447.066 78.2204C447.066 83.7374 457.793 88.22 471.023 88.22C484.253 88.22 494.98 83.7449 494.98 78.2204C494.98 72.6959 484.253 68.2283 471.023 68.2283ZM471.12 83.5725C463.752 83.5725 457.77 81.1138 457.77 78.0855C457.77 75.0571 463.752 72.5984 471.12 72.5984C478.489 72.5984 484.471 75.0571 484.471 78.0855C484.471 81.1138 478.496 83.5725 471.12 83.5725Z" fill="#221E1F"/>
<path d="M448.685 50.9951C448.685 55.9649 458.34 59.9977 470.243 59.9977C482.147 59.9977 491.802 55.9649 491.802 50.9951C491.802 48.9262 490.108 47.0222 487.282 45.5005H493.608V39.5487H476.023V37.9971H465.161V39.5487H447.831V45.5005H453.198C450.379 47.0222 448.678 48.9262 448.678 50.9951H448.685ZM470.333 55.8225C463.7 55.8225 458.317 53.6036 458.317 50.8826C458.317 48.1616 463.7 45.9428 470.333 45.9428C476.967 45.9428 482.349 48.1541 482.349 50.8826C482.349 53.6111 476.967 55.8225 470.333 55.8225Z" fill="#221E1F"/>
<path d="M550.27 38.9491H540.098V48.9937H532.175C531.913 48.6189 531.635 48.2591 531.328 47.9217H534.649V42.4047H524.132V38.7842H513.788V42.4047H502.236V47.9217H505.819C504.155 49.7807 503.188 52.022 503.188 54.4282C503.188 60.8598 510.077 66.0695 518.578 66.0695C523.682 66.0695 528.195 64.1805 530.998 61.287H540.113V70.9868H517.423V76.0241H540.113V81.0239H516.149V66.954H505.977V78.7226C505.977 78.7226 505.527 87.0656 511.321 87.0656H550.263V84.9967H550.278V38.9641L550.27 38.9491ZM518.57 60.3725C515.287 60.3725 512.626 57.7115 512.626 54.4207C512.626 51.13 515.287 48.469 518.57 48.469C521.853 48.469 524.522 51.13 524.522 54.4207C524.522 57.7115 521.853 60.3725 518.57 60.3725ZM533.749 56.2348C533.877 55.6426 533.959 55.0429 533.959 54.4207C533.959 54.2933 533.944 54.1659 533.937 54.031H540.098V56.2273H533.749V56.2348Z" fill="#221E1F"/>
<path d="M596.82 41.0179V77.5682H580.329V69.4126C586.768 67.786 591.445 62.8686 591.445 57.0518C591.445 53.4837 589.684 50.2529 586.835 47.9142H591.88V42.3972H581.363V38.7766H571.019V42.3972H559.468V47.9142H564.513C561.664 50.2529 559.895 53.4837 559.895 57.0518C559.895 62.8161 564.497 67.6885 570.847 69.3601V77.5682H557.744V82.7404H596.813V87.9126H606.985V41.0179H596.813H596.82ZM570.389 54.9679C571.963 50.98 575.606 48.6863 578.53 49.8406C581.453 50.995 582.548 55.1628 580.974 59.1506C579.407 63.1385 575.756 65.4322 572.833 64.2779C569.91 63.1235 568.815 58.9632 570.389 54.9679Z" fill="#221E1F"/>
<path d="M142.018 30.0062C136.689 20.6663 113.826 24.5192 70.964 48.971C95.086 35.2084 133.878 19.5943 140.174 31.0557C145.047 39.9159 125.505 60.5073 96.2179 77.2158C66.9312 93.9242 39.1212 100.356 34.1064 91.5705C29.0916 82.7852 45.9725 69.6223 62.681 58.206C64.3976 57.0741 64.9897 54.8403 63.9928 53.0938C62.9508 51.2722 60.5821 50.6651 58.6931 51.7445C58.5957 51.8045 58.4982 51.8644 58.4083 51.9244L58.3483 51.8344C28.9942 70.8217 21.0634 85.8061 26.498 95.9107C32.8096 107.664 63.1307 100.026 95.0335 81.8258C126.936 63.6256 147.715 39.9608 142.026 29.9912L142.018 30.0062Z" fill="#00AEEF" stroke="white" stroke-width="1.09"/>
</g>
<defs>
<clipPath id="clip0_79_9">
<rect width="607" height="104.793" fill="white"/>
</clipPath>
</defs>
</svg>
