<svg width="1880" height="1056" viewBox="0 0 1880 1056" fill="none" xmlns="http://www.w3.org/2000/svg">
<path d="M1879.1 0H0V1055.84H1879.1V0Z" fill="#0068B6"/>
<path d="M0 0H1879.1V1055.84H0V0Z" fill="#101A2C"/>
<path d="M88.951 710.219H84.4302V664.126H88.951V710.219ZM103.431 710.219H99.104V675.649H103.301V681.087H103.646C104.542 679.22 105.837 677.774 107.531 676.76C109.246 675.724 111.361 675.196 113.864 675.196C116.216 675.196 118.266 675.681 120.003 676.663C121.762 677.623 123.122 679.048 124.082 680.957C125.053 682.867 125.549 685.176 125.549 687.895V710.208H121.223V688.154C121.223 686.309 120.877 684.701 120.176 683.353C119.496 681.993 118.514 680.957 117.22 680.234C115.947 679.49 114.425 679.123 112.667 679.123C110.908 679.123 109.289 679.511 107.887 680.299C106.484 681.065 105.394 682.177 104.607 683.644C103.819 685.09 103.431 686.795 103.431 688.769V710.219ZM148.758 679.339H131.98V675.649H148.758V679.339ZM141.507 667.373V701.015C141.507 702.396 141.734 703.486 142.176 704.295C142.64 705.104 143.244 705.687 143.989 706.043C144.755 706.378 145.618 706.55 146.6 706.55C147.582 706.55 148.488 706.518 149.47 706.453V710.499C148.596 710.65 147.506 710.726 146.19 710.726C144.636 710.726 143.179 710.391 141.798 709.711C140.417 709.032 139.295 708.039 138.421 706.723C137.569 705.407 137.148 703.842 137.148 702.04V667.373H141.507ZM170.272 710.92C167.089 710.92 164.295 710.175 161.899 708.687C159.504 707.198 157.659 705.115 156.364 702.418C155.07 699.72 154.422 696.635 154.422 693.16C154.422 689.686 155.07 686.6 156.364 683.871C157.659 681.13 159.461 679.004 161.781 677.472C164.09 675.94 166.733 675.185 169.711 675.185C172.344 675.185 174.771 675.811 177.005 677.062C179.238 678.292 181.018 680.191 182.356 682.759C183.716 685.327 184.396 688.478 184.396 692.211V694.25H157.4V690.495H180.037C180.037 688.327 179.605 686.384 178.731 684.669C177.857 682.932 176.638 681.562 175.073 680.558C173.498 679.566 171.718 679.058 169.722 679.058C167.596 679.058 165.708 679.619 164.057 680.741C162.406 681.842 161.112 683.353 160.173 685.262C159.256 687.151 158.803 689.201 158.803 691.402V693.689C158.803 696.386 159.267 698.739 160.205 700.756C161.155 702.774 162.493 704.317 164.219 705.406C165.956 706.485 167.985 707.025 170.294 707.025C171.804 707.025 173.142 706.798 174.307 706.356C175.494 705.892 176.487 705.32 177.264 704.64C178.073 703.961 178.688 703.205 179.109 702.385H183.759C183.23 703.993 182.346 705.45 181.116 706.744C179.886 708.018 178.343 709.032 176.498 709.798C174.653 710.542 172.581 710.909 170.294 710.909L170.272 710.92ZM196.318 710.219H191.991V664.126H196.318V710.219ZM215.48 672.973H223.529C224.403 672.973 225.223 673.189 226.011 673.61C226.799 674.009 227.435 674.602 227.921 675.39C228.428 676.178 228.687 677.116 228.687 678.228C228.687 679.339 228.428 680.267 227.921 681.098C227.414 681.928 226.745 682.576 225.914 683.04C225.083 683.482 224.231 683.709 223.335 683.709H217.228V681.357H222.515C223.022 681.357 223.497 681.227 223.95 680.979C224.393 680.72 224.749 680.364 224.997 679.9C225.256 679.414 225.374 678.864 225.374 678.249C225.374 677.257 225.094 676.534 224.544 676.08C224.015 675.617 223.368 675.379 222.602 675.379H218.491V689.61H215.47V672.995L215.48 672.973ZM229.356 689.589H225.979L221.965 681.853H225.245L229.356 689.589ZM221.62 699.526C218.394 699.526 215.405 698.717 212.643 697.109C209.881 695.48 207.69 693.279 206.05 690.517C204.421 687.755 203.601 684.755 203.601 681.508C203.601 678.26 204.421 675.228 206.05 672.466C207.68 669.704 209.881 667.524 212.643 665.906C215.405 664.298 218.394 663.489 221.62 663.489C224.846 663.489 227.899 664.298 230.661 665.906C233.423 667.513 235.603 669.704 237.221 672.466C238.829 675.228 239.638 678.238 239.638 681.508C239.638 684.777 238.829 687.755 237.221 690.517C235.614 693.279 233.423 695.469 230.661 697.109C227.899 698.717 224.889 699.526 221.62 699.526ZM221.62 695.987C224.274 695.987 226.702 695.34 228.913 694.045C231.147 692.75 232.906 690.992 234.2 688.758C235.495 686.525 236.142 684.108 236.142 681.497C236.142 678.886 235.495 676.415 234.2 674.203C232.906 671.97 231.147 670.222 228.913 668.949C226.702 667.654 224.274 667.006 221.62 667.006C218.965 667.006 216.592 667.654 214.358 668.949C212.125 670.222 210.355 671.97 209.039 674.203C207.744 676.415 207.097 678.843 207.097 681.497C207.097 684.151 207.744 686.525 209.039 688.758C210.355 690.992 212.125 692.75 214.358 694.045C216.592 695.34 219.009 695.987 221.62 695.987ZM259.308 710.219L276.053 664.126H280.952L297.729 710.219H292.95L278.653 669.984H278.308L264.012 710.219H259.297H259.308ZM290.026 692.491V696.505H267.011V692.491H290.026ZM308.897 710.219H304.376V664.126H308.897V710.219ZM349.293 679.339H332.008V675.649H349.293V679.339ZM337.327 670.686C337.327 668.862 337.683 667.298 338.406 666.003C339.151 664.708 340.197 663.726 341.557 663.047C342.938 662.345 344.545 662 346.39 662C346.941 662 347.534 662.032 348.171 662.097C348.829 662.14 349.433 662.216 349.983 662.324V666.24C349.066 666.089 348.16 666.014 347.243 666.014C345.376 666.014 343.984 666.467 343.078 667.384C342.161 668.301 341.708 669.682 341.708 671.549L341.675 710.219H337.316V670.686H337.327ZM368.229 710.92C365.261 710.92 362.596 710.165 360.244 708.665C357.914 707.154 356.101 705.061 354.806 702.364C353.512 699.645 352.864 696.548 352.864 693.074C352.864 689.6 353.512 686.471 354.806 683.784C356.101 681.065 357.914 678.961 360.244 677.451C362.596 675.94 365.261 675.196 368.229 675.196C371.196 675.196 373.839 675.951 376.159 677.451C378.489 678.961 380.302 681.065 381.575 683.784C382.87 686.482 383.517 689.578 383.517 693.074C383.517 696.57 382.87 699.656 381.575 702.364C380.302 705.061 378.5 707.154 376.159 708.665C373.85 710.175 371.206 710.92 368.229 710.92ZM368.229 707.036C370.516 707.036 372.49 706.41 374.152 705.158C375.803 703.907 377.054 702.224 377.907 700.098C378.759 697.973 379.18 695.631 379.18 693.063C379.18 690.495 378.759 688.154 377.907 686.028C377.054 683.903 375.803 682.22 374.152 680.968C372.501 679.695 370.527 679.058 368.229 679.058C365.93 679.058 363.967 679.695 362.305 680.968C360.654 682.22 359.392 683.903 358.518 686.028C357.644 688.154 357.212 690.495 357.212 693.063C357.212 695.631 357.633 697.973 358.486 700.098C359.359 702.224 360.622 703.907 362.273 705.158C363.945 706.41 365.93 707.036 368.229 707.036ZM391.113 675.649H395.31V681H395.634C396.335 679.199 397.533 677.764 399.227 676.706C400.921 675.649 402.831 675.109 404.956 675.109C405.787 675.109 406.542 675.142 407.211 675.206V679.565C407.017 679.522 406.672 679.468 406.165 679.404C405.658 679.339 405.15 679.307 404.633 679.307C402.917 679.307 401.352 679.684 399.95 680.45C398.547 681.195 397.447 682.23 396.637 683.568C395.828 684.885 395.429 686.374 395.429 688.024V710.208H391.102V675.638L391.113 675.649ZM429.47 664.126H456.401V668.172H433.991V685.133H454.265V689.147H433.991V710.219H429.47V664.126ZM484.605 675.649H488.867V710.219H484.605V704.457H484.26C483.386 706.302 482.069 707.802 480.311 708.945C478.552 710.089 476.437 710.661 473.977 710.661C471.754 710.661 469.78 710.175 468.054 709.194C466.36 708.201 465.022 706.755 464.04 704.867C463.08 702.957 462.605 700.659 462.605 697.962V675.649H466.932V697.703C466.932 699.418 467.288 700.95 467.978 702.288C468.701 703.605 469.694 704.63 470.945 705.374C472.218 706.097 473.653 706.453 475.24 706.453C476.826 706.453 478.336 706.086 479.76 705.342C481.185 704.576 482.339 703.464 483.224 701.997C484.141 700.53 484.594 698.803 484.594 696.807V675.638L484.605 675.649ZM512.129 679.339H495.351V675.649H512.129V679.339ZM504.878 667.373V701.015C504.878 702.396 505.105 703.486 505.547 704.295C506.011 705.104 506.616 705.687 507.36 706.043C508.126 706.378 508.989 706.55 509.971 706.55C510.953 706.55 511.859 706.518 512.841 706.453V710.499C511.967 710.65 510.878 710.726 509.561 710.726C508.018 710.726 506.551 710.391 505.17 709.711C503.789 709.032 502.667 708.039 501.793 706.723C500.94 705.407 500.52 703.842 500.52 702.04V667.373H504.878ZM541.962 675.649H546.224V710.219H541.962V704.457H541.606C540.732 706.302 539.427 707.802 537.657 708.945C535.899 710.089 533.784 710.661 531.324 710.661C529.09 710.661 527.127 710.175 525.4 709.194C523.706 708.201 522.368 706.755 521.387 704.867C520.426 702.957 519.952 700.659 519.952 697.962V675.649H524.278V697.703C524.278 699.418 524.623 700.95 525.325 702.288C526.048 703.605 527.029 704.63 528.281 705.374C529.554 706.097 530.989 706.453 532.575 706.453C534.161 706.453 535.672 706.086 537.096 705.342C538.52 704.576 539.675 703.464 540.57 701.997C541.488 700.53 541.941 698.803 541.941 696.807V675.638L541.962 675.649ZM555.611 675.649H559.808V681H560.132C560.833 679.199 562.031 677.764 563.725 676.706C565.419 675.649 567.329 675.109 569.454 675.109C570.285 675.109 571.04 675.142 571.72 675.206V679.565C571.526 679.522 571.18 679.468 570.663 679.404C570.155 679.339 569.648 679.307 569.141 679.307C567.415 679.307 565.861 679.684 564.459 680.45C563.056 681.195 561.955 682.23 561.146 683.568C560.337 684.885 559.938 686.374 559.938 688.024V710.208H555.611V675.638V675.649ZM590.31 710.92C587.128 710.92 584.333 710.175 581.938 708.687C579.542 707.198 577.697 705.115 576.403 702.418C575.108 699.72 574.461 696.635 574.461 693.16C574.461 689.686 575.108 686.6 576.403 683.871C577.697 681.13 579.499 679.004 581.808 677.472C584.117 675.94 586.761 675.185 589.739 675.185C592.371 675.185 594.799 675.811 597.022 677.062C599.255 678.292 601.035 680.191 602.373 682.759C603.733 685.327 604.412 688.478 604.412 692.211V694.25H577.417V690.495H600.043C600.043 688.327 599.611 686.384 598.737 684.669C597.863 682.932 596.644 681.562 595.079 680.558C593.504 679.566 591.724 679.058 589.728 679.058C587.602 679.058 585.714 679.619 584.063 680.741C582.412 681.842 581.118 683.353 580.179 685.262C579.262 687.151 578.809 689.201 578.809 691.402V693.689C578.809 696.386 579.283 698.739 580.211 700.756C581.172 702.774 582.499 704.317 584.225 705.406C585.962 706.485 587.991 707.025 590.3 707.025C591.81 707.025 593.137 706.798 594.313 706.356C595.5 705.892 596.493 705.32 597.27 704.64C598.079 703.961 598.694 703.205 599.115 702.385H603.765C603.236 703.993 602.352 705.45 601.122 706.744C599.892 708.018 598.349 709.032 596.504 709.798C594.659 710.542 592.587 710.909 590.3 710.909L590.31 710.92ZM624.179 664.126H628.764L639.079 703.281H639.425L649.707 664.126H654.897L665.244 703.281H665.568L675.883 664.126H680.468L667.834 710.219H663.021L652.523 671.667H652.167L641.636 710.219H636.803L624.2 664.126H624.179ZM696.469 710.92C693.502 710.92 690.837 710.165 688.485 708.665C686.154 707.154 684.331 705.061 683.047 702.364C681.752 699.645 681.105 696.548 681.105 693.074C681.105 689.6 681.752 686.471 683.047 683.784C684.342 681.065 686.154 678.961 688.485 677.451C690.837 675.94 693.502 675.196 696.469 675.196C699.436 675.196 702.08 675.951 704.399 677.451C706.73 678.961 708.532 681.065 709.805 683.784C711.1 686.482 711.747 689.578 711.747 693.074C711.747 696.57 711.1 699.656 709.805 702.364C708.532 705.061 706.73 707.154 704.399 708.665C702.09 710.175 699.447 710.92 696.469 710.92ZM696.469 707.036C698.756 707.036 700.731 706.41 702.393 705.158C704.043 703.907 705.295 702.224 706.147 700.098C707 697.973 707.421 695.631 707.421 693.063C707.421 690.495 707 688.154 706.147 686.028C705.295 683.903 704.043 682.22 702.393 680.968C700.742 679.695 698.756 679.058 696.469 679.058C694.182 679.058 692.207 679.695 690.546 680.968C688.895 682.22 687.632 683.903 686.758 686.028C685.884 688.154 685.453 690.495 685.453 693.063C685.453 695.631 685.874 697.973 686.726 700.098C687.6 702.224 688.862 703.907 690.513 705.158C692.186 706.41 694.171 707.036 696.469 707.036ZM719.354 675.649H723.551V681H723.864C724.565 679.199 725.763 677.764 727.468 676.706C729.162 675.649 731.071 675.109 733.197 675.109C734.028 675.109 734.783 675.142 735.452 675.206V679.565C735.258 679.522 734.912 679.468 734.405 679.404C733.898 679.339 733.38 679.307 732.873 679.307C731.158 679.307 729.593 679.684 728.19 680.45C726.788 681.195 725.687 682.23 724.878 683.568C724.069 684.885 723.67 686.374 723.67 688.024V710.208H719.343V675.638L719.354 675.649ZM745.033 691.693H745.961L761.875 675.649H767.313L751.302 691.758L750.892 691.822L745.098 697.293L745.033 691.693ZM741.127 664.126H745.454V710.219H741.127V664.126ZM748.885 692.61L751.906 689.621L768.231 710.219H762.717L748.874 692.621L748.885 692.61ZM788.04 679.339H770.755V675.649H788.04V679.339ZM776.075 670.686C776.075 668.862 776.441 667.298 777.154 666.003C777.898 664.708 778.945 663.726 780.304 663.047C781.685 662.345 783.293 662 785.138 662C785.688 662 786.282 662.032 786.918 662.097C787.576 662.14 788.18 662.216 788.731 662.324V666.24C787.814 666.089 786.907 666.014 785.99 666.014C784.124 666.014 782.732 666.467 781.825 667.384C780.908 668.301 780.455 669.682 780.455 671.549L780.423 710.219H776.064V670.686H776.075ZM806.976 710.92C804.009 710.92 801.344 710.165 798.992 708.665C796.661 707.154 794.838 705.061 793.554 702.364C792.259 699.645 791.612 696.548 791.612 693.074C791.612 689.6 792.259 686.471 793.554 683.784C794.848 681.065 796.661 678.961 798.992 677.451C801.344 675.94 804.009 675.196 806.976 675.196C809.943 675.196 812.587 675.951 814.906 677.451C817.237 678.961 819.049 681.065 820.312 683.784C821.607 686.482 822.254 689.578 822.254 693.074C822.254 696.57 821.607 699.656 820.312 702.364C819.039 705.061 817.237 707.154 814.906 708.665C812.597 710.175 809.954 710.92 806.976 710.92ZM806.976 707.036C809.263 707.036 811.238 706.41 812.899 705.158C814.55 703.907 815.802 702.224 816.654 700.098C817.507 697.973 817.927 695.631 817.927 693.063C817.927 690.495 817.507 688.154 816.654 686.028C815.802 683.903 814.55 682.22 812.899 680.968C811.249 679.695 809.263 679.058 806.976 679.058C804.689 679.058 802.714 679.695 801.052 680.968C799.402 682.22 798.139 683.903 797.265 686.028C796.391 688.154 795.96 690.495 795.96 693.063C795.96 695.631 796.391 697.973 797.233 700.098C798.107 702.224 799.369 703.907 801.02 705.158C802.703 706.41 804.678 707.036 806.976 707.036ZM829.871 675.649H834.069V681H834.392C835.094 679.199 836.291 677.764 837.985 676.706C839.679 675.649 841.589 675.109 843.714 675.109C844.545 675.109 845.301 675.142 845.969 675.206V679.565C845.775 679.522 845.43 679.468 844.923 679.404C844.416 679.339 843.909 679.307 843.391 679.307C841.675 679.307 840.111 679.684 838.708 680.45C837.305 681.195 836.205 682.23 835.396 683.568C834.586 684.885 834.187 686.374 834.187 688.024V710.208H829.861V675.638L829.871 675.649ZM864.15 710.92C861.075 710.92 858.367 710.154 856.036 708.633C853.706 707.079 851.904 704.964 850.631 702.267C849.357 699.548 848.721 696.484 848.721 693.063C848.721 689.643 849.368 686.546 850.663 683.827C851.958 681.108 853.76 678.994 856.069 677.461C858.378 675.929 861.043 675.174 864.053 675.174C866.383 675.174 868.509 675.617 870.419 676.512C872.35 677.408 873.915 678.681 875.134 680.331C876.342 681.961 877.108 683.849 877.421 685.996H873.03C872.771 684.701 872.242 683.536 871.444 682.489C870.634 681.432 869.609 680.59 868.358 679.975C867.128 679.36 865.725 679.048 864.15 679.048C861.981 679.048 860.061 679.63 858.388 680.795C856.737 681.961 855.432 683.601 854.472 685.694C853.533 687.776 853.069 690.182 853.069 692.923C853.069 695.664 853.522 698.102 854.439 700.249C855.367 702.375 856.673 704.025 858.324 705.212C860.007 706.399 861.938 706.993 864.15 706.993C865.639 706.993 867.009 706.712 868.261 706.162C869.512 705.612 870.548 704.802 871.379 703.745C872.231 702.688 872.792 701.458 873.062 700.055H877.421C877.13 702.159 876.385 704.025 875.188 705.655C874.022 707.284 872.48 708.568 870.57 709.507C868.66 710.445 866.524 710.909 864.139 710.909L864.15 710.92ZM898.806 710.92C895.623 710.92 892.839 710.175 890.433 708.687C888.038 707.198 886.193 705.115 884.898 702.418C883.604 699.72 882.956 696.635 882.956 693.16C882.956 689.686 883.604 686.6 884.898 683.871C886.193 681.13 887.995 679.004 890.304 677.472C892.613 675.94 895.256 675.185 898.223 675.185C900.856 675.185 903.284 675.811 905.517 677.062C907.74 678.292 909.531 680.191 910.858 682.759C912.217 685.327 912.897 688.478 912.897 692.211V694.25H885.902V690.495H908.527C908.527 688.327 908.096 686.384 907.222 684.669C906.348 682.932 905.129 681.562 903.564 680.558C901.989 679.566 900.209 679.058 898.213 679.058C896.087 679.058 894.199 679.619 892.548 680.741C890.897 681.842 889.603 683.353 888.664 685.262C887.747 687.151 887.294 689.201 887.294 691.402V693.689C887.294 696.386 887.758 698.739 888.696 700.756C889.646 702.774 890.984 704.317 892.71 705.406C894.447 706.485 896.475 707.025 898.784 707.025C900.295 707.025 901.633 706.798 902.798 706.356C903.985 705.892 904.967 705.32 905.755 704.64C906.564 703.961 907.179 703.205 907.6 702.385H912.25C911.721 703.993 910.836 705.45 909.606 706.744C908.376 708.018 906.833 709.032 904.988 709.798C903.143 710.542 901.072 710.909 898.784 710.909L898.806 710.92ZM937.098 664.126H952.15C955.376 664.126 958.116 664.751 960.361 666.003C962.637 667.233 964.331 668.916 965.453 671.063C966.597 673.21 967.18 675.67 967.18 678.443C967.18 681.216 966.608 683.633 965.453 685.791C964.331 687.96 962.648 689.665 960.393 690.916C958.149 692.168 955.419 692.794 952.214 692.794H940.562V688.715H952.02C954.372 688.715 956.347 688.283 957.944 687.41C959.562 686.514 960.738 685.295 961.504 683.752C962.292 682.177 962.68 680.407 962.68 678.433C962.68 676.458 962.281 674.613 961.504 673.081C960.738 671.527 959.541 670.319 957.911 669.456C956.293 668.582 954.308 668.15 951.956 668.15H941.608V710.197H937.087V664.104L937.098 664.126ZM975.013 675.649H979.21V681H979.534C980.235 679.199 981.433 677.764 983.127 676.706C984.821 675.649 986.73 675.109 988.856 675.109C989.687 675.109 990.442 675.142 991.122 675.206V679.565C990.927 679.522 990.582 679.468 990.064 679.404C989.557 679.339 989.05 679.307 988.532 679.307C986.817 679.307 985.252 679.684 983.86 680.45C982.458 681.195 981.357 682.23 980.548 683.568C979.739 684.885 979.339 686.374 979.339 688.024V710.208H975.013V675.638V675.649ZM1009.23 710.92C1006.26 710.92 1003.59 710.165 1001.24 708.665C998.912 707.154 997.088 705.061 995.804 702.364C994.51 699.645 993.862 696.548 993.862 693.074C993.862 689.6 994.51 686.471 995.804 683.784C997.099 681.065 998.912 678.961 1001.24 677.451C1003.59 675.94 1006.26 675.196 1009.23 675.196C1012.19 675.196 1014.84 675.951 1017.16 677.451C1019.49 678.961 1021.29 681.065 1022.56 683.784C1023.86 686.482 1024.5 689.578 1024.5 693.074C1024.5 696.57 1023.86 699.656 1022.56 702.364C1021.29 705.061 1019.49 707.154 1017.16 708.665C1014.85 710.175 1012.2 710.92 1009.23 710.92ZM1009.23 707.036C1011.51 707.036 1013.49 706.41 1015.15 705.158C1016.8 703.907 1018.05 702.224 1018.9 700.098C1019.76 697.973 1020.18 695.631 1020.18 693.063C1020.18 690.495 1019.75 688.154 1018.9 686.028C1018.05 683.903 1016.8 682.22 1015.15 680.968C1013.5 679.695 1011.51 679.058 1009.23 679.058C1006.94 679.058 1004.96 679.695 1003.3 680.968C1001.65 682.22 1000.39 683.903 999.516 686.028C998.642 688.154 998.21 690.495 998.21 693.063C998.21 695.631 998.631 697.973 999.484 700.098C1000.36 702.224 1001.62 703.907 1003.27 705.158C1004.94 706.41 1006.93 707.036 1009.23 707.036ZM1045.48 723.9C1042.93 723.9 1040.65 723.544 1038.61 722.821C1036.59 722.098 1034.96 721.041 1033.71 719.638C1032.48 718.257 1031.72 716.574 1031.45 714.578H1036.01C1036.43 716.379 1037.48 717.739 1039.16 718.656C1040.83 719.595 1042.94 720.059 1045.49 720.059C1048.72 720.059 1051.2 719.293 1052.94 717.771C1054.67 716.261 1055.55 713.973 1055.55 710.898V703.227H1055.2C1054.61 704.479 1053.9 705.568 1053.06 706.507C1052.24 707.446 1051.11 708.233 1049.69 708.891C1048.28 709.55 1046.61 709.873 1044.66 709.873C1041.9 709.873 1039.44 709.172 1037.28 707.769C1035.11 706.367 1033.42 704.36 1032.19 701.749C1030.96 699.138 1030.34 696.095 1030.34 692.61C1030.34 689.125 1030.95 686.104 1032.15 683.471C1033.36 680.817 1035.06 678.767 1037.21 677.332C1039.37 675.897 1041.89 675.163 1044.72 675.163C1046.7 675.163 1048.37 675.498 1049.75 676.178C1051.15 676.857 1052.22 677.645 1052.97 678.53C1053.73 679.425 1054.51 680.591 1055.29 682.036H1055.63V675.638H1059.89V711.093C1059.89 713.919 1059.28 716.282 1058.05 718.192C1056.84 720.123 1055.15 721.559 1052.99 722.486C1050.82 723.425 1048.32 723.889 1045.48 723.889V723.9ZM1045.2 705.924C1047.37 705.924 1049.23 705.396 1050.8 704.338C1052.37 703.281 1053.57 701.77 1054.4 699.818C1055.22 697.843 1055.64 695.491 1055.64 692.75C1055.64 690.01 1055.23 687.712 1054.4 685.651C1053.59 683.59 1052.41 681.993 1050.84 680.849C1049.3 679.684 1047.41 679.101 1045.21 679.101C1043.01 679.101 1041.15 679.706 1039.58 680.914C1038 682.101 1036.8 683.73 1035.97 685.78C1035.14 687.83 1034.73 690.161 1034.73 692.75C1034.73 695.34 1035.14 697.66 1035.97 699.656C1036.8 701.63 1038 703.173 1039.58 704.274C1041.15 705.374 1043.03 705.924 1045.21 705.924H1045.2ZM1069.23 675.649H1073.42V681H1073.75C1074.45 679.199 1075.65 677.764 1077.35 676.706C1079.05 675.649 1080.96 675.109 1083.08 675.109C1083.91 675.109 1084.67 675.142 1085.35 675.206V679.565C1085.15 679.522 1084.81 679.468 1084.3 679.404C1083.79 679.339 1083.28 679.307 1082.77 679.307C1081.05 679.307 1079.49 679.684 1078.09 680.45C1076.68 681.195 1075.58 682.23 1074.77 683.568C1073.96 684.885 1073.56 686.374 1073.56 688.024V710.208H1069.24V675.638L1069.23 675.649ZM1112.01 693.279C1111.7 693.301 1109.76 693.452 1106.21 693.721L1102.59 693.98C1099.58 694.196 1097.31 694.876 1095.81 696.02C1094.3 697.142 1093.55 698.717 1093.55 700.735C1093.55 702.051 1093.88 703.184 1094.54 704.144C1095.22 705.094 1096.16 705.827 1097.33 706.345C1098.52 706.852 1099.86 707.111 1101.35 707.111C1103.39 707.111 1105.17 706.669 1106.69 705.773C1108.24 704.856 1109.44 703.637 1110.28 702.116C1111.13 700.584 1111.55 698.9 1111.55 697.055V686.492C1111.55 684.939 1111.23 683.612 1110.59 682.479C1109.96 681.356 1109 680.504 1107.72 679.932C1106.47 679.339 1104.94 679.037 1103.14 679.037C1100.93 679.037 1099.07 679.501 1097.57 680.439C1096.08 681.356 1095.13 682.608 1094.7 684.194H1090.18C1090.44 682.392 1091.14 680.806 1092.32 679.447C1093.5 678.087 1095.05 677.041 1096.94 676.296C1098.84 675.552 1100.98 675.185 1103.33 675.185C1105.42 675.185 1107.38 675.519 1109.22 676.199C1111.07 676.879 1112.63 678.087 1113.9 679.824C1115.19 681.562 1115.84 683.914 1115.84 686.859V710.219H1111.54V704.867H1111.29C1110.78 705.924 1110.04 706.928 1109.08 707.856C1108.15 708.773 1106.96 709.517 1105.52 710.111C1104.08 710.704 1102.45 711.006 1100.63 711.006C1098.5 711.006 1096.57 710.596 1094.83 709.765C1093.12 708.935 1091.75 707.726 1090.72 706.14C1089.7 704.543 1089.19 702.677 1089.19 700.54C1089.19 697.163 1090.32 694.692 1092.6 693.128C1094.89 691.531 1098 690.603 1101.92 690.323C1102.88 690.236 1104.98 690.085 1108.25 689.88L1111.94 689.719L1111.98 693.279H1112.01ZM1125.26 675.649H1129.45V681H1129.8C1130.54 679.155 1131.71 677.731 1133.31 676.739C1134.91 675.724 1136.85 675.206 1139.1 675.206C1140.64 675.206 1142.02 675.455 1143.23 675.94C1144.44 676.404 1145.49 677.105 1146.35 678.044C1147.23 678.961 1147.92 680.083 1148.42 681.421H1148.71C1149.26 680.126 1150.02 679.026 1150.97 678.109C1151.95 677.17 1153.12 676.469 1154.48 675.973C1155.86 675.465 1157.36 675.206 1159 675.206C1161.17 675.206 1163.02 675.66 1164.56 676.577C1166.14 677.472 1167.35 678.799 1168.2 680.558C1169.05 682.317 1169.47 684.496 1169.47 687.086V710.23H1165.15V687.118C1165.15 684.486 1164.47 682.5 1163.11 681.162C1161.75 679.803 1159.92 679.123 1157.64 679.123C1155.94 679.123 1154.49 679.479 1153.28 680.202C1152.07 680.925 1151.14 681.918 1150.51 683.191C1149.87 684.442 1149.55 685.888 1149.55 687.517V710.208H1145.15V686.687C1145.15 685.176 1144.86 683.849 1144.27 682.705C1143.7 681.54 1142.86 680.644 1141.75 680.029C1140.65 679.414 1139.35 679.101 1137.84 679.101C1136.33 679.101 1134.93 679.479 1133.67 680.245C1132.42 681.011 1131.43 682.079 1130.68 683.46C1129.96 684.82 1129.61 686.374 1129.61 688.143V710.197H1125.28V675.627L1125.26 675.649Z" fill="#00CAFF"/>
<path d="M106.387 799.848C110.584 799.848 114.371 800.732 117.759 802.513C121.137 804.293 123.823 806.753 125.808 809.903C127.794 813.054 128.786 816.669 128.786 820.747C128.786 824.825 127.794 828.267 125.808 831.418C123.823 834.568 121.147 837.039 117.759 838.852C114.382 840.665 110.584 841.56 106.387 841.56C102.19 841.56 98.4029 840.654 95.015 838.852C91.6379 837.05 88.9513 834.568 86.966 831.418C84.9807 828.267 83.988 824.718 83.988 820.747C83.988 816.776 84.9807 813.054 86.966 809.903C88.9513 806.753 91.6271 804.293 95.015 802.513C98.3921 800.732 102.19 799.848 106.387 799.848ZM96.1479 847.322H108.998V869.095H96.1479V847.322ZM96.1479 864.812H152.89V875.04H96.1479V864.812ZM106.387 810.95C104.521 810.95 102.848 811.328 101.359 812.083C99.8703 812.838 98.705 813.939 97.8634 815.363C97.0219 816.787 96.5903 818.589 96.5903 820.736C96.5903 822.883 97.0111 824.599 97.8634 826.023C98.705 827.447 99.8703 828.526 101.359 829.26C102.848 829.994 104.521 830.35 106.387 830.35C108.254 830.35 109.926 829.983 111.415 829.26C112.904 828.537 114.069 827.458 114.911 826.023C115.753 824.599 116.173 822.829 116.173 820.736C116.173 818.643 115.753 816.787 114.911 815.363C114.069 813.939 112.904 812.838 111.415 812.083C109.926 811.328 108.254 810.95 106.387 810.95ZM138.033 794.863H150.97V853.181H138.033V794.863Z" fill="#00CAFF"/>
<path d="M166.367 799.146H197.052V809.03H178.602V833.684H166.356V799.146H166.367ZM166.367 826.778H172.053C175.84 826.778 179.239 826.746 182.238 826.692C185.238 826.638 188.14 826.476 190.934 826.207C193.729 825.937 196.642 825.613 199.674 825.203L200.807 835C197.721 835.464 194.7 835.842 191.754 836.133C188.809 836.424 185.755 836.597 182.573 836.662C179.39 836.716 175.883 836.748 172.031 836.748H166.345V826.778H166.367ZM175.106 813.043H194.171V822.398H175.106V813.043ZM177.21 840.503H233.079V862.535H190.06V872.332H177.296V853.537H220.401V850.213H177.21V840.503ZM177.296 866.214H235.528V875.925H177.296V866.214ZM197.667 811.738H209.644V821.794H197.667V811.738ZM204.842 796.082H216.819V837.266H204.842V796.082ZM220.843 794.863H233.089V837.795H220.843V794.863Z" fill="#00CAFF"/>
<path d="M287.21 800.981C291.234 800.981 294.849 801.822 298.053 803.516C301.258 805.21 303.793 807.551 305.66 810.551C307.527 813.55 308.454 817.003 308.454 820.909C308.454 824.815 307.527 828.192 305.66 831.224C303.793 834.255 301.258 836.618 298.053 838.302C294.849 839.996 291.234 840.837 287.21 840.837C283.185 840.837 279.571 839.996 276.366 838.302C273.162 836.608 270.626 834.255 268.76 831.224C266.893 828.192 265.965 824.75 265.965 820.909C265.965 817.068 266.893 813.55 268.76 810.551C270.626 807.551 273.162 805.199 276.366 803.516C279.571 801.822 283.185 800.981 287.21 800.981ZM287.21 808.943C284.879 808.943 282.775 809.44 280.919 810.432C279.053 811.425 277.596 812.806 276.55 814.586C275.503 816.366 274.974 818.481 274.974 820.93C274.974 823.38 275.503 825.494 276.55 827.275C277.596 829.055 279.053 830.436 280.919 831.429C282.786 832.421 284.879 832.918 287.21 832.918C289.54 832.918 291.633 832.421 293.5 831.429C295.367 830.436 296.834 829.055 297.913 827.275C298.992 825.494 299.531 823.38 299.531 820.93C299.531 818.481 298.992 816.366 297.913 814.586C296.834 812.806 295.367 811.425 293.5 810.432C291.633 809.44 289.54 808.943 287.21 808.943ZM278.2 847.764H287.296V869.365H278.2V847.764ZM278.2 866.473H332.591V873.907H278.2V866.473ZM321.132 795.65H330.314V853.623H321.132V795.65Z" fill="white"/>
<path d="M344.999 832.109H417.051V839.456H344.999V832.109ZM380.68 845.747C386.387 845.747 391.351 846.34 395.548 847.538C399.745 848.735 402.993 850.44 405.301 852.652C407.6 854.864 408.754 857.518 408.754 860.604C408.754 863.69 407.6 866.344 405.301 868.567C402.993 870.778 399.745 872.472 395.548 873.638C391.351 874.803 386.398 875.386 380.68 875.386C374.961 875.386 370.009 874.803 365.812 873.638C361.614 872.472 358.367 870.778 356.058 868.567C353.749 866.355 352.605 863.7 352.605 860.604C352.605 857.507 353.76 854.864 356.058 852.652C358.356 850.44 361.614 848.735 365.812 847.538C370.009 846.34 374.961 845.747 380.68 845.747ZM353.306 799.405H404.374V806.753H353.306V799.405ZM380.68 852.749C376.774 852.749 373.407 853.04 370.581 853.623C367.754 854.206 365.585 855.09 364.064 856.288C362.542 857.486 361.787 858.921 361.787 860.615C361.787 862.309 362.542 863.646 364.064 864.812C365.574 865.977 367.754 866.883 370.581 867.52C373.407 868.167 376.774 868.48 380.68 868.48C384.585 868.48 388.027 868.156 390.822 867.52C393.616 866.883 395.785 865.977 397.339 864.812C398.882 863.646 399.659 862.244 399.659 860.615C399.659 858.985 398.882 857.486 397.339 856.288C395.796 855.09 393.627 854.206 390.822 853.623C388.017 853.04 384.639 852.749 380.68 852.749ZM373.332 817.424H382.428V834.126H373.332V817.424ZM399.044 799.405H408.139V806.138C408.139 809.342 408.053 812.655 407.88 816.064C407.708 819.474 407.06 823.25 405.96 827.383L396.95 826.422C397.997 822.29 398.612 818.643 398.785 815.493C398.957 812.342 399.044 809.224 399.044 806.138V799.405Z" fill="white"/>
<path d="M445.644 807.541H452.992V818.729C452.992 823.164 452.463 827.49 451.417 831.709C450.37 835.939 448.838 839.909 446.831 843.642C444.824 847.376 442.418 850.666 439.613 853.526C436.818 856.385 433.722 858.651 430.344 860.345L425.014 853.083C428.1 851.627 430.916 849.674 433.452 847.225C435.987 844.775 438.156 841.992 439.969 838.874C441.771 835.755 443.173 832.475 444.166 829.033C445.159 825.592 445.655 822.16 445.655 818.719V807.53L445.644 807.541ZM427.895 803.516H472.661V811.123H427.895V803.516ZM447.565 807.541H454.912V818.729C454.912 822.053 455.409 825.343 456.401 828.613C457.394 831.882 458.786 834.968 460.598 837.881C462.4 840.794 464.558 843.394 467.072 845.66C469.575 847.937 472.402 849.739 475.553 851.076L470.482 858.338C466.986 856.763 463.835 854.637 461.041 851.95C458.246 849.275 455.84 846.167 453.823 842.639C451.816 839.111 450.262 835.324 449.183 831.267C448.104 827.221 447.565 823.034 447.565 818.719V807.53V807.541ZM481.929 795.65H491.111V875.569H481.929V795.65Z" fill="white"/>
<path d="M505.893 832.281H578.119V839.715H505.893V832.281ZM541.736 845.93C550.368 845.93 557.111 847.214 561.977 849.782C566.843 852.35 569.282 855.964 569.282 860.625C569.282 865.286 566.843 868.901 561.977 871.469C557.111 874.037 550.357 875.321 541.736 875.321C533.115 875.321 526.523 874.037 521.624 871.469C516.726 868.901 514.277 865.286 514.277 860.625C514.277 855.964 516.726 852.35 521.624 849.782C526.523 847.214 533.223 845.93 541.736 845.93ZM515.334 797.042H524.43V820.035H515.334V797.042ZM515.334 816.809H569.897V824.157H515.334V816.809ZM541.822 853.008C537.917 853.008 534.593 853.299 531.853 853.882C529.112 854.465 527.03 855.306 525.606 856.418C524.181 857.529 523.459 858.921 523.459 860.615C523.459 862.309 524.171 863.614 525.606 864.725C527.03 865.837 529.112 866.678 531.853 867.261C534.593 867.844 537.917 868.135 541.822 868.135C545.728 868.135 549.041 867.844 551.749 867.261C554.457 866.678 556.518 865.837 557.91 864.725C559.312 863.614 560.014 862.244 560.014 860.615C560.014 858.985 559.312 857.529 557.91 856.418C556.507 855.306 554.457 854.465 551.749 853.882C549.041 853.299 545.728 853.008 541.822 853.008Z" fill="white"/>
<path d="M610.724 833.77H682.95V841.032H610.724V833.77ZM646.837 797.485C652.609 797.485 657.616 798.111 661.878 799.362C666.129 800.614 669.43 802.372 671.761 804.649C674.092 806.926 675.257 809.666 675.257 812.871C675.257 816.075 674.092 818.827 671.761 821.136C669.43 823.434 666.14 825.214 661.878 826.466C657.627 827.717 652.609 828.343 646.837 828.343C641.065 828.343 636.037 827.717 631.753 826.466C627.47 825.214 624.157 823.434 621.827 821.136C619.496 818.837 618.331 816.075 618.331 812.871C618.331 809.666 619.496 806.926 621.827 804.649C624.157 802.372 627.47 800.614 631.753 799.362C636.037 798.111 641.065 797.485 646.837 797.485ZM646.664 846.707C655.296 846.707 662.04 847.948 666.906 850.418C671.772 852.9 674.21 856.471 674.21 861.133C674.21 865.794 671.772 869.29 666.906 871.803C662.04 874.307 655.285 875.569 646.664 875.569C638.044 875.569 631.376 874.317 626.51 871.803C621.643 869.3 619.205 865.74 619.205 861.133C619.205 856.525 621.633 852.9 626.51 850.418C631.376 847.937 638.098 846.707 646.664 846.707ZM646.837 804.563C642.877 804.563 639.468 804.886 636.609 805.523C633.749 806.16 631.57 807.098 630.048 808.318C628.527 809.537 627.772 811.058 627.772 812.86C627.772 814.662 628.527 816.183 630.048 817.402C631.559 818.622 633.749 819.56 636.609 820.197C639.468 820.844 642.877 821.157 646.837 821.157C650.797 821.157 654.196 820.833 657.022 820.197C659.849 819.56 662.018 818.622 663.539 817.402C665.05 816.183 665.816 814.662 665.816 812.86C665.816 811.058 665.061 809.537 663.539 808.318C662.018 807.098 659.849 806.16 657.022 805.523C654.196 804.886 650.797 804.563 646.837 804.563ZM646.664 853.709C642.813 853.709 639.522 853.99 636.781 854.54C634.041 855.09 631.958 855.921 630.534 857.032C629.11 858.144 628.387 859.514 628.387 861.143C628.387 862.773 629.099 864.057 630.534 865.168C631.958 866.279 634.041 867.11 636.781 867.66C639.522 868.21 642.813 868.491 646.664 868.491C650.516 868.491 653.969 868.21 656.677 867.66C659.385 867.11 661.446 866.279 662.838 865.168C664.241 864.057 664.942 862.719 664.942 861.143C664.942 859.568 664.241 858.144 662.838 857.032C661.435 855.921 659.385 855.09 656.677 854.54C653.969 853.99 650.624 853.709 646.664 853.709Z" fill="white"/>
<path d="M691.172 834.385H763.397V841.647H691.172V834.385ZM727.284 796.956C733.111 796.956 738.16 797.55 742.411 798.747C746.662 799.945 749.942 801.66 752.251 803.905C754.55 806.149 755.704 808.846 755.704 811.997C755.704 815.147 754.55 817.845 752.251 820.089C749.953 822.333 746.673 824.049 742.411 825.246C738.16 826.444 733.111 827.037 727.284 827.037C721.458 827.037 716.398 826.444 712.114 825.246C707.831 824.049 704.54 822.333 702.231 820.089C699.922 817.845 698.778 815.147 698.778 811.997C698.778 808.846 699.933 806.149 702.231 803.905C704.529 801.66 707.831 799.945 712.114 798.747C716.398 797.55 721.458 796.956 727.284 796.956ZM727.112 846.89C735.743 846.89 742.487 848.11 747.353 850.559C752.219 853.008 754.657 856.536 754.657 861.143C754.657 865.751 752.219 869.214 747.353 871.728C742.487 874.231 735.733 875.493 727.112 875.493C718.491 875.493 711.823 874.242 706.957 871.728C702.091 869.225 699.652 865.697 699.652 861.143C699.652 856.59 702.08 853.008 706.957 850.559C711.823 848.11 718.545 846.89 727.112 846.89ZM727.284 803.959C723.325 803.959 719.915 804.282 717.056 804.919C714.197 805.555 712.017 806.462 710.496 807.627C708.974 808.792 708.219 810.249 708.219 811.997C708.219 813.745 708.974 815.126 710.496 816.323C712.006 817.521 714.197 818.438 717.056 819.075C719.915 819.711 723.325 820.035 727.284 820.035C731.244 820.035 734.643 819.711 737.47 819.075C740.297 818.438 742.465 817.51 743.987 816.323C745.497 815.126 746.263 813.691 746.263 811.997C746.263 810.303 745.508 808.792 743.987 807.627C742.465 806.462 740.297 805.555 737.47 804.919C734.643 804.282 731.244 803.959 727.284 803.959ZM708.305 822.495H717.401V837.449H708.305V822.495ZM727.112 853.796C723.26 853.796 719.969 854.076 717.228 854.626C714.488 855.177 712.406 855.997 710.981 857.076C709.557 858.155 708.834 859.514 708.834 861.143C708.834 862.773 709.546 864.132 710.981 865.211C712.406 866.29 714.488 867.11 717.228 867.66C719.969 868.21 723.26 868.491 727.112 868.491C730.964 868.491 734.416 868.21 737.124 867.66C739.833 867.11 741.893 866.29 743.285 865.211C744.688 864.132 745.389 862.783 745.389 861.143C745.389 859.503 744.688 858.155 743.285 857.076C741.883 855.997 739.833 855.187 737.124 854.626C734.416 854.076 731.071 853.796 727.112 853.796ZM737.081 822.495H746.177V837.449H737.081V822.495Z" fill="white"/>
<path d="M790.328 799.934C793.878 799.934 797.028 800.722 799.769 802.297C802.509 803.872 804.667 806.03 806.243 808.771C807.818 811.511 808.605 814.662 808.605 818.211C808.605 821.761 807.818 825.02 806.243 827.782C804.667 830.555 802.509 832.713 799.769 834.256C797.028 835.798 793.878 836.575 790.328 836.575C786.778 836.575 783.692 835.798 780.93 834.256C778.157 832.713 775.999 830.555 774.457 827.782C772.914 825.009 772.137 821.826 772.137 818.211C772.137 814.597 772.914 811.436 774.457 808.727C775.999 806.019 778.157 803.872 780.93 802.297C783.703 800.722 786.832 799.934 790.328 799.934ZM790.328 807.368C788.407 807.368 786.703 807.821 785.214 808.727C783.725 809.634 782.559 810.896 781.718 812.536C780.876 814.165 780.456 816.097 780.456 818.309C780.456 820.52 780.876 822.344 781.718 823.951C782.559 825.559 783.725 826.811 785.214 827.717C786.703 828.623 788.407 829.076 790.328 829.076C792.248 829.076 793.953 828.623 795.442 827.717C796.931 826.811 798.107 825.559 798.981 823.951C799.855 822.344 800.298 820.466 800.298 818.309C800.298 816.151 799.855 814.165 798.981 812.536C798.107 810.907 796.931 809.634 795.442 808.727C793.953 807.821 792.248 807.368 790.328 807.368ZM786.045 842.607H795.14V851.087H830.293V842.607H839.302V874.522H786.055V842.607H786.045ZM795.14 858.252V867.175H830.293V858.252H795.14ZM813.493 797.129H822.146V838.571H813.493V797.129ZM819.438 813.227H833.432V820.661H819.438V813.227ZM830.552 795.65H839.291V839.111H830.552V795.65Z" fill="white"/>
<path d="M876.537 857.637H948.762V865.157H876.537V857.637ZM933.635 825.203V832.022L883.971 834.644L882.751 827.124L933.646 825.203H933.635ZM884.931 803.257H935.469V810.691H884.931V803.257ZM931.628 803.257H940.637V812.784C940.637 816.69 940.584 820.596 940.465 824.502C940.346 828.408 940.055 832.605 939.591 837.093C939.127 841.582 938.275 846.621 937.055 852.22L927.96 851.433C929.179 846.189 930.042 841.366 930.538 836.964C931.035 832.562 931.337 828.375 931.456 824.416C931.574 820.456 931.628 816.572 931.628 812.784V803.257Z" fill="white"/>
<path d="M961.267 802.728H998.599V832.281H970.708V851.95H961.44V825.019H989.245V810.151H961.267V802.717V802.728ZM961.44 849.069H968.259C972.866 849.069 977.279 848.994 981.509 848.854C985.738 848.713 989.946 848.433 994.143 848.023C998.34 847.613 1002.68 847.063 1007.17 846.361L1008.04 853.795C1001.16 854.961 994.575 855.737 988.284 856.115C981.994 856.493 975.315 856.687 968.259 856.687H961.44V849.08V849.069ZM1013.73 795.564H1022.91V875.655H1013.73V795.564Z" fill="white"/>
<path d="M1055.35 801.768C1058.85 801.768 1061.89 802.922 1064.49 805.221C1067.08 807.53 1069.08 810.788 1070.48 815.018C1071.88 819.247 1072.57 824.297 1072.57 830.188C1072.57 836.079 1071.87 841.064 1070.48 845.315C1069.08 849.566 1067.08 852.835 1064.49 855.112C1061.9 857.388 1058.85 858.521 1055.35 858.521C1051.86 858.521 1048.91 857.388 1046.34 855.112C1043.78 852.835 1041.8 849.577 1040.4 845.315C1039 841.064 1038.29 836.014 1038.29 830.188C1038.29 824.361 1039 819.247 1040.4 815.018C1041.8 810.788 1043.8 807.53 1046.39 805.221C1048.98 802.922 1051.96 801.768 1055.35 801.768ZM1055.44 810.421C1053.63 810.421 1052.06 811.176 1050.71 812.698C1049.37 814.219 1048.35 816.442 1047.65 819.387C1046.95 822.333 1046.6 825.904 1046.6 830.101C1046.6 834.299 1046.95 837.881 1047.65 840.859C1048.35 843.826 1049.36 846.092 1050.71 847.634C1052.05 849.177 1053.63 849.954 1055.44 849.954C1057.25 849.954 1058.8 849.188 1060.12 847.634C1061.44 846.092 1062.44 843.826 1063.14 840.859C1063.84 837.881 1064.19 834.299 1064.19 830.101C1064.19 825.904 1063.84 822.333 1063.14 819.387C1062.44 816.442 1061.44 814.219 1060.12 812.698C1058.8 811.187 1057.25 810.421 1055.44 810.421ZM1069.61 825.904H1083.86V833.425H1069.61V825.904ZM1080.88 797.128H1089.45V871.717H1080.88V797.128ZM1096.88 795.564H1105.62V875.482H1096.88V795.564Z" fill="white"/>
<path d="M1141.13 801.423C1145.09 801.423 1148.64 802.588 1151.76 804.918C1154.88 807.249 1157.31 810.518 1159.06 814.715C1160.81 818.913 1161.68 823.865 1161.68 829.584C1161.68 835.302 1160.81 840.351 1159.06 844.581C1157.31 848.81 1154.88 852.069 1151.76 854.378C1148.64 856.676 1145.1 857.831 1141.13 857.831C1137.16 857.831 1133.62 856.676 1130.5 854.378C1127.38 852.08 1124.93 848.81 1123.15 844.581C1121.37 840.351 1120.49 835.356 1120.49 829.584C1120.49 823.811 1121.37 818.913 1123.15 814.715C1124.93 810.518 1127.38 807.249 1130.5 804.918C1133.62 802.588 1137.16 801.423 1141.13 801.423ZM1141.13 809.72C1138.8 809.72 1136.74 810.507 1134.97 812.083C1133.19 813.658 1131.81 815.935 1130.81 818.902C1129.82 821.869 1129.33 825.43 1129.33 829.573C1129.33 833.716 1129.82 837.352 1130.81 840.33C1131.81 843.297 1133.19 845.595 1134.97 847.192C1136.75 848.8 1138.8 849.598 1141.13 849.598C1143.46 849.598 1145.5 848.8 1147.25 847.192C1149 845.584 1150.37 843.297 1151.36 840.33C1152.35 837.352 1152.85 833.77 1152.85 829.573C1152.85 825.376 1152.35 821.88 1151.36 818.902C1150.37 815.924 1149 813.658 1147.25 812.083C1145.5 810.507 1143.46 809.72 1141.13 809.72ZM1174.45 795.564H1183.63V875.655H1174.45V795.564Z" fill="white"/>
<path d="M1201.98 802.556H1238.88V810.076H1211.08V851.875H1201.98V802.556ZM1201.98 849.512H1208.19C1212.97 849.512 1217.29 849.458 1221.17 849.339C1225.04 849.221 1228.76 849.005 1232.31 848.681C1235.86 848.357 1239.51 847.883 1243.24 847.235L1244.12 854.583C1240.26 855.23 1236.52 855.716 1232.88 856.072C1229.24 856.417 1225.42 856.655 1221.43 856.773C1217.43 856.892 1213.02 856.946 1208.18 856.946H1201.97V849.512H1201.98ZM1208.8 824.944H1235.73V832.205H1208.8V824.944ZM1240.2 824.761H1256.73V832.281H1240.2V824.761ZM1255.5 795.564H1264.68V875.655H1255.5V795.564Z" fill="white"/>
<path d="M1325.45 800.193C1329.53 800.193 1333.17 801.013 1336.38 802.642C1339.58 804.271 1342.11 806.515 1343.94 809.375C1345.78 812.234 1346.69 815.525 1346.69 819.258C1346.69 822.991 1345.78 826.282 1343.94 829.141C1342.11 832.001 1339.58 834.245 1336.38 835.874C1333.17 837.503 1329.53 838.323 1325.45 838.323C1321.37 838.323 1317.81 837.503 1314.6 835.874C1311.4 834.245 1308.88 832.001 1307.04 829.141C1305.21 826.282 1304.29 822.991 1304.29 819.258C1304.29 815.525 1305.21 812.234 1307.04 809.375C1308.88 806.515 1311.4 804.271 1314.6 802.642C1317.81 801.013 1321.42 800.193 1325.45 800.193ZM1325.45 807.886C1323.12 807.886 1321.03 808.35 1319.2 809.288C1317.37 810.227 1315.91 811.544 1314.83 813.27C1313.75 814.985 1313.21 816.981 1313.21 819.258C1313.21 821.535 1313.75 823.606 1314.83 825.289C1315.91 826.983 1317.37 828.289 1319.2 829.228C1321.03 830.155 1323.12 830.63 1325.45 830.63C1327.78 830.63 1329.97 830.166 1331.84 829.228C1333.7 828.3 1335.16 826.983 1336.21 825.289C1337.25 823.595 1337.78 821.589 1337.78 819.258C1337.78 816.927 1337.25 814.985 1336.21 813.27C1335.16 811.554 1333.7 810.227 1331.84 809.288C1329.97 808.361 1327.84 807.886 1325.45 807.886ZM1339.87 844.786C1345.35 844.786 1350.08 845.401 1354.04 846.62C1358 847.84 1361.06 849.587 1363.22 851.864C1365.38 854.141 1366.46 856.881 1366.46 860.086C1366.46 863.29 1365.38 866.031 1363.22 868.307C1361.06 870.584 1358 872.332 1354.04 873.551C1350.08 874.77 1345.35 875.385 1339.87 875.385C1334.39 875.385 1329.67 874.77 1325.71 873.551C1321.75 872.332 1318.68 870.584 1316.52 868.307C1314.37 866.031 1313.29 863.29 1313.29 860.086C1313.29 856.881 1314.37 854.141 1316.52 851.864C1318.68 849.587 1321.74 847.84 1325.71 846.62C1329.67 845.401 1334.39 844.786 1339.87 844.786ZM1339.87 852.048C1336.21 852.048 1333.05 852.35 1330.43 852.965C1327.81 853.58 1325.8 854.486 1324.4 855.673C1323 856.87 1322.31 858.338 1322.31 860.086C1322.31 861.834 1323.01 863.323 1324.4 864.542C1325.8 865.761 1327.81 866.689 1330.43 867.293C1333.05 867.897 1336.21 868.21 1339.87 868.21C1343.54 868.21 1346.77 867.908 1349.36 867.293C1351.95 866.678 1353.94 865.761 1355.35 864.542C1356.75 863.323 1357.45 861.834 1357.45 860.086C1357.45 858.338 1356.75 856.87 1355.35 855.673C1353.94 854.475 1351.95 853.569 1349.36 852.965C1346.77 852.36 1343.6 852.048 1339.87 852.048ZM1356.49 795.65H1365.59V842.607H1356.49V795.65ZM1362.88 806.58H1376.6V814.101H1362.88V806.58ZM1362.88 823.714H1376.6V831.321H1362.88V823.714Z" fill="white"/>
<path d="M1403.09 799.934H1410.7V807.713C1410.7 812.957 1409.82 817.845 1408.07 822.355C1406.33 826.865 1403.78 830.803 1400.42 834.158C1397.07 837.514 1392.98 840.093 1388.14 841.895L1383.32 834.46C1387.64 833.004 1391.25 830.922 1394.17 828.213C1397.08 825.505 1399.29 822.365 1400.81 818.816C1402.32 815.266 1403.09 811.554 1403.09 807.713V799.934ZM1423.29 844.872C1431.63 844.872 1438.2 846.21 1443 848.897C1447.81 851.584 1450.22 855.338 1450.22 860.172C1450.22 865.006 1447.81 868.761 1443 871.404C1438.19 874.058 1431.62 875.385 1423.29 875.385C1414.96 875.385 1408.37 874.058 1403.53 871.404C1398.69 868.75 1396.27 865.006 1396.27 860.172C1396.27 855.338 1398.69 851.573 1403.53 848.897C1408.37 846.221 1414.96 844.872 1423.29 844.872ZM1404.93 799.934H1412.37V807.282C1412.37 810.95 1413.08 814.446 1414.52 817.769C1415.94 821.092 1418.05 824.005 1420.86 826.509C1423.65 829.012 1427.06 830.943 1431.09 832.281L1426.28 839.456C1421.73 837.827 1417.85 835.432 1414.65 832.281C1411.44 829.131 1409.02 825.43 1407.38 821.179C1405.75 816.927 1404.93 812.288 1404.93 807.282V799.934ZM1423.29 852.048C1419.5 852.048 1416.27 852.35 1413.63 852.965C1410.98 853.58 1408.95 854.497 1407.56 855.716C1406.16 856.935 1405.46 858.424 1405.46 860.172C1405.46 861.92 1406.16 863.323 1407.56 864.542C1408.96 865.761 1410.98 866.7 1413.63 867.336C1416.29 867.984 1419.5 868.297 1423.29 868.297C1427.07 868.297 1430.28 867.973 1432.91 867.336C1435.53 866.7 1437.56 865.761 1438.99 864.542C1440.41 863.323 1441.13 861.866 1441.13 860.172C1441.13 858.478 1440.42 856.935 1438.99 855.716C1437.56 854.497 1435.53 853.569 1432.91 852.965C1430.29 852.35 1427.09 852.048 1423.29 852.048ZM1424.6 811.479H1442.35V818.999H1424.6V811.479ZM1440.69 795.65H1449.87V842.693H1440.69V795.65Z" fill="white"/>
<path d="M1464.3 858.694L1463.34 851.087C1468.12 851.087 1473.31 851.044 1478.91 850.958C1484.51 850.871 1490.18 850.666 1495.96 850.343C1501.73 850.019 1507.26 849.544 1512.57 848.897L1513.1 855.629C1507.62 856.503 1502.01 857.162 1496.27 857.593C1490.53 858.036 1484.95 858.305 1479.52 858.424C1474.11 858.543 1469.02 858.629 1464.31 858.683L1464.3 858.694ZM1467.62 803.958H1502.95V811.392H1467.62V803.958ZM1479.08 826.865H1488.09V853.968H1479.08V826.865ZM1499.28 803.958H1508.29V809.288C1508.29 812.784 1508.2 817.1 1508.03 822.225C1507.86 827.35 1507.19 833.446 1506.02 840.503L1497.01 839.715C1498.12 832.896 1498.77 826.994 1498.98 822.009C1499.18 817.024 1499.28 812.784 1499.28 809.288V803.958ZM1516.94 795.564H1526.04V875.482H1516.94V795.564ZM1523.42 828.44H1537.93V836.046H1523.42V828.44Z" fill="white"/>
<path d="M1564.07 803.689H1571.59V809.461C1571.59 814.478 1570.7 819.182 1568.93 823.585C1567.15 827.987 1564.6 831.86 1561.28 835.216C1557.95 838.571 1553.93 841.085 1549.21 842.779L1544.58 835.518C1547.67 834.407 1550.43 832.95 1552.85 831.148C1555.27 829.346 1557.33 827.275 1559.01 824.944C1560.7 822.614 1561.97 820.132 1562.82 817.51C1563.66 814.888 1564.08 812.202 1564.08 809.461V803.689H1564.07ZM1547.2 800.981H1589.95V808.415H1547.2V800.981ZM1584.18 845.315C1589.78 845.315 1594.57 845.908 1598.56 847.106C1602.56 848.304 1605.64 850.019 1607.83 852.263C1610.02 854.508 1611.11 857.237 1611.11 860.442C1611.11 865.222 1608.71 868.922 1603.89 871.544C1599.08 874.166 1592.51 875.482 1584.18 875.482C1575.85 875.482 1569.26 874.166 1564.43 871.544C1559.58 868.922 1557.16 865.222 1557.16 860.442C1557.16 857.237 1558.25 854.508 1560.44 852.263C1562.64 850.019 1565.75 848.304 1569.8 847.106C1573.85 845.908 1578.65 845.315 1584.18 845.315ZM1565.9 803.689H1573.34V809.461C1573.34 812.73 1574.06 815.935 1575.53 819.085C1576.99 822.236 1579.11 825.041 1581.92 827.523C1584.71 830.004 1588.12 831.968 1592.14 833.425L1587.6 840.6C1583 838.971 1579.08 836.597 1575.84 833.479C1572.6 830.361 1570.14 826.714 1568.45 822.549C1566.76 818.384 1565.92 814.025 1565.92 809.472V803.699L1565.9 803.689ZM1584.18 852.306C1580.39 852.306 1577.17 852.63 1574.53 853.267C1571.87 853.903 1569.84 854.81 1568.45 855.975C1567.05 857.14 1566.36 858.629 1566.36 860.431C1566.36 862.125 1567.06 863.582 1568.45 864.801C1569.85 866.02 1571.87 866.948 1574.53 867.552C1577.18 868.167 1580.39 868.469 1584.18 868.469C1587.97 868.469 1591.17 868.167 1593.81 867.552C1596.43 866.937 1598.46 866.02 1599.88 864.801C1601.31 863.582 1602.03 862.125 1602.03 860.431C1602.03 858.629 1601.32 857.14 1599.88 855.975C1598.46 854.81 1596.43 853.903 1593.81 853.267C1591.18 852.63 1587.98 852.306 1584.18 852.306ZM1587.51 815.676H1604.29V823.196H1587.51V815.676ZM1601.57 795.65H1610.76V843.211H1601.57V795.65Z" fill="white"/>
<path d="M1662 810.95H1672.4V813.831C1672.4 818.783 1671.62 823.509 1670.08 827.998C1668.53 832.486 1666.09 836.403 1662.73 839.758C1659.37 843.114 1655.02 845.606 1649.65 847.235L1643.45 837.179C1647.99 835.842 1651.63 833.921 1654.34 831.407C1657.04 828.904 1659 826.131 1660.19 823.099C1661.39 820.067 1661.99 816.981 1661.99 813.831V810.95H1662ZM1646.52 804.045H1690.33V814.101H1646.52V804.045ZM1658.5 850.127H1671.35V871.728H1658.5V850.127ZM1658.5 864.812H1714.55V875.04H1658.5V864.812ZM1662 795.478H1674.85V807.81H1662V795.478ZM1664.36 810.95H1674.85V813.831C1674.85 816.744 1675.44 819.636 1676.64 822.484C1677.84 825.343 1679.8 827.954 1682.54 830.307C1685.28 832.669 1688.89 834.514 1693.38 835.863L1687.27 845.919C1681.9 844.344 1677.54 841.959 1674.19 838.744C1670.83 835.54 1668.36 831.774 1666.75 827.469C1665.15 823.153 1664.35 818.611 1664.35 813.831V810.95H1664.36ZM1687.79 818.114H1706.33V828.602H1687.79V818.114ZM1699.86 794.863H1712.79V855.015H1699.86V794.863Z" fill="white"/>
<path d="M1747.34 799.848C1751.54 799.848 1755.33 800.754 1758.71 802.556C1762.09 804.368 1764.79 806.839 1766.81 809.99C1768.81 813.14 1769.83 816.755 1769.83 820.833C1769.83 824.912 1768.82 828.354 1766.81 831.504C1764.8 834.655 1762.1 837.126 1758.71 838.938C1755.34 840.751 1751.55 841.646 1747.34 841.646C1743.13 841.646 1739.36 840.74 1735.97 838.938C1732.59 837.136 1729.91 834.655 1727.92 831.504C1725.94 828.354 1724.94 824.804 1724.94 820.833C1724.94 816.863 1725.94 813.14 1727.92 809.99C1729.91 806.839 1732.58 804.368 1735.97 802.556C1739.35 800.754 1743.14 799.848 1747.34 799.848ZM1736.06 847.678H1748.91V869.451H1736.06V847.678ZM1736.06 864.812H1791.75V875.04H1736.06V864.812ZM1747.34 811.036C1745.54 811.036 1743.89 811.414 1742.4 812.169C1740.91 812.925 1739.74 814.025 1738.86 815.449C1737.99 816.873 1737.55 818.675 1737.55 820.823C1737.55 822.97 1737.99 824.685 1738.86 826.109C1739.74 827.534 1740.91 828.613 1742.4 829.346C1743.89 830.08 1745.53 830.436 1747.34 830.436C1749.15 830.436 1750.88 830.069 1752.37 829.346C1753.86 828.623 1755.03 827.544 1755.91 826.109C1756.78 824.685 1757.23 822.916 1757.23 820.823C1757.23 818.729 1756.78 816.873 1755.91 815.449C1755.03 814.025 1753.86 812.925 1752.37 812.169C1750.88 811.414 1749.21 811.036 1747.34 811.036ZM1776.19 794.863H1789.04V853.882H1776.19V794.863ZM1785.46 817.769H1799.54V828.256H1785.46V817.769Z" fill="white"/>
<path d="M1569.13 276.74H1728.96C1733.05 276.74 1736.38 273.42 1736.38 269.32V180.2C1736.38 176.1 1733.05 172.78 1728.96 172.78H1519.89C1516.64 172.78 1513.54 174.11 1511.3 176.46L1452.94 237.78L1394.58 176.46C1392.34 174.11 1389.24 172.78 1385.99 172.78H1192.55C1189.3 172.78 1186.19 174.12 1183.95 176.48L1128.89 234.51C1126.8 236.71 1125.64 239.63 1125.64 242.67V492.72C1125.64 496.82 1128.96 500.14 1133.06 500.14H1222.18C1226.28 500.14 1229.6 496.82 1229.6 492.72V290.42C1229.6 283.66 1235.08 278.18 1241.84 278.18H1336.79C1343.55 278.18 1349.03 283.66 1349.03 290.42V492.72C1349.03 496.82 1352.35 500.14 1356.45 500.14H1445.57C1449.67 500.14 1452.99 496.82 1452.99 492.72V435.28L1511.3 496.46C1513.53 498.81 1516.63 500.14 1519.88 500.14H1728.95C1733.04 500.14 1736.37 496.82 1736.37 492.72V403.6C1736.37 399.5 1733.04 396.18 1728.95 396.18H1569.12C1562.36 396.18 1556.88 390.7 1556.88 383.94V289C1556.88 282.24 1562.36 276.76 1569.12 276.76" fill="white"/>
<path d="M195.59 198.9H142.72V251.77H195.59V198.9Z" fill="#00CAFF"/>
<path d="M194.21 283.8H144.11V473.99H194.21V283.8ZM526.32 475.93V429.29C518.94 429.25 512.84 428.85 508.19 428.12C503.02 427.3 499.06 425.55 496.43 422.9C493.78 420.27 492.03 416.44 491.21 411.54C490.42 406.85 490.04 400.67 490.04 393.17V326.64H526.32V283.79H490.04V209.69H439.94V393.56C439.94 409.06 441.29 422.25 443.94 432.77C446.58 443.16 451.07 451.65 457.29 458C463.52 464.36 471.74 468.97 481.75 471.72C491.85 474.51 504.71 475.92 519.98 475.92H526.31L526.32 475.93ZM813.49 195.04H763.39V474H813.49V195.04ZM391.63 302.53C377.75 287.55 358.14 279.95 333.35 279.95C321.39 279.95 310.34 282.41 300.48 287.27C290.62 292.13 282.25 298.95 275.58 307.56L272.85 311.08L272.83 307.91V283.8H223.41V474H273.21V372.67L273.25 379.7C273.25 378.53 273.27 377.4 273.31 376.28C273.82 358.5 278.25 345.25 286.52 336.83C295.33 327.87 306.03 323.32 318.31 323.32C332.77 323.32 343.8 327.74 351.11 336.48C358.27 345.05 361.93 357.31 362 372.94V474.01H412.56V366.04C412.56 338.93 405.51 317.57 391.6 302.54M737.28 378.51C737.28 364.87 734.84 351.93 730.04 340.05C725.24 328.18 718.46 317.62 709.87 308.65C701.29 299.7 690.86 292.6 678.87 287.55C666.88 282.5 653.49 279.94 639.08 279.94C625.45 279.94 612.45 282.56 600.46 287.73C588.45 292.91 577.89 300.03 569.05 308.87C560.2 317.71 553.1 328.28 547.92 340.28C542.74 352.27 540.12 365.26 540.12 378.9C540.12 392.54 542.62 405.55 547.54 417.55C552.47 429.56 559.39 440.12 568.09 448.94C576.8 457.78 587.49 464.88 599.87 470.06C612.25 475.24 625.97 477.86 640.63 477.86C683.02 477.86 709.46 458.58 725.24 440.53L689.19 413.07C681.59 422.08 663.55 434.31 641.02 434.31C626.88 434.31 615.25 431.04 606.43 424.59C597.6 418.13 591.52 409.25 588.35 398.19L587.85 396.42H737.28V378.51ZM588.26 361.06C588.24 347.14 604.24 322.82 638.7 322.79C673.16 322.79 689.18 347.08 689.18 361L588.26 361.06Z" fill="white"/>
<path d="M870.55 447.67C869.57 445.43 868.24 443.47 866.56 441.79C864.88 440.11 862.92 438.78 860.67 437.8C858.43 436.82 856.03 436.33 853.47 436.33C850.91 436.33 848.51 436.83 846.26 437.8C844.02 438.78 842.06 440.12 840.38 441.79C838.7 443.47 837.37 445.43 836.39 447.67C835.41 449.92 834.92 452.32 834.92 454.88C834.92 457.44 835.41 459.84 836.39 462.08C837.37 464.33 838.71 466.29 840.38 467.97C842.06 469.65 844.02 470.98 846.26 471.96C848.51 472.94 850.91 473.43 853.47 473.43C856.03 473.43 858.43 472.94 860.67 471.96C862.92 470.98 864.88 469.65 866.56 467.97C868.24 466.29 869.57 464.33 870.55 462.08C871.53 459.84 872.02 457.44 872.02 454.88C872.02 452.32 871.53 449.92 870.55 447.67ZM867.54 460.81C866.74 462.68 865.65 464.3 864.27 465.68C862.9 467.06 861.27 468.14 859.41 468.95C857.55 469.74 855.57 470.14 853.48 470.14C851.39 470.14 849.4 469.74 847.54 468.95C845.68 468.15 844.06 467.06 842.68 465.68C841.3 464.3 840.22 462.68 839.41 460.81C838.62 458.95 838.21 456.97 838.21 454.88C838.21 452.79 838.62 450.8 839.41 448.94C840.21 447.08 841.3 445.46 842.68 444.08C844.06 442.7 845.68 441.62 847.54 440.81C849.4 440.02 851.39 439.61 853.48 439.61C855.57 439.61 857.55 440.02 859.41 440.81C861.27 441.61 862.9 442.7 864.27 444.08C865.65 445.46 866.74 447.08 867.54 448.94C868.33 450.8 868.73 452.79 868.73 454.88C868.73 456.97 868.33 458.95 867.54 460.81ZM856.96 456.38C858.41 456.21 859.61 455.66 860.57 454.73C861.52 453.8 862 452.4 862 450.54C862 448.48 861.4 446.9 860.18 445.8C858.96 444.7 857.08 444.15 854.52 444.15H846.34V465.34H850.23V456.67H853.07L858.35 465.34H862.44L856.95 456.37L856.96 456.38ZM854.87 453.31C854.27 453.36 853.67 453.38 853.08 453.38H850.24V447.45H853.08C853.68 447.45 854.27 447.45 854.87 447.49C855.47 447.52 856 447.64 856.49 447.84C856.97 448.05 857.36 448.34 857.66 448.74C857.97 449.14 858.11 449.69 858.11 450.39C858.11 451.09 857.96 451.64 857.66 452.04C857.36 452.44 856.97 452.74 856.49 452.94C856 453.14 855.46 453.26 854.87 453.31Z" fill="white"/>
<path d="M971.95 336.45L1001.85 306.55L999.09 303.8L969.19 333.69L939.3 303.8L936.54 306.55L966.43 336.45L936.54 366.34L939.3 369.1L969.19 339.21L999.09 369.1L1001.85 366.34L971.95 336.45Z" fill="white"/>
</svg>
