<svg width="1880" height="1056" viewBox="0 0 1880 1056" fill="none" xmlns="http://www.w3.org/2000/svg">
<path d="M1879.1 0H0V1055.84H1879.1V0Z" fill="#101A2C"/>
<path d="M88.951 711.259H84.4302V665.166H88.951V711.259ZM103.431 711.259H99.104V676.689H103.301V682.127H103.646C104.542 680.26 105.837 678.814 107.531 677.8C109.246 676.764 111.361 676.236 113.864 676.236C116.216 676.236 118.266 676.721 120.003 677.703C121.762 678.663 123.122 680.088 124.082 681.997C125.053 683.907 125.549 686.216 125.549 688.935V711.248H121.223V689.194C121.223 687.349 120.877 685.741 120.176 684.393C119.496 683.033 118.514 681.997 117.22 681.274C115.947 680.53 114.425 680.163 112.667 680.163C110.908 680.163 109.289 680.552 107.887 681.339C106.484 682.105 105.394 683.217 104.607 684.684C103.819 686.13 103.431 687.834 103.431 689.809V711.259ZM148.758 680.379H131.98V676.689H148.758V680.379ZM141.507 668.413V702.055C141.507 703.436 141.734 704.526 142.176 705.335C142.64 706.144 143.244 706.727 143.989 707.083C144.755 707.418 145.618 707.59 146.6 707.59C147.582 707.59 148.488 707.558 149.47 707.493V711.539C148.596 711.69 147.506 711.766 146.19 711.766C144.636 711.766 143.179 711.431 141.798 710.752C140.417 710.072 139.295 709.079 138.421 707.763C137.569 706.447 137.148 704.882 137.148 703.08V668.413H141.507ZM170.272 711.96C167.089 711.96 164.295 711.216 161.899 709.727C159.504 708.238 157.659 706.155 156.364 703.458C155.07 700.76 154.422 697.675 154.422 694.2C154.422 690.726 155.07 687.64 156.364 684.911C157.659 682.17 159.461 680.044 161.781 678.512C164.09 676.98 166.733 676.225 169.711 676.225C172.344 676.225 174.771 676.851 177.005 678.102C179.238 679.332 181.018 681.231 182.356 683.799C183.716 686.367 184.396 689.518 184.396 693.251V695.29H157.4V691.535H180.037C180.037 689.367 179.605 687.425 178.731 685.709C177.857 683.972 176.638 682.602 175.073 681.598C173.498 680.605 171.718 680.098 169.722 680.098C167.596 680.098 165.708 680.659 164.057 681.782C162.406 682.882 161.112 684.393 160.173 686.302C159.256 688.191 158.803 690.241 158.803 692.442V694.729C158.803 697.426 159.267 699.779 160.205 701.796C161.155 703.814 162.493 705.357 164.219 706.447C165.956 707.526 167.985 708.065 170.294 708.065C171.804 708.065 173.142 707.838 174.307 707.396C175.494 706.932 176.487 706.36 177.264 705.68C178.073 705.001 178.688 704.245 179.109 703.425H183.759C183.23 705.033 182.346 706.49 181.116 707.784C179.886 709.058 178.343 710.072 176.498 710.838C174.653 711.582 172.581 711.949 170.294 711.949L170.272 711.96ZM196.318 711.259H191.991V665.166H196.318V711.259ZM215.48 674.013H223.529C224.403 674.013 225.223 674.229 226.011 674.65C226.799 675.049 227.435 675.642 227.921 676.43C228.428 677.218 228.687 678.156 228.687 679.268C228.687 680.379 228.428 681.307 227.921 682.138C227.414 682.968 226.745 683.616 225.914 684.08C225.083 684.522 224.231 684.749 223.335 684.749H217.228V682.397H222.515C223.022 682.397 223.497 682.267 223.95 682.019C224.393 681.76 224.749 681.404 224.997 680.94C225.256 680.454 225.374 679.904 225.374 679.289C225.374 678.297 225.094 677.574 224.544 677.12C224.015 676.657 223.368 676.419 222.602 676.419H218.491V690.651H215.47V674.035L215.48 674.013ZM229.356 690.629H225.979L221.965 682.893H225.245L229.356 690.629ZM221.62 700.566C218.394 700.566 215.405 699.757 212.643 698.149C209.881 696.52 207.69 694.319 206.05 691.557C204.421 688.795 203.601 685.795 203.601 682.548C203.601 679.3 204.421 676.268 206.05 673.506C207.68 670.744 209.881 668.564 212.643 666.946C215.405 665.338 218.394 664.529 221.62 664.529C224.846 664.529 227.899 665.338 230.661 666.946C233.423 668.554 235.603 670.744 237.221 673.506C238.829 676.268 239.638 679.278 239.638 682.548C239.638 685.817 238.829 688.795 237.221 691.557C235.614 694.319 233.423 696.509 230.661 698.149C227.899 699.757 224.889 700.566 221.62 700.566ZM221.62 697.027C224.274 697.027 226.702 696.38 228.913 695.085C231.147 693.79 232.906 692.032 234.2 689.798C235.495 687.565 236.142 685.148 236.142 682.537C236.142 679.926 235.495 677.455 234.2 675.243C232.906 673.01 231.147 671.262 228.913 669.989C226.702 668.694 224.274 668.046 221.62 668.046C218.965 668.046 216.592 668.694 214.358 669.989C212.125 671.262 210.355 673.01 209.039 675.243C207.744 677.455 207.097 679.883 207.097 682.537C207.097 685.191 207.744 687.565 209.039 689.798C210.355 692.032 212.125 693.79 214.358 695.085C216.592 696.38 219.009 697.027 221.62 697.027ZM259.308 711.259L276.053 665.166H280.952L297.729 711.259H292.95L278.653 671.024H278.308L264.012 711.259H259.297H259.308ZM290.026 693.531V697.545H267.011V693.531H290.026ZM308.897 711.259H304.376V665.166H308.897V711.259ZM349.293 680.379H332.008V676.689H349.293V680.379ZM337.327 671.726C337.327 669.902 337.683 668.338 338.406 667.043C339.151 665.748 340.197 664.766 341.557 664.087C342.938 663.385 344.545 663.04 346.39 663.04C346.941 663.04 347.534 663.072 348.171 663.137C348.829 663.18 349.433 663.256 349.983 663.364V667.28C349.066 667.129 348.16 667.054 347.243 667.054C345.376 667.054 343.984 667.507 343.078 668.424C342.161 669.341 341.708 670.722 341.708 672.589L341.675 711.259H337.316V671.726H337.327ZM368.229 711.96C365.261 711.96 362.596 711.205 360.244 709.705C357.914 708.194 356.101 706.101 354.806 703.404C353.512 700.685 352.864 697.588 352.864 694.114C352.864 690.64 353.512 687.511 354.806 684.824C356.101 682.105 357.914 680.001 360.244 678.491C362.596 676.98 365.261 676.236 368.229 676.236C371.196 676.236 373.839 676.991 376.159 678.491C378.489 680.001 380.302 682.105 381.575 684.824C382.87 687.522 383.517 690.618 383.517 694.114C383.517 697.61 382.87 700.696 381.575 703.404C380.302 706.101 378.5 708.194 376.159 709.705C373.85 711.216 371.206 711.96 368.229 711.96ZM368.229 708.076C370.516 708.076 372.49 707.45 374.152 706.198C375.803 704.947 377.054 703.264 377.907 701.138C378.759 699.012 379.18 696.671 379.18 694.103C379.18 691.535 378.759 689.194 377.907 687.068C377.054 684.943 375.803 683.26 374.152 682.008C372.501 680.735 370.527 680.098 368.229 680.098C365.93 680.098 363.967 680.735 362.305 682.008C360.654 683.26 359.392 684.943 358.518 687.068C357.644 689.194 357.212 691.535 357.212 694.103C357.212 696.671 357.633 699.012 358.486 701.138C359.359 703.264 360.622 704.947 362.273 706.198C363.945 707.45 365.93 708.076 368.229 708.076ZM391.113 676.689H395.31V682.041H395.634C396.335 680.239 397.533 678.804 399.227 677.746C400.921 676.689 402.831 676.149 404.956 676.149C405.787 676.149 406.542 676.182 407.211 676.247V680.606C407.017 680.562 406.672 680.508 406.165 680.444C405.658 680.379 405.15 680.347 404.633 680.347C402.917 680.347 401.352 680.724 399.95 681.49C398.547 682.235 397.447 683.271 396.637 684.608C395.828 685.925 395.429 687.414 395.429 689.065V711.248H391.102V676.678L391.113 676.689ZM429.47 665.166H456.401V669.212H433.991V686.173H454.265V690.187H433.991V711.259H429.47V665.166ZM484.605 676.689H488.867V711.259H484.605V705.497H484.26C483.386 707.342 482.069 708.842 480.311 709.986C478.552 711.129 476.437 711.701 473.977 711.701C471.754 711.701 469.78 711.216 468.054 710.234C466.36 709.241 465.022 707.795 464.04 705.907C463.08 703.997 462.605 701.699 462.605 699.002V676.689H466.932V698.743C466.932 700.458 467.288 701.99 467.978 703.328C468.701 704.645 469.694 705.67 470.945 706.414C472.218 707.137 473.653 707.493 475.24 707.493C476.826 707.493 478.336 707.126 479.76 706.382C481.185 705.616 482.339 704.504 483.224 703.037C484.141 701.57 484.594 699.843 484.594 697.847V676.678L484.605 676.689ZM512.129 680.379H495.351V676.689H512.129V680.379ZM504.878 668.413V702.055C504.878 703.436 505.105 704.526 505.547 705.335C506.011 706.144 506.616 706.727 507.36 707.083C508.126 707.418 508.989 707.59 509.971 707.59C510.953 707.59 511.859 707.558 512.841 707.493V711.539C511.967 711.69 510.878 711.766 509.561 711.766C508.018 711.766 506.551 711.431 505.17 710.752C503.789 710.072 502.667 709.079 501.793 707.763C500.94 706.447 500.52 704.882 500.52 703.08V668.413H504.878ZM541.962 676.689H546.224V711.259H541.962V705.497H541.606C540.732 707.342 539.427 708.842 537.657 709.986C535.899 711.129 533.784 711.701 531.324 711.701C529.09 711.701 527.127 711.216 525.4 710.234C523.706 709.241 522.368 707.795 521.387 705.907C520.426 703.997 519.952 701.699 519.952 699.002V676.689H524.278V698.743C524.278 700.458 524.623 701.99 525.325 703.328C526.048 704.645 527.029 705.67 528.281 706.414C529.554 707.137 530.989 707.493 532.575 707.493C534.161 707.493 535.672 707.126 537.096 706.382C538.52 705.616 539.675 704.504 540.57 703.037C541.488 701.57 541.941 699.843 541.941 697.847V676.678L541.962 676.689ZM555.611 676.689H559.808V682.041H560.132C560.833 680.239 562.031 678.804 563.725 677.746C565.419 676.689 567.329 676.149 569.454 676.149C570.285 676.149 571.04 676.182 571.72 676.247V680.606C571.526 680.562 571.18 680.508 570.663 680.444C570.155 680.379 569.648 680.347 569.141 680.347C567.415 680.347 565.861 680.724 564.459 681.49C563.056 682.235 561.955 683.271 561.146 684.608C560.337 685.925 559.938 687.414 559.938 689.065V711.248H555.611V676.678V676.689ZM590.31 711.96C587.128 711.96 584.333 711.216 581.938 709.727C579.542 708.238 577.697 706.155 576.403 703.458C575.108 700.76 574.461 697.675 574.461 694.2C574.461 690.726 575.108 687.64 576.403 684.911C577.697 682.17 579.499 680.044 581.808 678.512C584.117 676.98 586.761 676.225 589.739 676.225C592.371 676.225 594.799 676.851 597.022 678.102C599.255 679.332 601.035 681.231 602.373 683.799C603.733 686.367 604.412 689.518 604.412 693.251V695.29H577.417V691.535H600.043C600.043 689.367 599.611 687.425 598.737 685.709C597.863 683.972 596.644 682.602 595.079 681.598C593.504 680.605 591.724 680.098 589.728 680.098C587.602 680.098 585.714 680.659 584.063 681.782C582.412 682.882 581.118 684.393 580.179 686.302C579.262 688.191 578.809 690.241 578.809 692.442V694.729C578.809 697.426 579.283 699.779 580.211 701.796C581.172 703.814 582.499 705.357 584.225 706.447C585.962 707.526 587.991 708.065 590.3 708.065C591.81 708.065 593.137 707.838 594.313 707.396C595.5 706.932 596.493 706.36 597.27 705.68C598.079 705.001 598.694 704.245 599.115 703.425H603.765C603.236 705.033 602.352 706.49 601.122 707.784C599.892 709.058 598.349 710.072 596.504 710.838C594.659 711.582 592.587 711.949 590.3 711.949L590.31 711.96ZM624.179 665.166H628.764L639.079 704.321H639.425L649.707 665.166H654.897L665.244 704.321H665.568L675.883 665.166H680.468L667.834 711.259H663.021L652.523 672.708H652.167L641.636 711.259H636.803L624.2 665.166H624.179ZM696.469 711.96C693.502 711.96 690.837 711.205 688.485 709.705C686.154 708.194 684.331 706.101 683.047 703.404C681.752 700.685 681.105 697.588 681.105 694.114C681.105 690.64 681.752 687.511 683.047 684.824C684.342 682.105 686.154 680.001 688.485 678.491C690.837 676.98 693.502 676.236 696.469 676.236C699.436 676.236 702.08 676.991 704.399 678.491C706.73 680.001 708.532 682.105 709.805 684.824C711.1 687.522 711.747 690.618 711.747 694.114C711.747 697.61 711.1 700.696 709.805 703.404C708.532 706.101 706.73 708.194 704.399 709.705C702.09 711.216 699.447 711.96 696.469 711.96ZM696.469 708.076C698.756 708.076 700.731 707.45 702.393 706.198C704.043 704.947 705.295 703.264 706.147 701.138C707 699.012 707.421 696.671 707.421 694.103C707.421 691.535 707 689.194 706.147 687.068C705.295 684.943 704.043 683.26 702.393 682.008C700.742 680.735 698.756 680.098 696.469 680.098C694.182 680.098 692.207 680.735 690.546 682.008C688.895 683.26 687.632 684.943 686.758 687.068C685.884 689.194 685.453 691.535 685.453 694.103C685.453 696.671 685.874 699.012 686.726 701.138C687.6 703.264 688.862 704.947 690.513 706.198C692.186 707.45 694.171 708.076 696.469 708.076ZM719.354 676.689H723.551V682.041H723.864C724.565 680.239 725.763 678.804 727.468 677.746C729.162 676.689 731.071 676.149 733.197 676.149C734.028 676.149 734.783 676.182 735.452 676.247V680.606C735.258 680.562 734.912 680.508 734.405 680.444C733.898 680.379 733.38 680.347 732.873 680.347C731.158 680.347 729.593 680.724 728.19 681.49C726.788 682.235 725.687 683.271 724.878 684.608C724.069 685.925 723.67 687.414 723.67 689.065V711.248H719.343V676.678L719.354 676.689ZM745.033 692.733H745.961L761.875 676.689H767.313L751.302 692.798L750.892 692.862L745.098 698.333L745.033 692.733ZM741.127 665.166H745.454V711.259H741.127V665.166ZM748.885 693.661L751.906 690.672L768.231 711.269H762.717L748.874 693.672L748.885 693.661ZM788.04 680.379H770.755V676.689H788.04V680.379ZM776.075 671.726C776.075 669.902 776.441 668.338 777.154 667.043C777.898 665.748 778.945 664.766 780.304 664.087C781.685 663.385 783.293 663.04 785.138 663.04C785.688 663.04 786.282 663.072 786.918 663.137C787.576 663.18 788.18 663.256 788.731 663.364V667.28C787.814 667.129 786.907 667.054 785.99 667.054C784.124 667.054 782.732 667.507 781.825 668.424C780.908 669.341 780.455 670.722 780.455 672.589L780.423 711.259H776.064V671.726H776.075ZM806.976 711.96C804.009 711.96 801.344 711.205 798.992 709.705C796.661 708.194 794.838 706.101 793.554 703.404C792.259 700.685 791.612 697.588 791.612 694.114C791.612 690.64 792.259 687.511 793.554 684.824C794.848 682.105 796.661 680.001 798.992 678.491C801.344 676.98 804.009 676.236 806.976 676.236C809.943 676.236 812.587 676.991 814.906 678.491C817.237 680.001 819.049 682.105 820.312 684.824C821.607 687.522 822.254 690.618 822.254 694.114C822.254 697.61 821.607 700.696 820.312 703.404C819.039 706.101 817.237 708.194 814.906 709.705C812.597 711.216 809.954 711.96 806.976 711.96ZM806.976 708.076C809.263 708.076 811.238 707.45 812.899 706.198C814.55 704.947 815.802 703.264 816.654 701.138C817.507 699.012 817.927 696.671 817.927 694.103C817.927 691.535 817.507 689.194 816.654 687.068C815.802 684.943 814.55 683.26 812.899 682.008C811.249 680.735 809.263 680.098 806.976 680.098C804.689 680.098 802.714 680.735 801.052 682.008C799.402 683.26 798.139 684.943 797.265 687.068C796.391 689.194 795.96 691.535 795.96 694.103C795.96 696.671 796.391 699.012 797.233 701.138C798.107 703.264 799.369 704.947 801.02 706.198C802.703 707.45 804.678 708.076 806.976 708.076ZM829.871 676.689H834.069V682.041H834.392C835.094 680.239 836.291 678.804 837.985 677.746C839.679 676.689 841.589 676.149 843.714 676.149C844.545 676.149 845.301 676.182 845.969 676.247V680.606C845.775 680.562 845.43 680.508 844.923 680.444C844.416 680.379 843.909 680.347 843.391 680.347C841.675 680.347 840.111 680.724 838.708 681.49C837.305 682.235 836.205 683.271 835.396 684.608C834.586 685.925 834.187 687.414 834.187 689.065V711.248H829.861V676.678L829.871 676.689ZM864.15 711.96C861.075 711.96 858.367 711.194 856.036 709.673C853.706 708.119 851.904 706.004 850.631 703.307C849.357 700.588 848.721 697.524 848.721 694.103C848.721 690.683 849.368 687.586 850.663 684.867C851.958 682.148 853.76 680.034 856.069 678.502C858.378 676.969 861.043 676.214 864.053 676.214C866.383 676.214 868.509 676.657 870.419 677.552C872.35 678.448 873.915 679.721 875.134 681.372C876.342 683.001 877.108 684.889 877.421 687.036H873.03C872.771 685.741 872.242 684.576 871.444 683.53C870.634 682.472 869.609 681.631 868.358 681.016C867.128 680.401 865.725 680.088 864.15 680.088C861.981 680.088 860.061 680.67 858.388 681.836C856.737 683.001 855.432 684.641 854.472 686.734C853.533 688.816 853.069 691.222 853.069 693.963C853.069 696.704 853.522 699.142 854.439 701.289C855.367 703.415 856.673 705.066 858.324 706.252C860.007 707.439 861.938 708.033 864.15 708.033C865.639 708.033 867.009 707.752 868.261 707.202C869.512 706.652 870.548 705.842 871.379 704.785C872.231 703.728 872.792 702.498 873.062 701.095H877.421C877.13 703.199 876.385 705.065 875.188 706.695C874.022 708.324 872.48 709.608 870.57 710.547C868.66 711.485 866.524 711.949 864.139 711.949L864.15 711.96ZM898.806 711.96C895.623 711.96 892.839 711.216 890.433 709.727C888.038 708.238 886.193 706.155 884.898 703.458C883.604 700.76 882.956 697.675 882.956 694.2C882.956 690.726 883.604 687.64 884.898 684.911C886.193 682.17 887.995 680.044 890.304 678.512C892.613 676.98 895.256 676.225 898.223 676.225C900.856 676.225 903.284 676.851 905.517 678.102C907.74 679.332 909.531 681.231 910.858 683.799C912.217 686.367 912.897 689.518 912.897 693.251V695.29H885.902V691.535H908.527C908.527 689.367 908.096 687.425 907.222 685.709C906.348 683.972 905.129 682.602 903.564 681.598C901.989 680.605 900.209 680.098 898.213 680.098C896.087 680.098 894.199 680.659 892.548 681.782C890.897 682.882 889.603 684.393 888.664 686.302C887.747 688.191 887.294 690.241 887.294 692.442V694.729C887.294 697.426 887.758 699.779 888.696 701.796C889.646 703.814 890.984 705.357 892.71 706.447C894.447 707.526 896.475 708.065 898.784 708.065C900.295 708.065 901.633 707.838 902.798 707.396C903.985 706.932 904.967 706.36 905.755 705.68C906.564 705.001 907.179 704.245 907.6 703.425H912.25C911.721 705.033 910.836 706.49 909.606 707.784C908.376 709.058 906.833 710.072 904.988 710.838C903.143 711.582 901.072 711.949 898.784 711.949L898.806 711.96ZM937.098 665.166H952.15C955.376 665.166 958.116 665.791 960.361 667.043C962.637 668.273 964.331 669.956 965.453 672.103C966.597 674.25 967.18 676.71 967.18 679.483C967.18 682.256 966.608 684.673 965.453 686.831C964.331 689 962.648 690.705 960.393 691.956C958.149 693.208 955.419 693.834 952.214 693.834H940.562V689.755H952.02C954.372 689.755 956.347 689.324 957.944 688.45C959.562 687.554 960.738 686.335 961.504 684.792C962.292 683.217 962.68 681.447 962.68 679.473C962.68 677.498 962.281 675.653 961.504 674.121C960.738 672.567 959.541 671.359 957.911 670.496C956.293 669.622 954.308 669.19 951.956 669.19H941.608V711.237H937.087V665.144L937.098 665.166ZM975.013 676.689H979.21V682.041H979.534C980.235 680.239 981.433 678.804 983.127 677.746C984.821 676.689 986.73 676.149 988.856 676.149C989.687 676.149 990.442 676.182 991.122 676.247V680.606C990.927 680.562 990.582 680.508 990.064 680.444C989.557 680.379 989.05 680.347 988.532 680.347C986.817 680.347 985.252 680.724 983.86 681.49C982.458 682.235 981.357 683.271 980.548 684.608C979.739 685.925 979.339 687.414 979.339 689.065V711.248H975.013V676.678V676.689ZM1009.23 711.96C1006.26 711.96 1003.59 711.205 1001.24 709.705C998.912 708.194 997.088 706.101 995.804 703.404C994.51 700.685 993.862 697.588 993.862 694.114C993.862 690.64 994.51 687.511 995.804 684.824C997.099 682.105 998.912 680.001 1001.24 678.491C1003.59 676.98 1006.26 676.236 1009.23 676.236C1012.19 676.236 1014.84 676.991 1017.16 678.491C1019.49 680.001 1021.29 682.105 1022.56 684.824C1023.86 687.522 1024.5 690.618 1024.5 694.114C1024.5 697.61 1023.86 700.696 1022.56 703.404C1021.29 706.101 1019.49 708.194 1017.16 709.705C1014.85 711.216 1012.2 711.96 1009.23 711.96ZM1009.23 708.076C1011.51 708.076 1013.49 707.45 1015.15 706.198C1016.8 704.947 1018.05 703.264 1018.9 701.138C1019.76 699.012 1020.18 696.671 1020.18 694.103C1020.18 691.535 1019.75 689.194 1018.9 687.068C1018.05 684.943 1016.8 683.26 1015.15 682.008C1013.5 680.735 1011.51 680.098 1009.23 680.098C1006.94 680.098 1004.96 680.735 1003.3 682.008C1001.65 683.26 1000.39 684.943 999.516 687.068C998.642 689.194 998.21 691.535 998.21 694.103C998.21 696.671 998.631 699.012 999.484 701.138C1000.36 703.264 1001.62 704.947 1003.27 706.198C1004.94 707.45 1006.93 708.076 1009.23 708.076ZM1045.48 724.951C1042.93 724.951 1040.65 724.595 1038.61 723.872C1036.59 723.149 1034.96 722.091 1033.71 720.689C1032.48 719.308 1031.72 717.625 1031.45 715.629H1036.01C1036.43 717.43 1037.48 718.79 1039.16 719.707C1040.83 720.646 1042.94 721.11 1045.49 721.11C1048.72 721.11 1051.2 720.344 1052.94 718.822C1054.67 717.312 1055.55 715.024 1055.55 711.949V704.278H1055.2C1054.61 705.529 1053.9 706.619 1053.06 707.558C1052.24 708.497 1051.11 709.284 1049.69 709.942C1048.28 710.601 1046.61 710.924 1044.66 710.924C1041.9 710.924 1039.44 710.223 1037.28 708.82C1035.11 707.418 1033.42 705.411 1032.19 702.8C1030.96 700.189 1030.34 697.146 1030.34 693.661C1030.34 690.176 1030.95 687.155 1032.15 684.522C1033.36 681.868 1035.06 679.818 1037.21 678.383C1039.37 676.948 1041.89 676.214 1044.72 676.214C1046.7 676.214 1048.37 676.549 1049.75 677.228C1051.15 677.908 1052.22 678.696 1052.97 679.58C1053.73 680.476 1054.51 681.641 1055.29 683.087H1055.63V676.689H1059.89V712.143C1059.89 714.97 1059.28 717.333 1058.05 719.243C1056.84 721.174 1055.15 722.609 1052.99 723.537C1050.82 724.476 1048.32 724.94 1045.48 724.94V724.951ZM1045.2 706.964C1047.37 706.964 1049.23 706.436 1050.8 705.378C1052.37 704.321 1053.57 702.81 1054.4 700.858C1055.22 698.883 1055.64 696.531 1055.64 693.79C1055.64 691.05 1055.23 688.752 1054.4 686.691C1053.59 684.63 1052.41 683.033 1050.84 681.889C1049.3 680.724 1047.41 680.142 1045.21 680.142C1043.01 680.142 1041.15 680.746 1039.58 681.954C1038 683.141 1036.8 684.77 1035.97 686.82C1035.14 688.87 1034.73 691.201 1034.73 693.79C1034.73 696.38 1035.14 698.7 1035.97 700.696C1036.8 702.67 1038 704.213 1039.58 705.314C1041.15 706.414 1043.03 706.964 1045.21 706.964H1045.2ZM1069.23 676.689H1073.42V682.041H1073.75C1074.45 680.239 1075.65 678.804 1077.35 677.746C1079.05 676.689 1080.96 676.149 1083.08 676.149C1083.91 676.149 1084.67 676.182 1085.35 676.247V680.606C1085.15 680.562 1084.81 680.508 1084.3 680.444C1083.79 680.379 1083.28 680.347 1082.77 680.347C1081.05 680.347 1079.49 680.724 1078.09 681.49C1076.68 682.235 1075.58 683.271 1074.77 684.608C1073.96 685.925 1073.56 687.414 1073.56 689.065V711.248H1069.24V676.678L1069.23 676.689ZM1112.01 694.33C1111.7 694.351 1109.76 694.502 1106.21 694.772L1102.59 695.031C1099.58 695.247 1097.31 695.927 1095.81 697.07C1094.3 698.193 1093.55 699.768 1093.55 701.785C1093.55 703.102 1093.88 704.235 1094.54 705.195C1095.22 706.144 1096.16 706.878 1097.33 707.396C1098.52 707.903 1099.86 708.162 1101.35 708.162C1103.39 708.162 1105.17 707.72 1106.69 706.824C1108.24 705.907 1109.44 704.688 1110.28 703.166C1111.13 701.634 1111.55 699.951 1111.55 698.106V687.543C1111.55 685.99 1111.23 684.662 1110.59 683.53C1109.96 682.407 1109 681.555 1107.72 680.983C1106.47 680.39 1104.94 680.088 1103.14 680.088C1100.93 680.088 1099.07 680.552 1097.57 681.49C1096.08 682.407 1095.13 683.659 1094.7 685.245H1090.18C1090.44 683.443 1091.14 681.857 1092.32 680.498C1093.5 679.138 1095.05 678.092 1096.94 677.347C1098.84 676.603 1100.98 676.236 1103.33 676.236C1105.42 676.236 1107.38 676.57 1109.22 677.25C1111.07 677.93 1112.63 679.138 1113.9 680.875C1115.19 682.612 1115.84 684.965 1115.84 687.91V711.269H1111.54V705.918H1111.29C1110.78 706.975 1110.04 707.979 1109.08 708.907C1108.15 709.824 1106.96 710.568 1105.52 711.162C1104.08 711.755 1102.45 712.057 1100.63 712.057C1098.5 712.057 1096.57 711.647 1094.83 710.816C1093.12 709.986 1091.75 708.777 1090.72 707.191C1089.7 705.594 1089.19 703.728 1089.19 701.591C1089.19 698.214 1090.32 695.743 1092.6 694.179C1094.89 692.582 1098 691.654 1101.92 691.373C1102.88 691.287 1104.98 691.136 1108.25 690.931L1111.94 690.769L1111.98 694.33H1112.01ZM1125.26 676.689H1129.45V682.041H1129.8C1130.54 680.196 1131.71 678.771 1133.31 677.779C1134.91 676.764 1136.85 676.247 1139.1 676.247C1140.64 676.247 1142.02 676.495 1143.23 676.98C1144.44 677.444 1145.49 678.145 1146.35 679.084C1147.23 680.001 1147.92 681.123 1148.42 682.461H1148.71C1149.26 681.167 1150.02 680.066 1150.97 679.149C1151.95 678.21 1153.12 677.509 1154.48 677.013C1155.86 676.505 1157.36 676.247 1159 676.247C1161.17 676.247 1163.02 676.7 1164.56 677.617C1166.14 678.512 1167.35 679.839 1168.2 681.598C1169.05 683.357 1169.47 685.536 1169.47 688.126V711.269H1165.15V688.158C1165.15 685.526 1164.47 683.54 1163.11 682.202C1161.75 680.843 1159.92 680.163 1157.64 680.163C1155.94 680.163 1154.49 680.519 1153.28 681.242C1152.07 681.965 1151.14 682.958 1150.51 684.231C1149.87 685.482 1149.55 686.928 1149.55 688.557V711.248H1145.15V687.727C1145.15 686.216 1144.86 684.889 1144.27 683.745C1143.7 682.58 1142.86 681.684 1141.75 681.069C1140.65 680.454 1139.35 680.142 1137.84 680.142C1136.33 680.142 1134.93 680.519 1133.67 681.285C1132.42 682.051 1131.43 683.119 1130.68 684.501C1129.96 685.86 1129.61 687.414 1129.61 689.183V711.237H1125.28V676.667L1125.26 676.689Z" fill="#00CAFF"/>
<path d="M106.387 800.888C110.584 800.888 114.371 801.772 117.759 803.553C121.137 805.333 123.823 807.793 125.808 810.944C127.794 814.094 128.786 817.709 128.786 821.787C128.786 825.865 127.794 829.307 125.808 832.458C123.823 835.608 121.147 838.079 117.759 839.892C114.382 841.705 110.584 842.6 106.387 842.6C102.19 842.6 98.4029 841.694 95.015 839.892C91.6379 838.09 88.9513 835.608 86.966 832.458C84.9807 829.307 83.988 825.758 83.988 821.787C83.988 817.816 84.9807 814.094 86.966 810.944C88.9513 807.793 91.6271 805.333 95.015 803.553C98.3921 801.772 102.19 800.888 106.387 800.888ZM96.1479 848.362H108.998V870.135H96.1479V848.362ZM96.1479 865.852H152.89V876.08H96.1479V865.852ZM106.387 811.99C104.521 811.99 102.848 812.368 101.359 813.123C99.8703 813.878 98.705 814.979 97.8634 816.403C97.0219 817.827 96.5903 819.629 96.5903 821.776C96.5903 823.923 97.0111 825.639 97.8634 827.063C98.705 828.487 99.8703 829.566 101.359 830.3C102.848 831.034 104.521 831.39 106.387 831.39C108.254 831.39 109.926 831.023 111.415 830.3C112.904 829.577 114.069 828.498 114.911 827.063C115.753 825.639 116.173 823.869 116.173 821.776C116.173 819.683 115.753 817.827 114.911 816.403C114.069 814.979 112.904 813.878 111.415 813.123C109.926 812.368 108.254 811.99 106.387 811.99ZM138.033 795.903H150.97V854.221H138.033V795.903Z" fill="#00CAFF"/>
<path d="M166.367 800.186H197.052V810.07H178.602V834.724H166.356V800.186H166.367ZM166.367 827.818H172.053C175.84 827.818 179.239 827.786 182.238 827.732C185.238 827.678 188.14 827.516 190.934 827.247C193.729 826.977 196.642 826.653 199.674 826.243L200.807 836.04C197.721 836.504 194.7 836.882 191.754 837.173C188.809 837.464 185.755 837.637 182.573 837.702C179.39 837.756 175.883 837.788 172.031 837.788H166.345V827.818H166.367ZM175.106 814.094H194.171V823.449H175.106V814.094ZM177.21 841.543H233.079V863.575H190.06V873.372H177.296V854.577H220.401V851.253H177.21V841.543ZM177.296 867.254H235.528V876.965H177.296V867.254ZM197.667 812.778H209.644V822.834H197.667V812.778ZM204.842 797.133H216.819V838.317H204.842V797.133ZM220.843 795.903H233.089V838.835H220.843V795.903Z" fill="#00CAFF"/>
<path d="M287.21 802.021C291.234 802.021 294.849 802.863 298.053 804.557C301.258 806.251 303.793 808.592 305.66 811.591C307.527 814.591 308.454 818.044 308.454 821.949C308.454 825.855 307.527 829.232 305.66 832.264C303.793 835.296 301.258 837.659 298.053 839.342C294.849 841.036 291.234 841.878 287.21 841.878C283.185 841.878 279.571 841.036 276.366 839.342C273.162 837.648 270.626 835.296 268.76 832.264C266.893 829.232 265.965 825.79 265.965 821.949C265.965 818.108 266.893 814.591 268.76 811.591C270.626 808.592 273.162 806.24 276.366 804.557C279.571 802.863 283.185 802.021 287.21 802.021ZM287.21 809.984C284.879 809.984 282.775 810.48 280.919 811.473C279.053 812.465 277.596 813.846 276.55 815.627C275.503 817.407 274.974 819.522 274.974 821.971C274.974 824.42 275.503 826.535 276.55 828.315C277.596 830.095 279.053 831.477 280.919 832.469C282.786 833.462 284.879 833.958 287.21 833.958C289.54 833.958 291.633 833.462 293.5 832.469C295.367 831.477 296.834 830.095 297.913 828.315C298.992 826.535 299.531 824.42 299.531 821.971C299.531 819.522 298.992 817.407 297.913 815.627C296.834 813.846 295.367 812.465 293.5 811.473C291.633 810.48 289.54 809.984 287.21 809.984ZM278.2 848.805H287.296V870.405H278.2V848.805ZM278.2 867.514H332.591V874.948H278.2V867.514ZM321.132 796.691H330.314V854.663H321.132V796.691Z" fill="white"/>
<path d="M344.999 833.149H417.051V840.496H344.999V833.149ZM380.68 846.797C386.387 846.797 391.351 847.391 395.548 848.588C399.745 849.786 402.993 851.491 405.301 853.703C407.6 855.915 408.754 858.569 408.754 861.655C408.754 864.74 407.6 867.395 405.301 869.617C402.993 871.829 399.745 873.523 395.548 874.688C391.351 875.854 386.398 876.436 380.68 876.436C374.961 876.436 370.009 875.854 365.812 874.688C361.614 873.523 358.367 871.829 356.058 869.617C353.749 867.405 352.605 864.751 352.605 861.655C352.605 858.558 353.76 855.915 356.058 853.703C358.356 851.491 361.614 849.786 365.812 848.588C370.009 847.391 374.961 846.797 380.68 846.797ZM353.306 800.445H404.374V807.793H353.306V800.445ZM380.68 853.789C376.774 853.789 373.407 854.08 370.581 854.663C367.754 855.246 365.585 856.13 364.064 857.328C362.542 858.526 361.787 859.961 361.787 861.655C361.787 863.349 362.542 864.686 364.064 865.852C365.574 867.017 367.754 867.923 370.581 868.56C373.407 869.207 376.774 869.52 380.68 869.52C384.585 869.52 388.027 869.197 390.822 868.56C393.616 867.923 395.785 867.017 397.339 865.852C398.882 864.686 399.659 863.284 399.659 861.655C399.659 860.025 398.882 858.526 397.339 857.328C395.796 856.13 393.627 855.246 390.822 854.663C388.017 854.08 384.639 853.789 380.68 853.789ZM373.332 818.464H382.428V835.166H373.332V818.464ZM399.044 800.445H408.139V807.178C408.139 810.383 408.053 813.695 407.88 817.104C407.708 820.514 407.06 824.29 405.96 828.423L396.95 827.462C397.997 823.33 398.612 819.683 398.785 816.533C398.957 813.382 399.044 810.264 399.044 807.178V800.445Z" fill="white"/>
<path d="M445.644 808.581H452.992V819.77C452.992 824.204 452.463 828.531 451.417 832.75C450.37 836.979 448.838 840.95 446.831 844.683C444.824 848.416 442.418 851.707 439.613 854.566C436.818 857.425 433.722 859.691 430.344 861.385L425.014 854.124C428.1 852.667 430.916 850.714 433.452 848.265C435.987 845.816 438.156 843.032 439.969 839.914C441.771 836.796 443.173 833.516 444.166 830.074C445.159 826.632 445.655 823.201 445.655 819.759V808.57L445.644 808.581ZM427.895 804.557H472.661V812.163H427.895V804.557ZM447.565 808.581H454.912V819.77C454.912 823.093 455.409 826.384 456.401 829.653C457.394 832.922 458.786 836.008 460.598 838.921C462.4 841.835 464.558 844.435 467.072 846.701C469.575 848.977 472.402 850.779 475.553 852.117L470.482 859.378C466.986 857.803 463.835 855.678 461.041 852.991C458.246 850.315 455.84 847.208 453.823 843.68C451.816 840.151 450.262 836.364 449.183 832.307C448.104 828.261 447.565 824.075 447.565 819.759V808.57V808.581ZM481.929 796.691H491.111V876.609H481.929V796.691Z" fill="white"/>
<path d="M505.893 833.332H578.119V840.766H505.893V833.332ZM541.736 846.97C550.368 846.97 557.111 848.254 561.977 850.822C566.843 853.39 569.282 857.004 569.282 861.665C569.282 866.327 566.843 869.941 561.977 872.509C557.111 875.077 550.357 876.361 541.736 876.361C533.115 876.361 526.523 875.077 521.624 872.509C516.726 869.941 514.277 866.327 514.277 861.665C514.277 857.004 516.726 853.39 521.624 850.822C526.523 848.254 533.223 846.97 541.736 846.97ZM515.334 798.093H524.43V821.086H515.334V798.093ZM515.334 817.849H569.897V825.197H515.334V817.849ZM541.822 854.048C537.917 854.048 534.593 854.339 531.853 854.922C529.112 855.505 527.03 856.346 525.606 857.457C524.181 858.569 523.459 859.961 523.459 861.655C523.459 863.349 524.171 864.654 525.606 865.765C527.03 866.877 529.112 867.718 531.853 868.301C534.593 868.884 537.917 869.175 541.822 869.175C545.728 869.175 549.041 868.884 551.749 868.301C554.457 867.718 556.518 866.877 557.91 865.765C559.312 864.654 560.014 863.284 560.014 861.655C560.014 860.025 559.312 858.569 557.91 857.457C556.507 856.346 554.457 855.505 551.749 854.922C549.041 854.339 545.728 854.048 541.822 854.048Z" fill="white"/>
<path d="M610.724 834.81H682.95V842.071H610.724V834.81ZM646.837 798.524C652.609 798.524 657.616 799.15 661.878 800.402C666.129 801.653 669.43 803.412 671.761 805.689C674.092 807.965 675.257 810.706 675.257 813.91C675.257 817.115 674.092 819.866 671.761 822.175C669.43 824.473 666.14 826.254 661.878 827.505C657.627 828.757 652.609 829.383 646.837 829.383C641.065 829.383 636.037 828.757 631.753 827.505C627.47 826.254 624.157 824.473 621.827 822.175C619.496 819.877 618.331 817.115 618.331 813.91C618.331 810.706 619.496 807.965 621.827 805.689C624.157 803.412 627.47 801.653 631.753 800.402C636.037 799.15 641.065 798.524 646.837 798.524ZM646.664 847.757C655.296 847.757 662.04 848.998 666.906 851.469C671.772 853.95 674.21 857.522 674.21 862.183C674.21 866.844 671.772 870.34 666.906 872.854C662.04 875.357 655.285 876.619 646.664 876.619C638.044 876.619 631.376 875.368 626.51 872.854C621.643 870.351 619.205 866.79 619.205 862.183C619.205 857.576 621.633 853.95 626.51 851.469C631.376 848.987 638.098 847.757 646.664 847.757ZM646.837 805.613C642.877 805.613 639.468 805.937 636.609 806.573C633.749 807.21 631.57 808.149 630.048 809.368C628.527 810.587 627.772 812.109 627.772 813.91C627.772 815.712 628.527 817.234 630.048 818.453C631.559 819.672 633.749 820.611 636.609 821.247C639.468 821.895 642.877 822.208 646.837 822.208C650.797 822.208 654.196 821.884 657.022 821.247C659.849 820.611 662.018 819.672 663.539 818.453C665.05 817.234 665.816 815.712 665.816 813.91C665.816 812.109 665.061 810.587 663.539 809.368C662.018 808.149 659.849 807.21 657.022 806.573C654.196 805.937 650.797 805.613 646.837 805.613ZM646.664 854.749C642.813 854.749 639.522 855.029 636.781 855.58C634.041 856.13 631.958 856.961 630.534 858.072C629.11 859.183 628.387 860.554 628.387 862.183C628.387 863.812 629.099 865.096 630.534 866.207C631.958 867.319 634.041 868.15 636.781 868.7C639.522 869.25 642.813 869.531 646.664 869.531C650.516 869.531 653.969 869.25 656.677 868.7C659.385 868.15 661.446 867.319 662.838 866.207C664.241 865.096 664.942 863.758 664.942 862.183C664.942 860.608 664.241 859.183 662.838 858.072C661.435 856.961 659.385 856.13 656.677 855.58C653.969 855.029 650.624 854.749 646.664 854.749Z" fill="white"/>
<path d="M691.172 835.425H763.397V842.686H691.172V835.425ZM727.284 798.007C733.111 798.007 738.16 798.6 742.411 799.798C746.662 800.996 749.942 802.711 752.251 804.955C754.55 807.2 755.704 809.897 755.704 813.048C755.704 816.198 754.55 818.895 752.251 821.14C749.953 823.384 746.673 825.099 742.411 826.297C738.16 827.495 733.111 828.088 727.284 828.088C721.458 828.088 716.398 827.495 712.114 826.297C707.831 825.099 704.54 823.384 702.231 821.14C699.922 818.895 698.778 816.198 698.778 813.048C698.778 809.897 699.933 807.2 702.231 804.955C704.529 802.711 707.831 800.996 712.114 799.798C716.398 798.6 721.458 798.007 727.284 798.007ZM727.112 847.93C735.743 847.93 742.487 849.149 747.353 851.599C752.219 854.048 754.657 857.576 754.657 862.183C754.657 866.79 752.219 870.254 747.353 872.768C742.487 875.271 735.733 876.533 727.112 876.533C718.491 876.533 711.823 875.282 706.957 872.768C702.091 870.265 699.652 866.736 699.652 862.183C699.652 857.63 702.08 854.048 706.957 851.599C711.823 849.149 718.545 847.93 727.112 847.93ZM727.284 804.998C723.325 804.998 719.915 805.322 717.056 805.959C714.197 806.595 712.017 807.502 710.496 808.667C708.974 809.832 708.219 811.289 708.219 813.037C708.219 814.785 708.974 816.166 710.496 817.363C712.006 818.561 714.197 819.478 717.056 820.115C719.915 820.751 723.325 821.075 727.284 821.075C731.244 821.075 734.643 820.751 737.47 820.115C740.297 819.478 742.465 818.55 743.987 817.363C745.497 816.166 746.263 814.731 746.263 813.037C746.263 811.343 745.508 809.832 743.987 808.667C742.465 807.502 740.297 806.595 737.47 805.959C734.643 805.322 731.244 804.998 727.284 804.998ZM708.305 823.535H717.401V838.489H708.305V823.535ZM727.112 854.836C723.26 854.836 719.969 855.116 717.228 855.666C714.488 856.217 712.406 857.037 710.981 858.116C709.557 859.195 708.834 860.554 708.834 862.183C708.834 863.812 709.546 865.172 710.981 866.251C712.406 867.33 714.488 868.15 717.228 868.7C719.969 869.25 723.26 869.531 727.112 869.531C730.964 869.531 734.416 869.25 737.124 868.7C739.833 868.15 741.893 867.33 743.285 866.251C744.688 865.172 745.389 863.823 745.389 862.183C745.389 860.543 744.688 859.195 743.285 858.116C741.883 857.037 739.833 856.227 737.124 855.666C734.416 855.116 731.071 854.836 727.112 854.836ZM737.081 823.535H746.177V838.489H737.081V823.535Z" fill="white"/>
<path d="M790.328 800.974C793.878 800.974 797.028 801.762 799.769 803.337C802.509 804.913 804.667 807.071 806.243 809.811C807.818 812.552 808.605 815.702 808.605 819.252C808.605 822.802 807.818 826.06 806.243 828.822C804.667 831.595 802.509 833.753 799.769 835.296C797.028 836.839 793.878 837.616 790.328 837.616C786.778 837.616 783.692 836.839 780.93 835.296C778.157 833.753 775.999 831.595 774.457 828.822C772.914 826.049 772.137 822.866 772.137 819.252C772.137 815.637 772.914 812.476 774.457 809.768C775.999 807.06 778.157 804.913 780.93 803.337C783.703 801.762 786.832 800.974 790.328 800.974ZM790.328 808.408C788.407 808.408 786.703 808.862 785.214 809.768C783.725 810.674 782.559 811.937 781.718 813.577C780.876 815.206 780.456 817.137 780.456 819.349C780.456 821.561 780.876 823.384 781.718 824.992C782.559 826.6 783.725 827.851 785.214 828.758C786.703 829.664 788.407 830.117 790.328 830.117C792.248 830.117 793.953 829.664 795.442 828.758C796.931 827.851 798.107 826.6 798.981 824.992C799.855 823.384 800.298 821.507 800.298 819.349C800.298 817.191 799.855 815.206 798.981 813.577C798.107 811.947 796.931 810.674 795.442 809.768C793.953 808.862 792.248 808.408 790.328 808.408ZM786.045 843.647H795.14V852.128H830.293V843.647H839.302V875.563H786.055V843.647H786.045ZM795.14 859.292V868.215H830.293V859.292H795.14ZM813.493 798.18H822.146V839.623H813.493V798.18ZM819.438 814.267H833.432V821.701H819.438V814.267ZM830.552 796.691H839.291V840.151H830.552V796.691Z" fill="white"/>
<path d="M876.537 858.688H948.762V866.208H876.537V858.688ZM933.635 826.243V833.062L883.971 835.684L882.751 828.164L933.646 826.243H933.635ZM884.931 804.297H935.469V811.731H884.931V804.297ZM931.628 804.297H940.637V813.825C940.637 817.73 940.584 821.636 940.465 825.542C940.346 829.448 940.055 833.645 939.591 838.133C939.127 842.622 938.275 847.661 937.055 853.26L927.96 852.473C929.179 847.229 930.042 842.406 930.538 838.004C931.035 833.602 931.337 829.415 931.456 825.456C931.574 821.496 931.628 817.612 931.628 813.825V804.297Z" fill="white"/>
<path d="M961.267 803.769H998.599V833.321H970.708V852.991H961.44V826.06H989.245V811.192H961.267V803.758V803.769ZM961.44 850.121H968.259C972.866 850.121 977.279 850.045 981.509 849.905C985.738 849.765 989.946 849.484 994.143 849.074C998.34 848.664 1002.68 848.114 1007.17 847.413L1008.04 854.847C1001.16 856.012 994.575 856.789 988.284 857.166C981.994 857.544 975.315 857.738 968.259 857.738H961.44V850.132V850.121ZM1013.73 796.604H1022.91V876.696H1013.73V796.604Z" fill="white"/>
<path d="M1055.35 802.809C1058.85 802.809 1061.89 803.963 1064.49 806.261C1067.08 808.57 1069.08 811.829 1070.48 816.058C1071.88 820.288 1072.57 825.337 1072.57 831.228C1072.57 837.119 1071.87 842.104 1070.48 846.355C1069.08 850.606 1067.08 853.876 1064.49 856.152C1061.9 858.429 1058.85 859.562 1055.35 859.562C1051.86 859.562 1048.91 858.429 1046.34 856.152C1043.78 853.876 1041.8 850.617 1040.4 846.355C1039 842.104 1038.29 837.055 1038.29 831.228C1038.29 825.402 1039 820.288 1040.4 816.058C1041.8 811.829 1043.8 808.57 1046.39 806.261C1048.98 803.963 1051.96 802.809 1055.35 802.809ZM1055.44 811.472C1053.63 811.472 1052.06 812.228 1050.71 813.749C1049.37 815.27 1048.35 817.493 1047.65 820.439C1046.95 823.384 1046.6 826.956 1046.6 831.153C1046.6 835.35 1046.95 838.932 1047.65 841.91C1048.35 844.877 1049.36 847.143 1050.71 848.686C1052.05 850.229 1053.63 851.006 1055.44 851.006C1057.25 851.006 1058.8 850.239 1060.12 848.686C1061.44 847.143 1062.44 844.877 1063.14 841.91C1063.84 838.932 1064.19 835.35 1064.19 831.153C1064.19 826.956 1063.84 823.384 1063.14 820.439C1062.44 817.493 1061.44 815.27 1060.12 813.749C1058.8 812.239 1057.25 811.472 1055.44 811.472ZM1069.61 826.945H1083.86V834.465H1069.61V826.945ZM1080.88 798.18H1089.45V872.768H1080.88V798.18ZM1096.88 796.604H1105.62V876.523H1096.88V796.604Z" fill="white"/>
<path d="M1141.13 802.463C1145.09 802.463 1148.64 803.628 1151.76 805.959C1154.88 808.29 1157.31 811.559 1159.06 815.756C1160.81 819.953 1161.68 824.906 1161.68 830.624C1161.68 836.342 1160.81 841.392 1159.06 845.622C1157.31 849.851 1154.88 853.11 1151.76 855.419C1148.64 857.717 1145.1 858.871 1141.13 858.871C1137.16 858.871 1133.62 857.717 1130.5 855.419C1127.38 853.12 1124.93 849.851 1123.15 845.622C1121.37 841.392 1120.49 836.396 1120.49 830.624C1120.49 824.852 1121.37 819.953 1123.15 815.756C1124.93 811.559 1127.38 808.29 1130.5 805.959C1133.62 803.628 1137.16 802.463 1141.13 802.463ZM1141.13 810.771C1138.8 810.771 1136.74 811.559 1134.97 813.134C1133.19 814.709 1131.81 816.986 1130.81 819.953C1129.82 822.92 1129.33 826.481 1129.33 830.624C1129.33 834.767 1129.82 838.403 1130.81 841.381C1131.81 844.348 1133.19 846.647 1134.97 848.243C1136.75 849.851 1138.8 850.649 1141.13 850.649C1143.46 850.649 1145.5 849.851 1147.25 848.243C1149 846.636 1150.37 844.348 1151.36 841.381C1152.35 838.403 1152.85 834.821 1152.85 830.624C1152.85 826.427 1152.35 822.931 1151.36 819.953C1150.37 816.975 1149 814.709 1147.25 813.134C1145.5 811.559 1143.46 810.771 1141.13 810.771ZM1174.45 796.604H1183.63V876.696H1174.45V796.604Z" fill="white"/>
<path d="M1201.98 803.596H1238.88V811.116H1211.08V852.915H1201.98V803.596ZM1201.98 850.552H1208.19C1212.97 850.552 1217.29 850.498 1221.17 850.38C1225.04 850.261 1228.76 850.045 1232.31 849.722C1235.86 849.398 1239.51 848.923 1243.24 848.276L1244.12 855.624C1240.26 856.271 1236.52 856.756 1232.88 857.112C1229.24 857.458 1225.42 857.695 1221.43 857.814C1217.43 857.932 1213.02 857.986 1208.18 857.986H1201.97V850.552H1201.98ZM1208.8 825.984H1235.73V833.246H1208.8V825.984ZM1240.2 825.812H1256.73V833.332H1240.2V825.812ZM1255.5 796.604H1264.68V876.696H1255.5V796.604Z" fill="white"/>
<path d="M1325.45 801.233C1329.53 801.233 1333.17 802.053 1336.38 803.683C1339.58 805.312 1342.11 807.556 1343.94 810.415C1345.78 813.275 1346.69 816.565 1346.69 820.299C1346.69 824.032 1345.78 827.323 1343.94 830.182C1342.11 833.041 1339.58 835.285 1336.38 836.915C1333.17 838.544 1329.53 839.364 1325.45 839.364C1321.37 839.364 1317.81 838.544 1314.6 836.915C1311.4 835.285 1308.88 833.041 1307.04 830.182C1305.21 827.323 1304.29 824.032 1304.29 820.299C1304.29 816.565 1305.21 813.275 1307.04 810.415C1308.88 807.556 1311.4 805.312 1314.6 803.683C1317.81 802.053 1321.42 801.233 1325.45 801.233ZM1325.45 808.937C1323.12 808.937 1321.03 809.401 1319.2 810.34C1317.37 811.278 1315.91 812.595 1314.83 814.321C1313.75 816.037 1313.21 818.033 1313.21 820.309C1313.21 822.586 1313.75 824.658 1314.83 826.341C1315.91 828.035 1317.37 829.34 1319.2 830.279C1321.03 831.207 1323.12 831.682 1325.45 831.682C1327.78 831.682 1329.97 831.218 1331.84 830.279C1333.7 829.351 1335.16 828.035 1336.21 826.341C1337.25 824.647 1337.78 822.64 1337.78 820.309C1337.78 817.979 1337.25 816.037 1336.21 814.321C1335.16 812.606 1333.7 811.278 1331.84 810.34C1329.97 809.412 1327.84 808.937 1325.45 808.937ZM1339.87 845.827C1345.35 845.827 1350.08 846.442 1354.04 847.661C1358 848.88 1361.06 850.628 1363.22 852.905C1365.38 855.181 1366.46 857.922 1366.46 861.126C1366.46 864.331 1365.38 867.071 1363.22 869.348C1361.06 871.625 1358 873.372 1354.04 874.592C1350.08 875.811 1345.35 876.426 1339.87 876.426C1334.39 876.426 1329.67 875.811 1325.71 874.592C1321.75 873.372 1318.68 871.625 1316.52 869.348C1314.37 867.071 1313.29 864.331 1313.29 861.126C1313.29 857.922 1314.37 855.181 1316.52 852.905C1318.68 850.628 1321.74 848.88 1325.71 847.661C1329.67 846.442 1334.39 845.827 1339.87 845.827ZM1339.87 853.088C1336.21 853.088 1333.05 853.39 1330.43 854.005C1327.81 854.62 1325.8 855.527 1324.4 856.713C1323 857.911 1322.31 859.378 1322.31 861.126C1322.31 862.874 1323.01 864.363 1324.4 865.582C1325.8 866.802 1327.81 867.73 1330.43 868.334C1333.05 868.938 1336.21 869.251 1339.87 869.251C1343.54 869.251 1346.77 868.949 1349.36 868.334C1351.95 867.719 1353.94 866.802 1355.35 865.582C1356.75 864.363 1357.45 862.874 1357.45 861.126C1357.45 859.378 1356.75 857.911 1355.35 856.713C1353.94 855.516 1351.95 854.609 1349.36 854.005C1346.77 853.401 1343.6 853.088 1339.87 853.088ZM1356.49 796.691H1365.59V843.647H1356.49V796.691ZM1362.88 807.621H1376.6V815.141H1362.88V807.621ZM1362.88 824.755H1376.6V832.361H1362.88V824.755Z" fill="white"/>
<path d="M1403.09 800.974H1410.7V808.754C1410.7 813.997 1409.82 818.885 1408.07 823.395C1406.33 827.905 1403.78 831.843 1400.42 835.199C1397.07 838.554 1392.98 841.133 1388.14 842.935L1383.32 835.501C1387.64 834.044 1391.25 831.962 1394.17 829.254C1397.08 826.546 1399.29 823.406 1400.81 819.856C1402.32 816.306 1403.09 812.595 1403.09 808.754V800.974ZM1423.29 845.924C1431.63 845.924 1438.2 847.262 1443 849.948C1447.81 852.635 1450.22 856.39 1450.22 861.223C1450.22 866.057 1447.81 869.812 1443 872.455C1438.19 875.11 1431.62 876.437 1423.29 876.437C1414.96 876.437 1408.37 875.11 1403.53 872.455C1398.69 869.801 1396.27 866.057 1396.27 861.223C1396.27 856.39 1398.69 852.624 1403.53 849.948C1408.37 847.273 1414.96 845.924 1423.29 845.924ZM1404.93 800.974H1412.37V808.322C1412.37 811.991 1413.08 815.486 1414.52 818.81C1415.94 822.133 1418.05 825.046 1420.86 827.549C1423.65 830.052 1427.06 831.984 1431.09 833.322L1426.28 840.497C1421.73 838.867 1417.85 836.472 1414.65 833.322C1411.44 830.171 1409.02 826.47 1407.38 822.219C1405.75 817.968 1404.93 813.328 1404.93 808.322V800.974ZM1423.29 853.088C1419.5 853.088 1416.27 853.39 1413.63 854.005C1410.98 854.62 1408.95 855.537 1407.56 856.757C1406.16 857.976 1405.46 859.465 1405.46 861.213C1405.46 862.961 1406.16 864.363 1407.56 865.582C1408.96 866.802 1410.98 867.74 1413.63 868.377C1416.29 869.024 1419.5 869.337 1423.29 869.337C1427.07 869.337 1430.28 869.013 1432.91 868.377C1435.53 867.74 1437.56 866.802 1438.99 865.582C1440.41 864.363 1441.13 862.907 1441.13 861.213C1441.13 859.519 1440.42 857.976 1438.99 856.757C1437.56 855.537 1435.53 854.609 1432.91 854.005C1430.29 853.39 1427.09 853.088 1423.29 853.088ZM1424.6 812.519H1442.35V820.04H1424.6V812.519ZM1440.69 796.691H1449.87V843.734H1440.69V796.691Z" fill="white"/>
<path d="M1464.3 859.734L1463.34 852.128C1468.12 852.128 1473.31 852.084 1478.91 851.998C1484.51 851.912 1490.18 851.707 1495.96 851.383C1501.73 851.059 1507.26 850.585 1512.57 849.937L1513.1 856.67C1507.62 857.544 1502.01 858.202 1496.27 858.634C1490.53 859.076 1484.95 859.346 1479.52 859.465C1474.11 859.583 1469.02 859.67 1464.31 859.724L1464.3 859.734ZM1467.62 804.999H1502.95V812.433H1467.62V804.999ZM1479.08 827.905H1488.09V855.008H1479.08V827.905ZM1499.28 804.999H1508.29V810.329C1508.29 813.825 1508.2 818.14 1508.03 823.266C1507.86 828.391 1507.19 834.487 1506.02 841.543L1497.01 840.755C1498.12 833.936 1498.77 828.035 1498.98 823.05C1499.18 818.065 1499.28 813.825 1499.28 810.329V804.999ZM1516.94 796.604H1526.04V876.523H1516.94V796.604ZM1523.42 829.48H1537.93V837.087H1523.42V829.48Z" fill="white"/>
<path d="M1564.07 804.74H1571.59V810.512C1571.59 815.53 1570.7 820.234 1568.93 824.636C1567.15 829.038 1564.6 832.912 1561.28 836.267C1557.95 839.623 1553.93 842.137 1549.21 843.831L1544.58 836.569C1547.67 835.458 1550.43 834.001 1552.85 832.199C1555.27 830.398 1557.33 828.326 1559.01 825.995C1560.7 823.665 1561.97 821.183 1562.82 818.561C1563.66 815.94 1564.08 813.253 1564.08 810.512V804.74H1564.07ZM1547.2 802.021H1589.95V809.455H1547.2V802.021ZM1584.18 846.355C1589.78 846.355 1594.57 846.949 1598.56 848.146C1602.56 849.344 1605.64 851.06 1607.83 853.304C1610.02 855.548 1611.11 858.278 1611.11 861.482C1611.11 866.262 1608.71 869.963 1603.89 872.585C1599.08 875.207 1592.51 876.523 1584.18 876.523C1575.85 876.523 1569.26 875.207 1564.43 872.585C1559.58 869.963 1557.16 866.262 1557.16 861.482C1557.16 858.278 1558.25 855.548 1560.44 853.304C1562.64 851.06 1565.75 849.344 1569.8 848.146C1573.85 846.949 1578.65 846.355 1584.18 846.355ZM1565.9 804.74H1573.34V810.512C1573.34 813.782 1574.06 816.986 1575.53 820.137C1576.99 823.287 1579.11 826.093 1581.92 828.574C1584.71 831.056 1588.12 833.019 1592.14 834.476L1587.6 841.651C1583 840.022 1579.08 837.648 1575.84 834.53C1572.6 831.412 1570.14 827.765 1568.45 823.6C1566.76 819.435 1565.92 815.076 1565.92 810.523V804.751L1565.9 804.74ZM1584.18 853.347C1580.39 853.347 1577.17 853.671 1574.53 854.307C1571.87 854.944 1569.84 855.85 1568.45 857.015C1567.05 858.181 1566.36 859.67 1566.36 861.472C1566.36 863.166 1567.06 864.622 1568.45 865.841C1569.85 867.061 1571.87 867.988 1574.53 868.593C1577.18 869.208 1580.39 869.51 1584.18 869.51C1587.97 869.51 1591.17 869.208 1593.81 868.593C1596.43 867.978 1598.46 867.061 1599.88 865.841C1601.31 864.622 1602.03 863.166 1602.03 861.472C1602.03 859.67 1601.32 858.181 1599.88 857.015C1598.46 855.85 1596.43 854.944 1593.81 854.307C1591.18 853.671 1587.98 853.347 1584.18 853.347ZM1587.51 816.716H1604.29V824.237H1587.51V816.716ZM1601.57 796.691H1610.76V844.251H1601.57V796.691Z" fill="white"/>
<path d="M1662.61 801.848H1673.01V812.951C1673.01 818.194 1672.6 823.298 1671.79 828.25C1670.97 833.203 1669.68 837.81 1667.9 842.061C1666.12 846.312 1663.83 850.078 1661.04 853.336C1658.24 856.605 1654.83 859.227 1650.81 861.202L1642.86 850.887C1646.41 849.258 1649.44 847.1 1651.95 844.413C1654.45 841.737 1656.49 838.684 1658.07 835.274C1659.64 831.865 1660.8 828.261 1661.52 824.474C1662.24 820.687 1662.61 816.835 1662.61 812.929V801.827V801.848ZM1665.32 801.848H1675.55V812.951C1675.55 816.856 1675.87 820.676 1676.51 824.409C1677.14 828.142 1678.21 831.627 1679.7 834.853C1681.19 838.09 1683.15 840.971 1685.6 843.507C1688.05 846.042 1691 848.071 1694.44 849.581L1686.83 859.81C1682.87 857.943 1679.51 855.44 1676.73 852.289C1673.96 849.139 1671.75 845.514 1670.09 841.403C1668.43 837.292 1667.22 832.825 1666.46 827.98C1665.71 823.147 1665.33 818.13 1665.33 812.94V801.837L1665.32 801.848ZM1685.43 820.741H1706.59V831.056H1685.43V820.741ZM1700.21 795.73H1712.98V877.569H1700.21V795.73Z" fill="white"/>
<path d="M1724.69 827.204H1798.41V837.346H1724.69V827.204ZM1761.6 796.604C1770.98 796.604 1778.28 797.781 1783.5 800.143C1788.71 802.506 1791.32 805.905 1791.32 810.329C1791.32 814.753 1788.71 818.259 1783.5 820.644C1778.28 823.039 1770.98 824.226 1761.6 824.226C1752.21 824.226 1744.9 823.028 1739.69 820.644C1734.47 818.259 1731.87 814.817 1731.87 810.329C1731.87 805.84 1734.48 802.506 1739.69 800.143C1744.9 797.781 1752.21 796.604 1761.6 796.604ZM1733 841.985H1789.57V863.672H1745.77V870.146H1733.09V854.847H1776.89V851.523H1733V841.996V841.985ZM1733.09 867.341H1791.68V876.965H1733.09V867.341ZM1761.6 805.873C1757.81 805.873 1754.7 806.035 1752.28 806.358C1749.87 806.682 1748.09 807.157 1746.95 807.804C1745.82 808.441 1745.25 809.293 1745.25 810.34C1745.25 811.451 1745.82 812.336 1746.95 813.005C1748.09 813.674 1749.87 814.159 1752.28 814.45C1754.7 814.742 1757.81 814.882 1761.6 814.882C1765.38 814.882 1768.47 814.742 1770.86 814.45C1773.25 814.159 1775.03 813.674 1776.19 813.005C1777.36 812.336 1777.94 811.451 1777.94 810.34C1777.94 809.293 1777.36 808.451 1776.19 807.804C1775.03 807.167 1773.25 806.682 1770.86 806.358C1768.47 806.035 1765.38 805.873 1761.6 805.873ZM1755.03 834.81H1767.89V845.827H1755.03V834.81Z" fill="white"/>
<path d="M1569.13 276.74H1728.96C1733.05 276.74 1736.38 273.42 1736.38 269.32V180.2C1736.38 176.1 1733.05 172.78 1728.96 172.78H1519.89C1516.64 172.78 1513.54 174.11 1511.3 176.46L1452.94 237.78L1394.58 176.46C1392.34 174.11 1389.24 172.78 1385.99 172.78H1192.55C1189.3 172.78 1186.19 174.12 1183.95 176.48L1128.89 234.51C1126.8 236.71 1125.64 239.63 1125.64 242.67V492.72C1125.64 496.82 1128.96 500.14 1133.06 500.14H1222.18C1226.28 500.14 1229.6 496.82 1229.6 492.72V290.42C1229.6 283.66 1235.08 278.18 1241.84 278.18H1336.79C1343.55 278.18 1349.03 283.66 1349.03 290.42V492.72C1349.03 496.82 1352.35 500.14 1356.45 500.14H1445.57C1449.67 500.14 1452.99 496.82 1452.99 492.72V435.28L1511.3 496.46C1513.53 498.81 1516.63 500.14 1519.88 500.14H1728.95C1733.04 500.14 1736.37 496.82 1736.37 492.72V403.6C1736.37 399.5 1733.04 396.18 1728.95 396.18H1569.12C1562.36 396.18 1556.88 390.7 1556.88 383.94V289C1556.88 282.24 1562.36 276.76 1569.12 276.76" fill="white"/>
<path d="M195.59 198.9H142.72V251.77H195.59V198.9Z" fill="#00CAFF"/>
<path d="M194.21 283.8H144.11V473.99H194.21V283.8ZM526.32 475.93V429.29C518.94 429.25 512.84 428.85 508.19 428.12C503.02 427.3 499.06 425.55 496.43 422.9C493.78 420.27 492.03 416.44 491.21 411.54C490.42 406.85 490.04 400.67 490.04 393.17V326.64H526.32V283.79H490.04V209.69H439.94V393.56C439.94 409.06 441.29 422.25 443.94 432.77C446.58 443.16 451.07 451.65 457.29 458C463.52 464.36 471.74 468.97 481.75 471.72C491.85 474.51 504.71 475.92 519.98 475.92H526.31L526.32 475.93ZM813.49 195.05H763.39V474.01H813.49V195.05ZM391.63 302.53C377.75 287.55 358.14 279.95 333.35 279.95C321.39 279.95 310.34 282.41 300.48 287.27C290.62 292.13 282.25 298.95 275.58 307.56L272.85 311.08L272.83 307.91V283.8H223.41V474H273.21V372.67L273.25 379.7C273.25 378.53 273.27 377.4 273.31 376.28C273.82 358.5 278.25 345.25 286.52 336.83C295.33 327.87 306.03 323.32 318.31 323.32C332.77 323.32 343.8 327.74 351.11 336.48C358.27 345.05 361.93 357.31 362 372.94V474.01H412.56V366.04C412.56 338.93 405.51 317.57 391.6 302.54M737.28 378.51C737.28 364.87 734.84 351.93 730.04 340.05C725.24 328.18 718.46 317.62 709.87 308.65C701.29 299.7 690.86 292.6 678.87 287.55C666.88 282.5 653.49 279.94 639.08 279.94C625.45 279.94 612.45 282.56 600.46 287.73C588.45 292.91 577.89 300.03 569.05 308.87C560.2 317.71 553.1 328.28 547.92 340.28C542.74 352.27 540.12 365.26 540.12 378.9C540.12 392.54 542.62 405.55 547.54 417.55C552.47 429.56 559.39 440.12 568.09 448.94C576.8 457.78 587.49 464.88 599.87 470.06C612.25 475.24 625.97 477.86 640.63 477.86C683.02 477.86 709.46 458.58 725.24 440.53L689.19 413.07C681.59 422.08 663.55 434.31 641.02 434.31C626.88 434.31 615.25 431.04 606.43 424.59C597.6 418.13 591.52 409.25 588.35 398.19L587.85 396.42H737.28V378.51ZM588.26 361.07C588.24 347.15 604.24 322.83 638.7 322.8C673.16 322.8 689.18 347.09 689.18 361.01L588.26 361.07Z" fill="white"/>
<path d="M870.55 447.68C869.57 445.44 868.24 443.48 866.56 441.8C864.88 440.12 862.92 438.79 860.67 437.81C858.43 436.83 856.03 436.34 853.47 436.34C850.91 436.34 848.51 436.84 846.26 437.81C844.02 438.79 842.06 440.13 840.38 441.8C838.7 443.48 837.37 445.44 836.39 447.68C835.41 449.93 834.92 452.33 834.92 454.89C834.92 457.45 835.41 459.85 836.39 462.09C837.37 464.34 838.71 466.3 840.38 467.98C842.06 469.66 844.02 470.99 846.26 471.97C848.51 472.95 850.91 473.44 853.47 473.44C856.03 473.44 858.43 472.95 860.67 471.97C862.92 470.99 864.88 469.66 866.56 467.98C868.24 466.3 869.57 464.34 870.55 462.09C871.53 459.85 872.02 457.45 872.02 454.89C872.02 452.33 871.53 449.93 870.55 447.68ZM867.54 460.82C866.74 462.69 865.65 464.31 864.27 465.69C862.9 467.07 861.27 468.15 859.41 468.96C857.55 469.75 855.57 470.15 853.48 470.15C851.39 470.15 849.4 469.75 847.54 468.96C845.68 468.16 844.06 467.07 842.68 465.69C841.3 464.31 840.22 462.69 839.41 460.82C838.62 458.96 838.21 456.98 838.21 454.89C838.21 452.8 838.62 450.81 839.41 448.95C840.21 447.09 841.3 445.47 842.68 444.09C844.06 442.71 845.68 441.63 847.54 440.82C849.4 440.03 851.39 439.62 853.48 439.62C855.57 439.62 857.55 440.03 859.41 440.82C861.27 441.62 862.9 442.71 864.27 444.09C865.65 445.47 866.74 447.09 867.54 448.95C868.33 450.81 868.73 452.8 868.73 454.89C868.73 456.98 868.33 458.96 867.54 460.82ZM856.96 456.38C858.41 456.21 859.61 455.66 860.57 454.73C861.52 453.8 862 452.4 862 450.54C862 448.48 861.4 446.9 860.18 445.8C858.96 444.7 857.08 444.15 854.52 444.15H846.34V465.34H850.23V456.67H853.07L858.35 465.34H862.44L856.95 456.37L856.96 456.38ZM854.87 453.32C854.27 453.37 853.67 453.39 853.08 453.39H850.24V447.46H853.08C853.68 447.46 854.27 447.46 854.87 447.5C855.47 447.53 856 447.65 856.49 447.85C856.97 448.06 857.36 448.35 857.66 448.75C857.97 449.15 858.11 449.7 858.11 450.4C858.11 451.1 857.96 451.65 857.66 452.05C857.36 452.45 856.97 452.75 856.49 452.95C856 453.15 855.46 453.27 854.87 453.32Z" fill="white"/>
<path d="M971.95 336.45L1001.85 306.56L999.09 303.8L969.19 333.69L939.3 303.8L936.54 306.56L966.43 336.45L936.54 366.35L939.3 369.1L969.19 339.21L999.09 369.1L1001.85 366.35L971.95 336.45Z" fill="white"/>
</svg>
