<svg width="1880" height="1056" viewBox="0 0 1880 1056" fill="none" xmlns="http://www.w3.org/2000/svg">
<path d="M1879.1 0H0V1055.84H1879.1V0Z" fill="#101A2C"/>
<path d="M289.06 593.55C280.97 593.55 273.4 592.15 266.34 589.36C259.28 586.57 253.04 582.41 247.63 576.89C242.22 571.37 237.98 564.53 234.9 556.39C231.82 548.25 230.29 538.88 230.29 528.29C230.29 517.7 231.88 508.47 235.07 500.27C238.26 492.07 242.61 485.12 248.14 479.43C253.66 473.73 260.01 469.41 267.19 466.44C274.37 463.48 281.99 462 290.08 462C298.17 462 305.57 463.65 311.95 466.95C318.33 470.26 323.62 474.07 327.84 478.4L313.32 496.17C310.13 493.09 306.71 490.62 303.07 488.74C299.42 486.86 295.21 485.92 290.43 485.92C284.62 485.92 279.3 487.57 274.46 490.87C269.62 494.17 265.8 498.93 263.01 505.13C260.22 511.34 258.82 518.77 258.82 527.42C258.82 536.07 260.13 543.74 262.75 550.06C265.37 556.38 269.01 561.19 273.68 564.49C278.35 567.8 283.82 569.44 290.08 569.44C295.32 569.44 300.04 568.27 304.26 565.94C308.47 563.61 312.12 560.73 315.19 557.31L329.88 574.91C324.64 581.06 318.58 585.7 311.68 588.83C304.79 591.96 297.24 593.53 289.04 593.53L289.06 593.55Z" fill="white"/>
<path d="M392.76 593.55C381.48 593.55 371.52 590.9 362.86 585.6C354.2 580.3 347.46 572.67 342.62 562.71C337.78 552.74 335.36 540.87 335.36 527.09C335.36 513.31 337.78 501.55 342.62 491.81C347.46 482.07 354.21 474.67 362.86 469.6C371.51 464.53 381.48 462 392.76 462C404.04 462 414.14 464.56 422.74 469.69C431.34 474.81 438.06 482.22 442.9 491.9C447.74 501.58 450.16 513.31 450.16 527.1C450.16 540.89 447.74 552.75 442.9 562.72C438.06 572.69 431.34 580.32 422.74 585.61C414.14 590.91 404.14 593.56 392.76 593.56V593.55ZM392.76 569.46C398.68 569.46 403.81 567.73 408.14 564.25C412.47 560.78 415.83 555.88 418.22 549.56C420.61 543.24 421.81 535.75 421.81 527.09C421.81 518.43 420.61 511.17 418.22 504.97C415.83 498.76 412.47 494.03 408.14 490.79C403.81 487.54 398.69 485.92 392.76 485.92C386.83 485.92 381.71 487.54 377.38 490.79C373.05 494.04 369.72 498.76 367.39 504.97C365.05 511.18 363.89 518.55 363.89 527.09C363.89 535.63 365.06 543.23 367.39 549.56C369.72 555.88 373.05 560.78 377.38 564.25C381.71 567.73 386.83 569.46 392.76 569.46Z" fill="white"/>
<path d="M474.43 591.16V464.22H504.84L525.68 521.45C526.93 525.21 528.19 529.08 529.44 533.07C530.69 537.06 531.89 541.04 533.03 545.03H533.88C535.13 541.04 536.36 537.06 537.55 533.07C538.74 529.08 539.97 525.21 541.22 521.45L561.38 464.22H591.96V591.16H566.5V542.98C566.5 538.88 566.73 534.3 567.18 529.23C567.64 524.16 568.15 519.07 568.72 513.94C569.29 508.81 569.8 504.2 570.26 500.1H569.41L558.99 530.17L540.71 580.06H524.99L506.71 530.17L496.46 500.1H495.78C496.35 504.2 496.89 508.81 497.4 513.94C497.91 519.06 498.37 524.16 498.77 529.23C499.17 534.3 499.37 538.88 499.37 542.98V591.16H474.43Z" fill="white"/>
<path d="M622.21 591.16V464.22H652.62L673.46 521.45C674.71 525.21 675.97 529.08 677.22 533.07C678.47 537.06 679.67 541.04 680.81 545.03H681.66C682.91 541.04 684.14 537.06 685.33 533.07C686.52 529.08 687.75 525.21 689 521.45L709.16 464.22H739.74V591.16H714.28V542.98C714.28 538.88 714.51 534.3 714.96 529.23C715.42 524.16 715.93 519.07 716.5 513.94C717.07 508.81 717.58 504.2 718.04 500.1H717.19L706.77 530.17L688.49 580.06H672.77L654.49 530.17L644.24 500.1H643.56C644.13 504.2 644.67 508.81 645.18 513.94C645.69 519.06 646.15 524.16 646.55 529.23C646.95 534.3 647.15 538.88 647.15 542.98V591.16H622.21Z" fill="white"/>
<path d="M769.99 591.16V464.22H797.84V591.16H769.99Z" fill="white"/>
<path d="M828.07 591.16V464.22H856.43L890.6 528.46L903.24 556.31H904.09C903.29 549.59 902.47 542.16 901.61 534.01C900.76 525.87 900.33 518.04 900.33 510.52V464.22H926.81V591.16H898.45L864.45 526.58L851.81 499.25H850.96C851.53 506.08 852.27 513.49 853.18 521.46C854.09 529.44 854.55 537.18 854.55 544.69V591.16H828.07Z" fill="white"/>
<path d="M1013.09 593.55C1001.47 593.55 991.02 591.07 981.74 586.12C972.46 581.17 965.05 573.85 959.53 564.17C954 554.49 951.24 542.53 951.24 528.29C951.24 517.81 952.86 508.47 956.11 500.27C959.36 492.07 963.8 485.12 969.44 479.43C975.08 473.73 981.6 469.41 989 466.44C996.4 463.48 1004.38 462 1012.92 462C1022.14 462 1030.03 463.68 1036.58 467.04C1043.13 470.4 1048.51 474.19 1052.73 478.4L1038.04 496.17C1034.85 493.21 1031.4 490.76 1027.7 488.82C1024 486.89 1019.36 485.92 1013.78 485.92C1007.17 485.92 1001.31 487.57 996.18 490.87C991.05 494.17 987.04 498.93 984.13 505.13C981.23 511.34 979.77 518.77 979.77 527.42C979.77 536.07 981.11 543.74 983.79 550.06C986.46 556.38 990.51 561.19 995.92 564.49C1001.33 567.8 1008.02 569.44 1015.99 569.44C1018.73 569.44 1021.34 569.1 1023.85 568.42C1026.36 567.73 1028.41 566.77 1030 565.52V542.8H1008.64V519.91H1054.77V578.17C1050.44 582.38 1044.61 586 1037.26 589.02C1029.91 592.04 1021.86 593.55 1013.09 593.55Z" fill="white"/>
<path d="M1158.82 593.55C1150.39 593.55 1142.08 591.98 1133.88 588.85C1125.68 585.72 1118.39 581.19 1112.01 575.27L1127.9 555.96C1132.34 560.06 1137.38 563.34 1143.02 565.79C1148.66 568.24 1154.1 569.46 1159.34 569.46C1165.49 569.46 1170.07 568.29 1173.09 565.96C1176.11 563.63 1177.62 560.52 1177.62 556.65C1177.62 553.8 1176.85 551.52 1175.31 549.81C1173.77 548.1 1171.64 546.56 1168.9 545.2C1166.17 543.83 1162.92 542.41 1159.16 540.93L1142.59 533.93C1138.26 532.11 1134.13 529.69 1130.21 526.67C1126.28 523.66 1123.09 519.9 1120.64 515.4C1118.19 510.9 1116.97 505.63 1116.97 499.6C1116.97 492.54 1118.88 486.16 1122.69 480.47C1126.5 474.77 1131.8 470.28 1138.58 466.97C1145.35 463.67 1153.13 462.02 1161.9 462.02C1169.3 462.02 1176.56 463.42 1183.68 466.21C1190.8 469 1197.03 473.13 1202.39 478.6L1188.38 496.02C1184.28 492.83 1180.12 490.36 1175.91 488.59C1171.7 486.82 1167.03 485.94 1161.9 485.94C1156.77 485.94 1152.73 486.99 1149.77 489.1C1146.81 491.21 1145.33 494.08 1145.33 497.73C1145.33 500.46 1146.18 502.71 1147.89 504.48C1149.6 506.25 1151.9 507.79 1154.81 509.1C1157.72 510.41 1161.05 511.8 1164.8 513.28L1181.03 519.94C1186.15 521.99 1190.6 524.58 1194.35 527.71C1198.11 530.84 1201.01 534.57 1203.06 538.9C1205.11 543.23 1206.14 548.41 1206.14 554.45C1206.14 561.51 1204.29 568.01 1200.59 573.93C1196.89 579.85 1191.48 584.61 1184.36 588.19C1177.24 591.78 1168.73 593.57 1158.82 593.57V593.55Z" fill="white"/>
<path d="M1279.26 593.55C1267.99 593.55 1258.02 590.9 1249.36 585.6C1240.7 580.3 1233.96 572.67 1229.11 562.71C1224.26 552.75 1221.85 540.87 1221.85 527.09C1221.85 513.31 1224.27 501.55 1229.11 491.81C1233.95 482.07 1240.7 474.67 1249.36 469.6C1258.02 464.53 1267.98 462 1279.26 462C1290.54 462 1300.64 464.56 1309.24 469.69C1317.84 474.81 1324.56 482.22 1329.4 491.9C1334.24 501.58 1336.66 513.31 1336.66 527.1C1336.66 540.89 1334.24 552.75 1329.4 562.72C1324.56 572.69 1317.84 580.32 1309.24 585.61C1300.64 590.91 1290.64 593.56 1279.26 593.56V593.55ZM1279.26 569.46C1285.18 569.46 1290.31 567.73 1294.64 564.25C1298.97 560.78 1302.33 555.88 1304.72 549.56C1307.11 543.24 1308.31 535.75 1308.31 527.09C1308.31 518.43 1307.11 511.17 1304.72 504.97C1302.33 498.77 1298.97 494.03 1294.64 490.79C1290.31 487.54 1285.18 485.92 1279.26 485.92C1273.34 485.92 1268.21 487.54 1263.89 490.79C1259.56 494.04 1256.23 498.76 1253.89 504.97C1251.55 511.18 1250.39 518.55 1250.39 527.09C1250.39 535.63 1251.56 543.23 1253.89 549.56C1256.22 555.88 1259.55 560.78 1263.89 564.25C1268.22 567.73 1273.34 569.46 1279.26 569.46Z" fill="white"/>
<path d="M1412.18 593.55C1400.91 593.55 1390.94 590.9 1382.28 585.6C1373.62 580.3 1366.88 572.67 1362.03 562.71C1357.19 552.74 1354.77 540.87 1354.77 527.09C1354.77 513.31 1357.19 501.55 1362.03 491.81C1366.87 482.07 1373.62 474.67 1382.28 469.6C1390.94 464.53 1400.9 462 1412.18 462C1423.46 462 1433.56 464.56 1442.16 469.69C1450.76 474.81 1457.48 482.22 1462.32 491.9C1467.16 501.58 1469.58 513.31 1469.58 527.1C1469.58 540.89 1467.16 552.75 1462.32 562.72C1457.48 572.69 1450.76 580.32 1442.16 585.61C1433.56 590.91 1423.56 593.56 1412.18 593.56V593.55ZM1412.18 569.46C1418.1 569.46 1423.23 567.73 1427.56 564.25C1431.89 560.78 1435.25 555.88 1437.64 549.56C1440.03 543.24 1441.23 535.75 1441.23 527.09C1441.23 518.43 1440.03 511.17 1437.64 504.97C1435.25 498.76 1431.89 494.03 1427.56 490.79C1423.23 487.54 1418.1 485.92 1412.18 485.92C1406.26 485.92 1401.13 487.54 1396.81 490.79C1392.48 494.04 1389.15 498.76 1386.81 504.97C1384.47 511.18 1383.31 518.55 1383.31 527.09C1383.31 535.63 1384.48 543.23 1386.81 549.56C1389.14 555.88 1392.47 560.78 1396.81 564.25C1401.14 567.73 1406.26 569.46 1412.18 569.46Z" fill="white"/>
<path d="M1493.84 591.16V464.22H1522.2L1556.37 528.46L1569.01 556.31H1569.86C1569.06 549.59 1568.24 542.16 1567.38 534.01C1566.53 525.87 1566.1 518.04 1566.1 510.52V464.22H1592.58V591.16H1564.22L1530.22 526.58L1517.58 499.25H1516.73C1517.3 506.08 1518.04 513.49 1518.95 521.46C1519.86 529.44 1520.32 537.18 1520.32 544.69V591.16H1493.84Z" fill="white"/>
</svg>
