<?xml version="1.0" encoding="UTF-8"?>
<svg id="_레이어_2" data-name="레이어 2" xmlns="http://www.w3.org/2000/svg" viewBox="0 0 195.67 207.45">
  <defs>
    <style>
      .cls-1 {
        fill: #233455;
      }
    </style>
  </defs>
  <g id="_레이어_2-2" data-name=" 레이어 2">
    <g id="_레이어_1-2" data-name=" 레이어 1-2">
      <g>
        <g>
          <g>
            <path class="cls-1" d="M171.16,207.45h0c-13.42,0-24.3-10.88-24.3-24.3v-102.33c0-13.42,10.88-24.3,24.3-24.3h0c13.42,0,24.3,10.88,24.3,24.3v102.33c0,13.42-10.88,24.3-24.3,24.3Z"/>
            <path class="cls-1" d="M81.19,170.32h0c-9.49-9.49-9.49-24.88,0-34.37l72.36-72.36c9.49-9.49,24.88-9.49,34.37,0h0c9.49,9.49,9.49,24.88,0,34.37l-72.36,72.36c-9.49,9.49-24.88,9.49-34.37,0Z"/>
          </g>
          <g>
            <path class="cls-1" d="M24.51,56.52h0c13.42,0,24.3,10.88,24.3,24.3v102.33c0,13.42-10.88,24.3-24.3,24.3h0c-13.42,0-24.3-10.88-24.3-24.3v-102.33c0-13.42,10.88-24.3,24.3-24.3Z"/>
            <path class="cls-1" d="M7.76,63.61h0c9.49-9.49,24.88-9.49,34.37,0l72.36,72.36c9.49,9.49,9.49,24.88,0,34.37h0c-9.49,9.49-24.88,9.49-34.37,0L7.76,97.98c-9.49-9.49-9.49-24.88,0-34.37Z"/>
          </g>
        </g>
        <g>
          <circle class="cls-1" cx="24.37" cy="24.37" r="24.37"/>
          <circle class="cls-1" cx="171.3" cy="24.37" r="24.37"/>
        </g>
      </g>
    </g>
  </g>
</svg>