<?xml version="1.0" encoding="UTF-8"?>
<svg id="_레이어_2" data-name="레이어 2" xmlns="http://www.w3.org/2000/svg" viewBox="0 0 376.53 64.24">
  <defs>
    <style>
      .cls-1 {
        fill: #233455;
      }

      .cls-2 {
        fill: #c0dae2;
      }
    </style>
  </defs>
  <g id="_레이어_1-2" data-name="레이어 1">
    <g>
      <g>
        <g>
          <g>
            <rect class="cls-2" x="45.47" y="17.5" width="15.05" height="46.74" rx="7.52" ry="7.52" transform="translate(106 81.74) rotate(-180)"/>
            <rect class="cls-2" x="34.14" y="12.85" width="15.05" height="46.74" rx="7.52" ry="7.52" transform="translate(45.51 91.29) rotate(-135)"/>
          </g>
          <g>
            <rect class="cls-1" x=".07" y="17.5" width="15.05" height="46.74" rx="7.52" ry="7.52"/>
            <rect class="cls-1" x="11.4" y="12.85" width="15.05" height="46.74" rx="7.52" ry="7.52" transform="translate(-20.07 23.99) rotate(-45)"/>
          </g>
        </g>
        <g>
          <circle class="cls-2" cx="7.55" cy="7.55" r="7.55"/>
          <circle class="cls-1" cx="53.04" cy="7.55" r="7.55"/>
        </g>
      </g>
      <g>
        <path class="cls-1" d="M76.3,20.59h0c2.32,0,4.2,1.88,4.2,4.2v28.42c0,2.32-1.88,4.2-4.2,4.2h0c-2.32,0-4.2-1.88-4.2-4.2v-28.42c0-2.32,1.88-4.2,4.2-4.2Z"/>
        <path class="cls-1" d="M92.34,20.59h3.83c1.32,0,2.55.71,3.21,1.85l12.93,22.39v-20.54c0-2.05,1.66-3.71,3.71-3.71h0c2.05,0,3.71,1.66,3.71,3.71v29.4c0,2.05-1.66,3.71-3.71,3.71h-2.51c-1.32,0-2.53-.7-3.2-1.83l-14.27-24.37v22.5c0,2.05-1.66,3.71-3.71,3.71h0c-2.05,0-3.71-1.66-3.71-3.71v-29.4c0-2.05,1.66-3.71,3.71-3.71Z"/>
        <path class="cls-1" d="M127.65,23.89c0-1.82,1.48-3.29,3.29-3.29h8.75c12.92,0,19.3,7,19.3,18.02v.41c0,11.02-6.43,18.38-19.36,18.38h-8.7c-1.82,0-3.29-1.48-3.29-3.29v-30.22ZM139.39,50.91c7.41,0,10.91-4.17,10.91-11.79v-.41c0-7.57-3.24-11.63-11.02-11.63h-3.29v23.83h3.4Z"/>
      </g>
      <g>
        <path class="cls-2" d="M165.28,39.23v-.41c0-11.17,7.82-18.79,18.28-18.79,6.73,0,12.14,2.49,14.74,7.66,1.32,2.62-.67,5.72-3.6,5.72h-.26c-1.64,0-3.14-.99-3.75-2.52-1.11-2.8-3.42-4.28-7.08-4.28-5.82,0-9.52,4.53-9.52,12.15v.41c0,7.62,3.5,12.05,9.58,12.05,3.71,0,6.51-1.52,7.79-4.61.62-1.48,2.07-2.44,3.67-2.44h0c2.93,0,4.89,3.06,3.61,5.7-2.6,5.36-8.05,8.1-14.98,8.1-12.05,0-18.48-7.41-18.48-18.74Z"/>
        <path class="cls-2" d="M215.71,20.59h7.7c.95,0,1.78.61,2.07,1.51l10.53,32.45c.46,1.41-.59,2.85-2.07,2.85h-4.09c-.96,0-1.8-.62-2.08-1.54l-2.05-6.65h-13.33l-2.05,6.65c-.28.91-1.13,1.54-2.08,1.54h-3.2c-1.48,0-2.54-1.45-2.07-2.86l10.66-32.45c.29-.89,1.13-1.5,2.07-1.5ZM214.18,43.3h9.73s-4.84-15.91-4.84-15.91l-4.89,15.91Z"/>
        <path class="cls-2" d="M244.15,20.59h6.24c.78,0,1.5.42,1.89,1.09l13.37,23.16v-22.07c0-1.2.98-2.18,2.18-2.18h3.05c1.2,0,2.18.98,2.18,2.18v32.45c0,1.2-.98,2.18-2.18,2.18h-4.91c-.77,0-1.49-.41-1.88-1.08l-14.71-25.12v24.02c0,1.2-.98,2.18-2.18,2.18h-3.05c-1.2,0-2.18-.98-2.18-2.18V22.77c0-1.2.98-2.18,2.18-2.18Z"/>
        <path class="cls-2" d="M281.03,20.59h4.17c.96,0,1.8.62,2.08,1.54l8.28,26.73,8.28-26.73c.28-.91,1.13-1.54,2.08-1.54h3.19c1.49,0,2.54,1.46,2.07,2.87l-10.8,32.45c-.3.89-1.13,1.49-2.07,1.49h-6.43c-.94,0-1.77-.6-2.07-1.49l-10.85-32.45c-.47-1.41.58-2.87,2.07-2.87Z"/>
        <path class="cls-2" d="M324.11,20.59h7.7c.95,0,1.78.61,2.07,1.51l10.53,32.45c.46,1.41-.59,2.85-2.07,2.85h-4.09c-.96,0-1.8-.62-2.08-1.54l-2.05-6.65h-13.33l-2.05,6.65c-.28.91-1.13,1.54-2.08,1.54h-3.2c-1.48,0-2.54-1.45-2.07-2.86l10.66-32.45c.29-.89,1.13-1.5,2.07-1.5ZM322.58,43.3h9.73s-4.84-15.91-4.84-15.91l-4.89,15.91Z"/>
        <path class="cls-2" d="M349.79,45.87h3.53c1.08,0,1.98.74,2.27,1.78.69,2.44,2.44,4.24,6.88,4.24,3.65,0,6.07-2.01,6.07-4.89s-1.54-3.96-6.95-4.79c-9.42-1.24-13.28-4.07-13.28-11.17,0-6.28,5.25-10.96,13.38-10.96,7.15,0,11.73,2.76,13.29,8.21.4,1.4-.63,2.81-2.09,2.81h-3.37c-.9,0-1.74-.55-2.03-1.4-.81-2.38-2.69-3.49-5.79-3.49-3.65,0-5.51,1.7-5.51,4.17,0,2.63,1.18,3.86,6.85,4.68,8.91,1.13,13.49,3.55,13.49,11.17,0,6.54-5.35,11.74-14.05,11.74s-13.49-3.64-14.82-9.49c-.3-1.34.77-2.61,2.14-2.61Z"/>
      </g>
    </g>
  </g>
</svg>