<svg width="2488" height="1265" viewBox="0 0 2488 1265" fill="none" xmlns="http://www.w3.org/2000/svg">
<g clip-path="url(#clip0_317_55)">
<path d="M2487.5 0.5H0.5V1264.5H2487.5V0.5Z" stroke="white"/>
<mask id="mask0_317_55" style="mask-type:luminance" maskUnits="userSpaceOnUse" x="287" y="214" width="822" height="218">
<path d="M1109 214H287V431.36H1109V214Z" fill="white"/>
</mask>
<g mask="url(#mask0_317_55)">
<path d="M611.959 214.968H622.858V308.396H612.087V297.982C609.153 301.724 605.638 304.612 601.514 306.661C597.39 308.709 592.982 309.734 588.291 309.734C579.334 309.734 571.823 306.59 565.757 300.33C559.677 294.056 556.644 286.074 556.644 276.371C556.644 266.669 559.776 258.46 566.012 252.015C572.262 245.556 579.958 242.34 589.085 242.34C593.521 242.34 597.702 243.251 601.642 245.072C605.582 246.893 609.026 249.497 611.945 252.883V214.968H611.959ZM589.496 300.259C595.959 300.259 601.401 297.925 605.78 293.245C610.173 288.578 612.356 282.816 612.356 275.959C612.356 269.101 610.23 263.283 605.978 258.744C601.727 254.206 596.398 251.944 590.02 251.944C583.643 251.944 578.101 254.163 573.935 258.616C569.768 263.069 567.685 268.902 567.685 276.101C567.685 283.3 569.725 289.133 573.793 293.586C577.875 298.039 583.104 300.259 589.482 300.259" fill="#2B66AE"/>
<path d="M637.71 222.309H649.672V234.188H637.71V222.309ZM638.249 243.934H649.148V308.396H638.249V243.934Z" fill="#2B66AE"/>
<path d="M716.566 300.799V296.261C713.646 299.817 710.117 302.577 705.993 304.541C701.869 306.504 697.461 307.471 692.77 307.471C683.728 307.471 676.189 304.441 670.165 298.395C664.142 292.348 661.123 284.566 661.123 275.034C661.123 265.502 664.199 257.791 670.364 251.616C676.529 245.428 684.125 242.34 693.167 242.34C697.773 242.34 702.124 243.322 706.192 245.271C710.259 247.234 713.774 249.994 716.693 253.537V243.934H727.464V300.401C727.464 311.085 724.63 319.081 718.961 324.43C713.292 329.765 704.732 332.44 693.295 332.44H677.081V323.093H693.833C701.359 323.093 707.042 321.229 710.854 317.487C714.667 313.746 716.566 308.197 716.566 300.799ZM694.372 297.854C700.764 297.854 706.135 295.649 710.528 291.253C714.908 286.842 717.104 281.436 717.104 275.034C717.104 268.632 714.908 262.955 710.528 258.545C706.135 254.149 700.764 251.944 694.372 251.944C687.98 251.944 682.354 254.035 678.286 258.218C674.204 262.4 672.178 267.963 672.178 274.906C672.178 281.849 674.233 287.298 678.357 291.523C682.481 295.748 687.824 297.868 694.386 297.868" fill="#2B66AE"/>
<path d="M742.331 222.309H754.293V234.188H742.331V222.309ZM742.856 243.934H753.754V308.396H742.856V243.934Z" fill="#2B66AE"/>
<path d="M771.796 291.181V253.537H763.023V243.934H771.796V224.172H782.567V243.919H797.462V253.523H782.567V290.228C782.567 293.074 783.204 295.193 784.494 296.573C785.77 297.954 787.754 298.636 790.404 298.636H797.448V308.382H788.803C782.864 308.382 778.542 307.002 775.835 304.242C773.128 301.482 771.781 297.128 771.781 291.167" fill="#2B66AE"/>
<path d="M863.732 308.396H853.23V297.854C850.665 301.596 847.179 304.512 842.8 306.604C838.406 308.695 833.687 309.748 828.641 309.748C821.541 309.748 815.787 307.941 811.351 304.342C806.915 300.742 804.704 296.005 804.704 290.129C804.704 283.641 807.184 278.719 812.145 275.376C817.105 272.032 824.46 270.368 834.211 270.368H853.089C853.004 264.321 851.431 259.641 848.369 256.354C845.308 253.068 840.943 251.417 835.274 251.417C831.901 251.417 828.585 252.129 825.311 253.551C822.023 254.974 818.791 257.151 815.603 260.096L809.891 252.883C813.619 249.326 817.686 246.637 822.122 244.816C826.558 242.995 831.292 242.084 836.351 242.084C844.94 242.084 851.657 244.645 856.49 249.753C861.323 254.875 863.732 261.917 863.732 270.908V308.411V308.396ZM853.089 278.776H834.339C827.862 278.776 823.072 279.672 819.982 281.451C816.878 283.229 815.333 286.032 815.333 289.859C815.333 293.06 816.68 295.734 819.387 297.868C822.094 300.003 825.566 301.07 829.818 301.07C836.195 301.07 841.581 299.007 845.974 294.867C850.368 290.727 852.734 285.363 853.089 278.776Z" fill="#2B66AE"/>
<path d="M889.526 214.968H878.627V308.396H889.526V214.968Z" fill="#2B66AE"/>
<path d="M559.578 364.892H570.222V373.029C572.177 370.184 574.7 368.05 577.804 366.627C580.908 365.205 584.578 364.493 588.844 364.493H594.697V374.765H588.717C582.608 374.765 578.016 376.373 574.955 379.574C571.894 382.775 570.377 387.626 570.377 394.128V429.368H559.606V364.906L559.578 364.892Z" fill="#2B66AE"/>
<path d="M632.679 422.155C636.931 422.155 640.857 421.245 644.442 419.424C648.028 417.603 651.33 414.814 654.349 411.073L660.868 417.076C657.226 421.885 652.974 425.47 648.099 427.818C643.223 430.179 637.767 431.36 631.744 431.36C622.078 431.36 614.17 428.188 608.005 421.814C601.84 415.455 598.765 407.288 598.765 397.315C598.765 387.342 601.911 379.517 608.203 373.03C614.496 366.542 622.248 363.284 631.475 363.284C640.701 363.284 648.496 366.357 654.349 372.489C660.202 378.635 663.122 386.645 663.122 396.518C663.122 397.23 663.079 398.055 662.994 398.994C662.909 399.933 662.81 400.616 662.725 401.057H609.947C610.655 407.374 613.121 412.467 617.331 416.337C621.54 420.206 626.656 422.141 632.679 422.141M631.616 372.503C626.032 372.503 621.242 374.324 617.26 377.981C613.263 381.637 610.825 386.531 609.947 392.663H652.223C651.429 386.431 649.162 381.523 645.449 377.91C641.721 374.31 637.115 372.503 631.616 372.503Z" fill="#2B66AE"/>
<path d="M728.924 429.354H718.422V418.812C715.843 422.554 712.371 425.47 707.991 427.561C703.598 429.653 698.879 430.706 693.833 430.706C686.747 430.706 680.979 428.899 676.557 425.299C672.121 421.7 669.91 416.962 669.91 411.087C669.91 404.585 672.39 399.677 677.351 396.333C682.311 392.99 689.667 391.325 699.417 391.325H718.295C718.21 385.279 716.637 380.598 713.575 377.312C710.514 374.011 706.149 372.375 700.48 372.375C697.107 372.375 693.791 373.086 690.503 374.509C687.229 375.932 683.983 378.108 680.795 381.053L675.083 373.84C678.81 370.284 682.878 367.595 687.314 365.774C691.75 363.953 696.483 363.028 701.543 363.028C710.131 363.028 716.849 365.589 721.682 370.696C726.515 375.818 728.924 382.86 728.924 391.852V429.354ZM718.295 399.733H699.545C693.068 399.733 688.292 400.616 685.188 402.394C682.084 404.172 680.539 406.975 680.539 410.802C680.539 414.003 681.886 416.678 684.593 418.812C687.3 420.946 690.772 422.013 695.024 422.013C701.401 422.013 706.787 419.95 711.18 415.81C715.574 411.67 717.94 406.306 718.295 399.719" fill="#2B66AE"/>
<path d="M795.308 335.925H806.206V429.354H795.435V418.94C792.516 422.681 788.987 425.57 784.863 427.618C780.739 429.667 776.331 430.691 771.64 430.691C762.683 430.691 755.172 427.547 749.106 421.273C743.026 414.999 739.993 407.018 739.993 397.315C739.993 387.612 743.125 379.403 749.361 372.958C755.611 366.513 763.307 363.284 772.434 363.284C776.87 363.284 781.05 364.194 784.99 366.015C788.93 367.836 792.374 370.44 795.294 373.826V335.925H795.308ZM772.845 421.216C779.307 421.216 784.749 418.883 789.129 414.202C793.522 409.536 795.705 403.774 795.705 396.916C795.705 390.059 793.579 384.24 789.327 379.702C785.075 375.163 779.761 372.901 773.369 372.901C766.977 372.901 761.45 375.121 757.283 379.574C753.117 384.027 751.033 389.846 751.033 397.059C751.033 404.272 753.074 410.091 757.142 414.544C761.223 418.997 766.453 421.216 772.83 421.216" fill="#2B66AE"/>
<path d="M821.059 343.267H833.021V355.146H821.059V343.267ZM821.598 364.892H832.496V429.354H821.598V364.892Z" fill="#2B66AE"/>
<path d="M847.958 364.892H858.602V374.908C861.167 371.166 864.427 368.292 868.381 366.3C872.321 364.294 876.728 363.298 881.604 363.298C890.121 363.298 896.768 366.058 901.544 371.578C906.334 377.099 908.73 384.653 908.73 394.27V429.368H897.959V394.939C897.959 388.181 896.3 382.846 892.97 378.92C889.639 375.007 885.019 373.044 879.081 373.044C873.143 373.044 868.041 375.135 864.327 379.318C860.6 383.501 858.743 388.921 858.743 395.608V429.383H847.972V364.92L847.958 364.892Z" fill="#2B66AE"/>
<path d="M953.458 422.155C957.71 422.155 961.635 421.245 965.221 419.424C968.807 417.603 972.109 414.814 975.127 411.073L981.647 417.076C978.004 421.885 973.753 425.47 968.877 427.818C964.002 430.179 958.546 431.36 952.522 431.36C942.857 431.36 934.949 428.188 928.798 421.814C922.633 415.455 919.557 407.288 919.557 397.315C919.557 387.342 922.704 379.517 928.996 373.03C935.289 366.542 943.041 363.284 952.267 363.284C961.494 363.284 969.288 366.357 975.142 372.489C980.995 378.635 983.914 386.645 983.914 396.518C983.914 397.23 983.872 398.055 983.787 398.994C983.702 399.933 983.603 400.616 983.517 401.057H930.739C931.448 407.374 933.914 412.467 938.123 416.337C942.332 420.206 947.449 422.141 953.486 422.141M952.381 372.503C946.797 372.503 942.006 374.324 938.024 377.981C934.042 381.637 931.59 386.531 930.711 392.663H972.987C972.194 386.431 969.926 381.523 966.213 377.91C962.486 374.31 957.88 372.503 952.381 372.503Z" fill="#2B66AE"/>
<path d="M1046.39 410.546C1046.39 416.592 1043.81 421.529 1038.68 425.356C1033.53 429.183 1026.84 431.09 1018.59 431.09C1013.18 431.09 1008.11 430.222 1003.37 428.486C998.625 426.75 994.359 424.147 990.547 420.676L996.131 412.395C1000.21 415.781 1004.02 418.229 1007.57 419.737C1011.11 421.245 1014.88 421.999 1018.88 421.999C1024.01 421.999 1028.16 420.989 1031.31 418.997C1034.45 416.991 1036.03 414.387 1036.03 411.186C1036.03 407.985 1034.69 405.51 1032.04 404.044C1029.38 402.579 1025 401.796 1018.88 401.711C1009.92 401.355 1003.39 399.705 999.263 396.774C995.139 393.843 993.084 389.262 993.084 383.031C993.084 377.34 995.451 372.603 1000.2 368.818C1004.95 365.034 1011.04 363.142 1018.48 363.142C1023.54 363.142 1028.27 363.953 1032.71 365.546C1037.15 367.154 1041.17 369.515 1044.81 372.617L1039.63 380.755C1035.98 377.81 1032.48 375.676 1029.12 374.352C1025.75 373.015 1022.17 372.346 1018.35 372.346C1014 372.346 1010.44 373.328 1007.65 375.277C1004.86 377.241 1003.47 379.631 1003.47 382.49C1003.47 385.606 1004.7 387.868 1007.2 389.291C1009.68 390.714 1013.62 391.553 1019.03 391.823C1028.7 392.094 1035.67 393.687 1039.98 396.632C1044.27 399.577 1046.43 404.201 1046.43 410.517" fill="#2B66AE"/>
<path d="M1109 410.546C1109 416.592 1106.42 421.529 1101.29 425.356C1096.15 429.183 1089.46 431.09 1081.21 431.09C1075.79 431.09 1070.72 430.222 1065.99 428.486C1061.24 426.75 1056.97 424.147 1053.16 420.676L1058.75 412.395C1062.83 415.781 1066.64 418.229 1070.18 419.737C1073.73 421.245 1077.5 421.999 1081.48 421.999C1086.62 421.999 1090.76 420.989 1093.91 418.997C1097.05 416.991 1098.63 414.387 1098.63 411.186C1098.63 407.985 1097.29 405.51 1094.64 404.044C1091.98 402.579 1087.6 401.796 1081.48 401.711C1072.52 401.355 1065.99 399.705 1061.86 396.774C1057.74 393.843 1055.68 389.262 1055.68 383.031C1055.68 377.34 1058.05 372.603 1062.8 368.818C1067.53 365.034 1073.64 363.142 1081.08 363.142C1086.14 363.142 1090.87 363.953 1095.31 365.546C1099.75 367.154 1103.77 369.515 1107.41 372.617L1102.23 380.755C1098.6 377.81 1095.1 375.676 1091.72 374.352C1088.35 373.015 1084.77 372.346 1080.95 372.346C1076.6 372.346 1073.05 373.328 1070.25 375.277C1067.46 377.241 1066.07 379.631 1066.07 382.49C1066.07 385.606 1067.31 387.868 1069.8 389.291C1072.28 390.714 1076.22 391.553 1081.63 391.823C1091.3 392.094 1098.27 393.687 1102.57 396.632C1106.86 399.577 1109.01 404.201 1109.01 410.517" fill="#2B66AE"/>
<path d="M304.871 215.309H287V233.249H304.871V215.309Z" fill="#0068B6"/>
<path d="M304.404 244.104H287.468V308.624H304.404V244.104ZM416.621 309.278V293.458C414.127 293.443 412.072 293.301 410.498 293.059C408.755 292.789 407.423 292.192 406.53 291.295C405.637 290.399 405.042 289.104 404.773 287.44C404.504 285.846 404.376 283.755 404.376 281.208V258.644H416.635V244.104H404.376V218.979H387.44V281.351C387.44 286.615 387.893 291.082 388.786 294.653C389.679 298.167 391.196 301.055 393.293 303.203C395.391 305.366 398.183 306.931 401.556 307.855C404.971 308.794 409.322 309.278 414.467 309.278H416.607H416.621ZM513.659 214H496.723V308.624H513.659V214ZM371.113 250.464C366.422 245.385 359.804 242.795 351.428 242.795C347.389 242.795 343.647 243.635 340.317 245.285C336.986 246.935 334.152 249.254 331.898 252.171L330.977 253.366V252.285V244.104H314.282V308.624H331.119V274.251V276.641C331.119 276.243 331.133 275.859 331.147 275.475C331.317 269.443 332.819 264.947 335.611 262.101C338.588 259.057 342.202 257.52 346.354 257.52C351.244 257.52 354.971 259.028 357.437 261.988C359.86 264.89 361.093 269.058 361.122 274.351V308.638H378.214V272.018C378.214 262.827 375.833 255.571 371.128 250.478M487.908 276.229C487.908 271.605 487.086 267.223 485.456 263.183C483.841 259.156 481.545 255.571 478.639 252.527C475.748 249.496 472.219 247.078 468.166 245.371C464.113 243.663 459.592 242.781 454.716 242.781C450.11 242.781 445.717 243.677 441.664 245.427C437.61 247.192 434.039 249.596 431.048 252.598C428.058 255.6 425.663 259.185 423.906 263.254C422.162 267.323 421.27 271.733 421.27 276.357C421.27 280.981 422.12 285.405 423.778 289.46C425.436 293.529 427.775 297.114 430.723 300.102C433.67 303.104 437.284 305.508 441.465 307.272C445.646 309.022 450.28 309.918 455.241 309.918C469.569 309.918 478.498 303.374 483.827 297.256L471.638 287.938C469.073 290.996 462.979 295.151 455.354 295.151C450.578 295.151 446.638 294.041 443.662 291.85C440.672 289.659 438.617 286.643 437.554 282.901L437.384 282.304H487.88V276.229H487.908ZM437.554 270.325C437.554 265.601 442.953 257.35 454.603 257.335C466.253 257.335 471.667 265.573 471.667 270.296H437.568L437.554 270.325Z" fill="#00285A"/>
<path d="M532.948 299.704C532.622 298.95 532.169 298.281 531.602 297.712C531.035 297.143 530.369 296.687 529.618 296.36C528.866 296.033 528.044 295.862 527.18 295.862C526.315 295.862 525.508 296.033 524.742 296.36C523.991 296.687 523.325 297.143 522.758 297.712C522.191 298.281 521.738 298.95 521.412 299.704C521.086 300.458 520.916 301.283 520.916 302.151C520.916 303.018 521.086 303.829 521.412 304.598C521.738 305.352 522.191 306.02 522.758 306.589C523.325 307.159 523.991 307.614 524.742 307.941C525.508 308.268 526.315 308.439 527.18 308.439C528.044 308.439 528.852 308.268 529.618 307.941C530.369 307.614 531.035 307.159 531.602 306.589C532.169 306.02 532.622 305.352 532.948 304.598C533.274 303.829 533.444 303.018 533.444 302.151C533.444 301.283 533.274 300.472 532.948 299.704ZM531.928 304.157C531.658 304.783 531.29 305.337 530.822 305.807C530.355 306.276 529.802 306.646 529.178 306.917C528.555 307.187 527.874 307.315 527.18 307.315C526.486 307.315 525.805 307.187 525.182 306.917C524.558 306.646 524.005 306.276 523.538 305.807C523.07 305.337 522.701 304.797 522.432 304.157C522.163 303.531 522.035 302.848 522.035 302.151C522.035 301.454 522.163 300.771 522.432 300.145C522.701 299.519 523.07 298.964 523.538 298.494C524.005 298.025 524.558 297.655 525.182 297.385C525.805 297.114 526.486 296.986 527.18 296.986C527.874 296.986 528.555 297.114 529.178 297.385C529.802 297.655 530.355 298.025 530.822 298.494C531.29 298.964 531.658 299.504 531.928 300.145C532.197 300.771 532.325 301.454 532.325 302.151C532.325 302.848 532.197 303.531 531.928 304.157ZM528.356 302.649C528.838 302.592 529.249 302.407 529.575 302.094C529.901 301.781 530.057 301.297 530.057 300.671C530.057 299.974 529.859 299.433 529.448 299.063C529.037 298.693 528.399 298.509 527.534 298.509H524.771V305.693H526.089V302.748H527.052L528.838 305.693H530.213L528.356 302.649ZM527.648 301.61C527.449 301.624 527.251 301.638 527.038 301.638H526.075V299.632H527.038C527.237 299.632 527.449 299.632 527.648 299.647C527.846 299.647 528.03 299.704 528.2 299.76C528.37 299.832 528.498 299.931 528.597 300.059C528.696 300.202 528.753 300.386 528.753 300.614C528.753 300.842 528.696 301.041 528.597 301.169C528.498 301.297 528.37 301.411 528.2 301.468C528.044 301.539 527.86 301.582 527.648 301.596" fill="#00285A"/>
</g>
</g>
<defs>
<clipPath id="clip0_317_55">
<rect width="2488" height="1265" fill="white"/>
</clipPath>
</defs>
</svg>
