<svg width="2488" height="1265" viewBox="0 0 2488 1265" fill="none" xmlns="http://www.w3.org/2000/svg">
<path d="M2487.5 0.5H0.5V1264.5H2487.5V0.5Z" stroke="white"/>
<mask id="mask0_318_103" style="mask-type:luminance" maskUnits="userSpaceOnUse" x="215" y="214" width="822" height="218">
<path d="M1037 214H215V431.36H1037V214Z" fill="white"/>
</mask>
<g mask="url(#mask0_318_103)">
<path d="M539.959 214.968H550.858V308.396H540.087V297.982C537.153 301.724 533.638 304.612 529.514 306.661C525.39 308.709 520.982 309.734 516.291 309.734C507.334 309.734 499.823 306.59 493.757 300.33C487.677 294.056 484.644 286.074 484.644 276.371C484.644 266.669 487.776 258.46 494.012 252.015C500.262 245.556 507.958 242.34 517.085 242.34C521.521 242.34 525.702 243.251 529.642 245.072C533.582 246.893 537.026 249.497 539.945 252.883V214.968H539.959ZM517.496 300.259C523.959 300.259 529.401 297.925 533.78 293.245C538.173 288.578 540.356 282.816 540.356 275.959C540.356 269.101 538.23 263.283 533.978 258.744C529.727 254.206 524.398 251.944 518.02 251.944C511.643 251.944 506.101 254.163 501.935 258.616C497.768 263.069 495.685 268.902 495.685 276.101C495.685 283.3 497.725 289.133 501.793 293.586C505.875 298.039 511.104 300.259 517.482 300.259" fill="#2B66AE"/>
<path d="M565.71 222.309H577.672V234.188H565.71V222.309ZM566.249 243.934H577.148V308.396H566.249V243.934Z" fill="#2B66AE"/>
<path d="M644.566 300.799V296.261C641.646 299.817 638.117 302.577 633.993 304.541C629.869 306.504 625.461 307.471 620.77 307.471C611.728 307.471 604.189 304.441 598.165 298.395C592.142 292.348 589.123 284.566 589.123 275.034C589.123 265.502 592.199 257.791 598.364 251.616C604.529 245.428 612.125 242.34 621.167 242.34C625.773 242.34 630.124 243.322 634.192 245.271C638.259 247.234 641.774 249.994 644.693 253.537V243.934H655.464V300.401C655.464 311.085 652.63 319.081 646.961 324.43C641.292 329.765 632.732 332.44 621.295 332.44H605.081V323.093H621.833C629.359 323.093 635.042 321.229 638.854 317.487C642.667 313.746 644.566 308.197 644.566 300.799ZM622.372 297.854C628.764 297.854 634.135 295.649 638.528 291.253C642.908 286.842 645.104 281.436 645.104 275.034C645.104 268.632 642.908 262.955 638.528 258.545C634.135 254.149 628.764 251.944 622.372 251.944C615.98 251.944 610.354 254.035 606.286 258.218C602.204 262.4 600.178 267.963 600.178 274.906C600.178 281.849 602.233 287.298 606.357 291.523C610.481 295.748 615.824 297.868 622.386 297.868" fill="#2B66AE"/>
<path d="M670.331 222.309H682.293V234.188H670.331V222.309ZM670.856 243.934H681.754V308.396H670.856V243.934Z" fill="#2B66AE"/>
<path d="M699.796 291.181V253.537H691.023V243.934H699.796V224.172H710.567V243.919H725.462V253.523H710.567V290.228C710.567 293.074 711.204 295.193 712.494 296.573C713.77 297.954 715.754 298.636 718.404 298.636H725.448V308.382H716.803C710.864 308.382 706.542 307.002 703.835 304.242C701.128 301.482 699.781 297.128 699.781 291.167" fill="#2B66AE"/>
<path d="M791.732 308.396H781.23V297.854C778.665 301.596 775.179 304.512 770.8 306.604C766.406 308.695 761.687 309.748 756.641 309.748C749.541 309.748 743.787 307.941 739.351 304.342C734.915 300.742 732.704 296.005 732.704 290.129C732.704 283.641 735.184 278.719 740.145 275.376C745.105 272.032 752.46 270.368 762.211 270.368H781.089C781.004 264.321 779.431 259.641 776.369 256.354C773.308 253.068 768.943 251.417 763.274 251.417C759.901 251.417 756.585 252.129 753.311 253.551C750.023 254.974 746.791 257.151 743.603 260.096L737.891 252.883C741.619 249.326 745.686 246.637 750.122 244.816C754.558 242.995 759.292 242.084 764.351 242.084C772.94 242.084 779.657 244.645 784.49 249.753C789.323 254.875 791.732 261.917 791.732 270.908V308.411V308.396ZM781.089 278.776H762.339C755.862 278.776 751.072 279.672 747.982 281.451C744.878 283.229 743.333 286.032 743.333 289.859C743.333 293.06 744.68 295.734 747.387 297.868C750.094 300.003 753.566 301.07 757.818 301.07C764.195 301.07 769.581 299.007 773.974 294.867C778.368 290.727 780.734 285.363 781.089 278.776Z" fill="#2B66AE"/>
<path d="M817.526 214.968H806.627V308.396H817.526V214.968Z" fill="#2B66AE"/>
<path d="M487.578 364.892H498.222V373.029C500.177 370.184 502.7 368.05 505.804 366.627C508.908 365.205 512.578 364.493 516.844 364.493H522.697V374.765H516.717C510.608 374.765 506.016 376.373 502.955 379.574C499.894 382.775 498.377 387.626 498.377 394.128V429.368H487.606V364.906L487.578 364.892Z" fill="#2B66AE"/>
<path d="M560.679 422.155C564.931 422.155 568.857 421.245 572.442 419.424C576.028 417.603 579.33 414.814 582.349 411.073L588.868 417.076C585.226 421.885 580.974 425.47 576.099 427.818C571.223 430.179 565.767 431.36 559.744 431.36C550.078 431.36 542.17 428.188 536.005 421.814C529.84 415.455 526.765 407.288 526.765 397.315C526.765 387.342 529.911 379.517 536.203 373.03C542.496 366.542 550.248 363.284 559.475 363.284C568.701 363.284 576.496 366.357 582.349 372.489C588.202 378.635 591.122 386.645 591.122 396.518C591.122 397.23 591.079 398.055 590.994 398.994C590.909 399.933 590.81 400.616 590.725 401.057H537.947C538.655 407.374 541.121 412.467 545.331 416.337C549.54 420.206 554.656 422.141 560.679 422.141M559.616 372.503C554.032 372.503 549.242 374.324 545.26 377.981C541.263 381.637 538.825 386.531 537.947 392.663H580.223C579.429 386.431 577.162 381.523 573.449 377.91C569.721 374.31 565.115 372.503 559.616 372.503Z" fill="#2B66AE"/>
<path d="M656.924 429.354H646.422V418.812C643.843 422.554 640.371 425.47 635.991 427.561C631.598 429.653 626.879 430.706 621.833 430.706C614.747 430.706 608.979 428.899 604.557 425.299C600.121 421.7 597.91 416.962 597.91 411.087C597.91 404.585 600.39 399.677 605.351 396.333C610.311 392.99 617.667 391.325 627.417 391.325H646.295C646.21 385.279 644.637 380.598 641.575 377.312C638.514 374.011 634.149 372.375 628.48 372.375C625.107 372.375 621.791 373.086 618.503 374.509C615.229 375.932 611.983 378.108 608.795 381.053L603.083 373.84C606.81 370.284 610.878 367.595 615.314 365.774C619.75 363.953 624.483 363.028 629.543 363.028C638.131 363.028 644.849 365.589 649.682 370.696C654.515 375.818 656.924 382.86 656.924 391.852V429.354ZM646.295 399.733H627.545C621.068 399.733 616.292 400.616 613.188 402.394C610.084 404.172 608.539 406.975 608.539 410.802C608.539 414.003 609.886 416.678 612.593 418.812C615.3 420.946 618.772 422.013 623.024 422.013C629.401 422.013 634.787 419.95 639.18 415.81C643.574 411.67 645.94 406.306 646.295 399.719" fill="#2B66AE"/>
<path d="M723.308 335.925H734.206V429.354H723.435V418.94C720.516 422.681 716.987 425.57 712.863 427.618C708.739 429.667 704.331 430.691 699.64 430.691C690.683 430.691 683.172 427.547 677.106 421.273C671.026 414.999 667.993 407.018 667.993 397.315C667.993 387.612 671.125 379.403 677.361 372.958C683.611 366.513 691.307 363.284 700.434 363.284C704.87 363.284 709.05 364.194 712.99 366.015C716.93 367.836 720.374 370.44 723.294 373.826V335.925H723.308ZM700.845 421.216C707.307 421.216 712.749 418.883 717.129 414.202C721.522 409.536 723.705 403.774 723.705 396.916C723.705 390.059 721.579 384.24 717.327 379.702C713.075 375.163 707.761 372.901 701.369 372.901C694.977 372.901 689.45 375.121 685.283 379.574C681.117 384.027 679.033 389.846 679.033 397.059C679.033 404.272 681.074 410.091 685.142 414.544C689.223 418.997 694.453 421.216 700.83 421.216" fill="#2B66AE"/>
<path d="M749.059 343.267H761.021V355.146H749.059V343.267ZM749.598 364.892H760.496V429.354H749.598V364.892Z" fill="#2B66AE"/>
<path d="M775.958 364.892H786.602V374.908C789.167 371.166 792.427 368.292 796.381 366.3C800.321 364.294 804.728 363.298 809.604 363.298C818.121 363.298 824.768 366.058 829.544 371.578C834.334 377.099 836.73 384.653 836.73 394.27V429.368H825.959V394.939C825.959 388.181 824.3 382.846 820.97 378.92C817.639 375.007 813.019 373.044 807.081 373.044C801.143 373.044 796.041 375.135 792.327 379.318C788.6 383.501 786.743 388.921 786.743 395.608V429.383H775.972V364.92L775.958 364.892Z" fill="#2B66AE"/>
<path d="M881.458 422.155C885.71 422.155 889.635 421.245 893.221 419.424C896.807 417.603 900.109 414.814 903.127 411.073L909.647 417.076C906.004 421.885 901.753 425.47 896.877 427.818C892.002 430.179 886.546 431.36 880.522 431.36C870.857 431.36 862.949 428.188 856.798 421.814C850.633 415.455 847.557 407.288 847.557 397.315C847.557 387.342 850.704 379.517 856.996 373.03C863.289 366.542 871.041 363.284 880.267 363.284C889.494 363.284 897.288 366.357 903.142 372.489C908.995 378.635 911.914 386.645 911.914 396.518C911.914 397.23 911.872 398.055 911.787 398.994C911.702 399.933 911.603 400.616 911.517 401.057H858.739C859.448 407.374 861.914 412.467 866.123 416.337C870.332 420.206 875.449 422.141 881.486 422.141M880.381 372.503C874.797 372.503 870.006 374.324 866.024 377.981C862.042 381.637 859.59 386.531 858.711 392.663H900.987C900.194 386.431 897.926 381.523 894.213 377.91C890.486 374.31 885.88 372.503 880.381 372.503Z" fill="#2B66AE"/>
<path d="M974.386 410.546C974.386 416.592 971.807 421.529 966.677 425.356C961.532 429.183 954.843 431.09 946.594 431.09C941.18 431.09 936.107 430.222 931.373 428.486C926.625 426.75 922.359 424.147 918.547 420.676L924.131 412.395C928.213 415.781 932.025 418.229 935.568 419.737C939.111 421.245 942.881 421.999 946.878 421.999C952.008 421.999 956.161 420.989 959.307 418.997C962.453 416.991 964.026 414.387 964.026 411.186C964.026 407.985 962.694 405.51 960.044 404.044C957.38 402.579 953 401.796 946.878 401.711C937.921 401.355 931.387 399.705 927.263 396.774C923.139 393.843 921.084 389.262 921.084 383.031C921.084 377.34 923.451 372.603 928.199 368.818C932.946 365.034 939.04 363.142 946.481 363.142C951.54 363.142 956.274 363.953 960.71 365.546C965.146 367.154 969.171 369.515 972.813 372.617L967.626 380.755C963.984 377.81 960.483 375.676 957.124 374.352C953.751 373.015 950.166 372.346 946.353 372.346C942.002 372.346 938.445 373.328 935.653 375.277C932.861 377.241 931.472 379.631 931.472 382.49C931.472 385.606 932.705 387.868 935.2 389.291C937.68 390.714 941.62 391.553 947.034 391.823C956.699 392.094 963.672 393.687 967.98 396.632C972.275 399.577 974.429 404.201 974.429 410.517" fill="#2B66AE"/>
<path d="M1037 410.546C1037 416.592 1034.42 421.529 1029.29 425.356C1024.15 429.183 1017.46 431.09 1009.21 431.09C1003.79 431.09 998.72 430.222 993.987 428.486C989.239 426.75 984.973 424.147 981.161 420.676L986.745 412.395C990.826 415.781 994.639 418.229 998.182 419.737C1001.73 421.245 1005.5 421.999 1009.48 421.999C1014.62 421.999 1018.76 420.989 1021.91 418.997C1025.05 416.991 1026.63 414.387 1026.63 411.186C1026.63 407.985 1025.29 405.51 1022.64 404.044C1019.98 402.579 1015.6 401.796 1009.48 401.711C1000.52 401.355 993.987 399.705 989.863 396.774C985.738 393.843 983.683 389.262 983.683 383.031C983.683 377.34 986.05 372.603 990.798 368.818C995.532 365.034 1001.64 363.142 1009.08 363.142C1014.14 363.142 1018.87 363.953 1023.31 365.546C1027.75 367.154 1031.77 369.515 1035.41 372.617L1030.23 380.755C1026.6 377.81 1023.1 375.676 1019.72 374.352C1016.35 373.015 1012.77 372.346 1008.95 372.346C1004.6 372.346 1001.05 373.328 998.253 375.277C995.461 377.241 994.072 379.631 994.072 382.49C994.072 385.606 995.305 387.868 997.799 389.291C1000.28 390.714 1004.22 391.553 1009.63 391.823C1019.3 392.094 1026.27 393.687 1030.57 396.632C1034.86 399.577 1037.01 404.201 1037.01 410.517" fill="#2B66AE"/>
<path d="M232.871 215.309H215V233.249H232.871V215.309Z" fill="#0068B6"/>
<path d="M232.404 244.104H215.468V308.624H232.404V244.104ZM344.621 309.278V293.458C342.127 293.443 340.072 293.301 338.498 293.059C336.755 292.789 335.423 292.192 334.53 291.295C333.637 290.399 333.042 289.104 332.773 287.44C332.504 285.846 332.376 283.755 332.376 281.208V258.644H344.635V244.104H332.376V218.979H315.44V281.351C315.44 286.615 315.893 291.082 316.786 294.653C317.679 298.167 319.196 301.055 321.293 303.203C323.391 305.366 326.183 306.931 329.556 307.855C332.971 308.794 337.322 309.278 342.467 309.278H344.607H344.621ZM441.659 214H424.723V308.624H441.659V214ZM299.113 250.464C294.422 245.385 287.804 242.795 279.428 242.795C275.389 242.795 271.647 243.635 268.317 245.285C264.986 246.935 262.152 249.254 259.898 252.171L258.977 253.366V252.285V244.104H242.282V308.624H259.119V274.251V276.641C259.119 276.243 259.133 275.859 259.147 275.475C259.317 269.443 260.819 264.947 263.611 262.101C266.588 259.057 270.202 257.52 274.354 257.52C279.244 257.52 282.971 259.028 285.437 261.988C287.86 264.89 289.093 269.058 289.122 274.351V308.638H306.214V272.018C306.214 262.827 303.833 255.571 299.128 250.478M415.908 276.229C415.908 271.605 415.086 267.223 413.456 263.183C411.841 259.156 409.545 255.571 406.639 252.527C403.748 249.496 400.219 247.078 396.166 245.371C392.113 243.663 387.592 242.781 382.716 242.781C378.11 242.781 373.717 243.677 369.664 245.427C365.61 247.192 362.039 249.596 359.048 252.598C356.058 255.6 353.663 259.185 351.906 263.254C350.162 267.323 349.27 271.733 349.27 276.357C349.27 280.981 350.12 285.405 351.778 289.46C353.436 293.529 355.775 297.114 358.723 300.102C361.67 303.104 365.284 305.508 369.465 307.272C373.646 309.022 378.28 309.918 383.241 309.918C397.569 309.918 406.498 303.374 411.827 297.256L399.638 287.938C397.073 290.996 390.979 295.151 383.354 295.151C378.578 295.151 374.638 294.041 371.662 291.85C368.672 289.659 366.617 286.643 365.554 282.901L365.384 282.304H415.88V276.229H415.908ZM365.554 270.325C365.554 265.601 370.953 257.35 382.603 257.335C394.253 257.335 399.667 265.573 399.667 270.296H365.568L365.554 270.325Z" fill="#00285A"/>
<path d="M460.948 299.704C460.622 298.95 460.169 298.281 459.602 297.712C459.035 297.143 458.369 296.687 457.618 296.36C456.866 296.033 456.044 295.862 455.18 295.862C454.315 295.862 453.508 296.033 452.742 296.36C451.991 296.687 451.325 297.143 450.758 297.712C450.191 298.281 449.738 298.95 449.412 299.704C449.086 300.458 448.916 301.283 448.916 302.151C448.916 303.018 449.086 303.829 449.412 304.598C449.738 305.352 450.191 306.02 450.758 306.589C451.325 307.159 451.991 307.614 452.742 307.941C453.508 308.268 454.315 308.439 455.18 308.439C456.044 308.439 456.852 308.268 457.618 307.941C458.369 307.614 459.035 307.159 459.602 306.589C460.169 306.02 460.622 305.352 460.948 304.598C461.274 303.829 461.444 303.018 461.444 302.151C461.444 301.283 461.274 300.472 460.948 299.704ZM459.928 304.157C459.658 304.783 459.29 305.337 458.822 305.807C458.355 306.276 457.802 306.646 457.178 306.917C456.555 307.187 455.874 307.315 455.18 307.315C454.486 307.315 453.805 307.187 453.182 306.917C452.558 306.646 452.005 306.276 451.538 305.807C451.07 305.337 450.701 304.797 450.432 304.157C450.163 303.531 450.035 302.848 450.035 302.151C450.035 301.454 450.163 300.771 450.432 300.145C450.701 299.519 451.07 298.964 451.538 298.494C452.005 298.025 452.558 297.655 453.182 297.385C453.805 297.114 454.486 296.986 455.18 296.986C455.874 296.986 456.555 297.114 457.178 297.385C457.802 297.655 458.355 298.025 458.822 298.494C459.29 298.964 459.658 299.504 459.928 300.145C460.197 300.771 460.325 301.454 460.325 302.151C460.325 302.848 460.197 303.531 459.928 304.157ZM456.356 302.649C456.838 302.592 457.249 302.407 457.575 302.094C457.901 301.781 458.057 301.297 458.057 300.671C458.057 299.974 457.859 299.433 457.448 299.063C457.037 298.693 456.399 298.509 455.534 298.509H452.771V305.693H454.089V302.748H455.052L456.838 305.693H458.213L456.356 302.649ZM455.648 301.61C455.449 301.624 455.251 301.638 455.038 301.638H454.075V299.632H455.038C455.237 299.632 455.449 299.632 455.648 299.647C455.846 299.647 456.03 299.704 456.2 299.76C456.37 299.832 456.498 299.931 456.597 300.059C456.696 300.202 456.753 300.386 456.753 300.614C456.753 300.842 456.696 301.041 456.597 301.169C456.498 301.297 456.37 301.411 456.2 301.468C456.044 301.539 455.86 301.582 455.648 301.596" fill="#00285A"/>
</g>
</svg>
