<svg width="2488" height="1265" viewBox="0 0 2488 1265" fill="none" xmlns="http://www.w3.org/2000/svg">
<rect x="0.5" y="0.5" width="2487" height="1264" stroke="white"/>
<path d="M785.441 531.118H778.486V528.314H785.441V531.118ZM787.885 539.277H784.47V520.102H787.885V539.277ZM777.084 540.194C779.349 540.194 781.296 540.433 782.925 540.912C784.566 541.392 785.818 542.087 786.681 542.997C787.556 543.896 787.993 544.98 787.993 546.25C787.993 547.52 787.556 548.604 786.681 549.503C785.818 550.413 784.566 551.108 782.925 551.587C781.296 552.067 779.349 552.312 777.084 552.324C774.844 552.312 772.909 552.067 771.28 551.587C769.65 551.108 768.398 550.413 767.523 549.503C766.649 548.604 766.212 547.52 766.212 546.25C766.212 544.98 766.649 543.896 767.523 542.997C768.398 542.087 769.65 541.392 771.28 540.912C772.909 540.433 774.844 540.194 777.084 540.194ZM777.084 542.817C775.539 542.817 774.197 542.955 773.059 543.231C771.932 543.494 771.07 543.884 770.471 544.399C769.884 544.914 769.59 545.531 769.59 546.25C769.59 546.945 769.884 547.55 770.471 548.065C771.07 548.58 771.932 548.976 773.059 549.251C774.197 549.515 775.539 549.646 777.084 549.646C778.666 549.646 780.014 549.515 781.128 549.251C782.254 548.976 783.111 548.58 783.698 548.065C784.297 547.55 784.596 546.945 784.596 546.25C784.596 545.531 784.297 544.914 783.698 544.399C783.111 543.884 782.254 543.494 781.128 543.231C780.014 542.955 778.666 542.817 777.084 542.817ZM771.909 525.852C771.909 527.829 771.537 529.698 770.794 531.459C770.063 533.221 769.015 534.766 767.649 536.096C766.283 537.414 764.684 538.414 762.851 539.097L761.072 536.366C762.701 535.791 764.121 534.958 765.331 533.868C766.553 532.777 767.488 531.537 768.135 530.148C768.781 528.746 769.105 527.314 769.105 525.852V523.354H771.909V525.852ZM772.555 525.816C772.555 527.17 772.867 528.488 773.49 529.77C774.113 531.04 775.012 532.178 776.186 533.185C777.36 534.179 778.738 534.952 780.319 535.503L778.576 538.217C776.767 537.582 775.203 536.641 773.885 535.395C772.567 534.149 771.555 532.699 770.848 531.046C770.141 529.381 769.788 527.638 769.788 525.816V523.354H772.555V525.816ZM779.492 525.134H762.096V522.312H779.492V525.134Z" fill="#3771B1"/>
<path d="M745.15 526.32H730.683V523.57H745.15V526.32ZM738.878 543.698H735.517V532.771H738.878V543.698ZM747.162 525.547C747.15 527.068 747.132 528.344 747.108 529.375C747.084 530.393 747.007 531.675 746.875 533.221C746.743 534.754 746.533 536.408 746.246 538.181L742.849 537.893C743.245 535.413 743.49 533.239 743.586 531.37C743.694 529.501 743.748 527.56 743.748 525.547V523.57H747.162V525.547ZM754.297 552.306H750.882V520.102H754.297V552.306ZM759.221 536.312H753.344V533.4H759.221V536.312ZM728.921 542.62C732.887 542.584 736.499 542.506 739.758 542.386C743.029 542.254 746.12 542.015 749.031 541.667L749.211 544.219C746.192 544.686 743.005 545.004 739.65 545.172C736.296 545.339 732.845 545.411 729.299 545.387L728.921 542.62Z" fill="#3771B1"/>
<path d="M708.236 525.098C708.236 527.194 707.87 529.147 707.139 530.956C706.42 532.753 705.378 534.323 704.012 535.665C702.646 536.995 701.023 538.013 699.142 538.72L697.291 535.952C698.98 535.377 700.442 534.545 701.676 533.454C702.91 532.364 703.851 531.1 704.498 529.662C705.144 528.225 705.468 526.703 705.468 525.098V521.899H708.236V525.098ZM708.865 524.936C708.865 526.433 709.17 527.859 709.781 529.213C710.404 530.567 711.303 531.753 712.477 532.771C713.651 533.778 715.041 534.545 716.646 535.072L714.759 537.731C712.962 537.073 711.417 536.12 710.123 534.874C708.829 533.628 707.828 532.16 707.121 530.471C706.426 528.77 706.079 526.925 706.079 524.936V521.899H708.865V524.936ZM724.266 539.115H720.851V520.102H724.266V539.115ZM713.465 540.032C715.73 540.032 717.677 540.271 719.306 540.751C720.947 541.218 722.199 541.919 723.062 542.853C723.937 543.776 724.374 544.884 724.374 546.178C724.374 547.448 723.937 548.538 723.062 549.449C722.199 550.371 720.947 551.072 719.306 551.551C717.677 552.031 715.73 552.27 713.465 552.27C711.225 552.27 709.29 552.031 707.66 551.551C706.031 551.072 704.779 550.371 703.904 549.449C703.03 548.538 702.593 547.448 702.593 546.178C702.593 544.884 703.03 543.776 703.904 542.853C704.779 541.919 706.031 541.218 707.66 540.751C709.29 540.271 711.225 540.032 713.465 540.032ZM713.465 542.692C711.92 542.692 710.578 542.829 709.44 543.105C708.313 543.368 707.451 543.764 706.852 544.291C706.265 544.806 705.971 545.435 705.971 546.178C705.971 546.873 706.265 547.478 706.852 547.993C707.451 548.496 708.313 548.886 709.44 549.161C710.578 549.437 711.92 549.575 713.465 549.575C715.047 549.575 716.395 549.437 717.509 549.161C718.635 548.886 719.492 548.496 720.079 547.993C720.678 547.478 720.977 546.873 720.977 546.178C720.977 545.435 720.678 544.806 720.079 544.291C719.492 543.764 718.635 543.368 717.509 543.105C716.395 542.829 715.047 542.692 713.465 542.692ZM721.462 529.483H714.058V526.679H721.462V529.483Z" fill="#3771B1"/>
<path d="M695.494 527.506H689.887V524.702H695.494V527.506ZM695.494 534.443H689.887V531.603H695.494V534.443ZM674.666 522.007C676.295 521.983 677.757 522.294 679.051 522.941C680.357 523.588 681.381 524.499 682.124 525.673C682.879 526.835 683.256 528.159 683.256 529.644C683.256 531.13 682.879 532.448 682.124 533.598C681.381 534.736 680.357 535.635 679.051 536.294C677.757 536.941 676.295 537.276 674.666 537.3C673.036 537.276 671.569 536.941 670.263 536.294C668.969 535.635 667.95 534.736 667.207 533.598C666.465 532.448 666.093 531.13 666.093 529.644C666.093 528.159 666.465 526.835 667.207 525.673C667.95 524.499 668.969 523.588 670.263 522.941C671.557 522.294 673.024 521.983 674.666 522.007ZM674.666 524.882C673.671 524.87 672.773 525.062 671.97 525.457C671.179 525.852 670.556 526.415 670.101 527.146C669.658 527.865 669.436 528.698 669.436 529.644C669.436 530.579 669.658 531.412 670.101 532.142C670.556 532.861 671.179 533.418 671.97 533.814C672.773 534.197 673.671 534.401 674.666 534.425C675.66 534.401 676.559 534.197 677.361 533.814C678.164 533.418 678.787 532.861 679.23 532.142C679.686 531.412 679.913 530.579 679.913 529.644C679.913 528.698 679.686 527.865 679.23 527.146C678.787 526.415 678.164 525.852 677.361 525.457C676.559 525.062 675.66 524.87 674.666 524.882ZM690.912 539.133H687.515V520.102H690.912V539.133ZM680.506 539.996C682.711 539.996 684.616 540.241 686.221 540.733C687.827 541.224 689.055 541.931 689.905 542.853C690.768 543.764 691.199 544.866 691.199 546.16C691.199 547.418 690.768 548.508 689.905 549.431C689.043 550.353 687.803 551.054 686.185 551.533C684.58 552.025 682.687 552.27 680.506 552.27C678.314 552.27 676.403 552.025 674.773 551.533C673.156 551.054 671.904 550.353 671.017 549.431C670.143 548.508 669.706 547.418 669.706 546.16C669.706 544.866 670.143 543.764 671.017 542.853C671.904 541.931 673.15 541.224 674.755 540.733C676.373 540.241 678.29 539.996 680.506 539.996ZM680.506 542.745C678.961 542.745 677.637 542.877 676.535 543.141C675.432 543.404 674.588 543.794 674.001 544.309C673.426 544.824 673.138 545.441 673.138 546.16C673.138 546.867 673.426 547.472 674.001 547.975C674.588 548.478 675.432 548.868 676.535 549.143C677.649 549.407 678.973 549.539 680.506 549.539C682.052 549.539 683.376 549.407 684.478 549.143C685.592 548.868 686.437 548.478 687.012 547.975C687.587 547.472 687.875 546.867 687.875 546.16C687.875 545.441 687.581 544.824 686.994 544.309C686.419 543.782 685.58 543.392 684.478 543.141C683.376 542.877 682.052 542.745 680.506 542.745Z" fill="#3771B1"/>
<path d="M651.68 552.396H648.284V520.102H651.68V552.396ZM648.787 534.784H641.868V531.999H648.787V534.784ZM628.785 541.955C631.924 541.967 634.56 541.907 636.692 541.775C638.825 541.643 640.975 541.398 643.144 541.038L643.503 543.824C641.251 544.171 639.017 544.417 636.8 544.561C634.584 544.692 631.912 544.758 628.785 544.758H626.287V541.955H628.785ZM641.347 525.781H629.719V542.871H626.287V522.977H641.347V525.781ZM639.999 534.748H628.875V532.017H639.999V534.748Z" fill="#3771B1"/>
<path d="M619.691 552.396H616.259V520.102H619.691V552.396ZM602.439 522.528C604.044 522.528 605.476 522.995 606.734 523.929C607.992 524.864 608.974 526.182 609.681 527.883C610.388 529.584 610.742 531.567 610.742 533.832C610.742 536.108 610.388 538.097 609.681 539.798C608.974 541.499 607.992 542.817 606.734 543.752C605.476 544.674 604.044 545.136 602.439 545.136C600.833 545.136 599.396 544.674 598.126 543.752C596.868 542.817 595.885 541.499 595.178 539.798C594.472 538.097 594.118 536.108 594.118 533.832C594.118 531.567 594.472 529.584 595.178 527.883C595.885 526.182 596.868 524.864 598.126 523.929C599.396 522.995 600.833 522.528 602.439 522.528ZM602.439 525.583C601.456 525.583 600.582 525.918 599.815 526.589C599.048 527.26 598.455 528.219 598.036 529.465C597.629 530.699 597.425 532.154 597.425 533.832C597.425 535.497 597.629 536.953 598.036 538.199C598.455 539.445 599.048 540.403 599.815 541.074C600.582 541.733 601.456 542.063 602.439 542.063C603.421 542.063 604.29 541.733 605.045 541.074C605.812 540.403 606.405 539.445 606.824 538.199C607.243 536.953 607.453 535.497 607.453 533.832C607.453 532.154 607.243 530.699 606.824 529.465C606.405 528.219 605.818 527.26 605.063 526.589C604.308 525.918 603.433 525.583 602.439 525.583Z" fill="#3771B1"/>
<path d="M580.244 535.233H574.313V532.448H580.244V535.233ZM588.906 552.306H585.617V520.102H588.906V552.306ZM582.346 550.725H579.111V520.713H582.346V550.725ZM568.508 522.671C569.91 522.671 571.138 523.133 572.193 524.055C573.247 524.966 574.062 526.278 574.637 527.991C575.224 529.704 575.517 531.717 575.517 534.029C575.517 536.318 575.224 538.319 574.637 540.032C574.062 541.745 573.247 543.069 572.193 544.003C571.138 544.926 569.91 545.393 568.508 545.405C567.119 545.393 565.897 544.926 564.842 544.003C563.788 543.069 562.973 541.745 562.398 540.032C561.835 538.319 561.553 536.318 561.553 534.029C561.553 531.717 561.835 529.704 562.398 527.991C562.973 526.278 563.788 524.966 564.842 524.055C565.897 523.133 567.119 522.671 568.508 522.671ZM568.508 525.906C567.718 525.894 567.041 526.212 566.478 526.859C565.915 527.506 565.483 528.44 565.184 529.662C564.884 530.872 564.734 532.328 564.734 534.029C564.734 535.707 564.884 537.156 565.184 538.378C565.483 539.6 565.921 540.535 566.496 541.182C567.071 541.817 567.742 542.134 568.508 542.134C569.287 542.134 569.964 541.817 570.539 541.182C571.114 540.535 571.558 539.6 571.869 538.378C572.181 537.156 572.336 535.707 572.336 534.029C572.336 532.328 572.181 530.872 571.869 529.662C571.558 528.44 571.114 527.506 570.539 526.859C569.964 526.212 569.287 525.894 568.508 525.906Z" fill="#3771B1"/>
<path d="M556.108 552.396H552.712V520.102H556.108V552.396ZM533.968 541.811C536.951 541.823 539.682 541.745 542.163 541.577C544.655 541.41 547.224 541.116 549.872 540.697L550.214 543.5C547.53 543.944 544.93 544.249 542.414 544.417C539.898 544.573 537.083 544.65 533.968 544.65H531.218V541.811H533.968ZM546.26 534.784H534.704V542.889H531.218V532.053H542.809V525.798H531.164V523.013H546.26V534.784Z" fill="#3771B1"/>
<path d="M521.586 526.05H501.062V523.247H521.586V526.05ZM526.941 548.011H497.576V545.172H526.941V548.011ZM523.491 527.146C523.491 529.219 523.467 530.968 523.419 532.394C523.383 533.808 523.263 535.401 523.059 537.174C522.868 538.936 522.55 540.864 522.107 542.961L518.692 542.656C519.136 540.715 519.459 538.876 519.663 537.138C519.878 535.389 520.016 533.82 520.076 532.43C520.136 531.04 520.166 529.279 520.166 527.146V523.247H523.491V527.146ZM500.613 535.755L500.164 532.969L520.957 532.16V534.676L500.613 535.755Z" fill="#3771B1"/>
<path d="M464.437 521.898C465.862 521.886 467.138 522.192 468.265 522.815C469.391 523.426 470.265 524.295 470.888 525.421C471.523 526.535 471.841 527.811 471.841 529.249C471.841 530.662 471.523 531.932 470.888 533.059C470.265 534.173 469.391 535.041 468.265 535.664C467.138 536.275 465.862 536.587 464.437 536.599C463.011 536.587 461.735 536.275 460.609 535.664C459.483 535.041 458.608 534.173 457.985 533.059C457.374 531.932 457.068 530.662 457.068 529.249C457.068 527.811 457.374 526.535 457.985 525.421C458.608 524.295 459.483 523.426 460.609 522.815C461.735 522.192 463.011 521.886 464.437 521.898ZM464.437 524.666C463.622 524.666 462.885 524.858 462.226 525.241C461.567 525.612 461.052 526.146 460.681 526.841C460.321 527.523 460.141 528.326 460.141 529.249C460.141 530.135 460.321 530.92 460.681 531.603C461.052 532.286 461.567 532.819 462.226 533.202C462.885 533.586 463.622 533.777 464.437 533.777C465.275 533.777 466.018 533.586 466.665 533.202C467.312 532.819 467.815 532.286 468.175 531.603C468.546 530.92 468.732 530.135 468.732 529.249C468.732 528.338 468.546 527.535 468.175 526.841C467.815 526.146 467.312 525.612 466.665 525.241C466.018 524.858 465.275 524.666 464.437 524.666ZM484.241 537.659H480.988V520.137H484.241V537.659ZM482.084 530.129H476.19V527.29H482.084V530.129ZM477.25 537.408H474.069V520.73H477.25V537.408ZM466.126 542.601H480.88V539.061H484.241V551.911H462.747V539.061H466.126V542.601ZM480.88 549.143V545.351H466.126V549.143H480.88Z" fill="#3771B1"/>
<path d="M435.431 537.03H432.034V530.992H435.431V537.03ZM447.22 537.03H443.823V530.992H447.22V537.03ZM454.337 538.594H424.971V535.826H454.337V538.594ZM439.636 540.786C441.96 540.786 443.949 541.008 445.603 541.451C447.268 541.894 448.544 542.541 449.43 543.392C450.317 544.243 450.76 545.285 450.76 546.519C450.76 547.741 450.317 548.777 449.43 549.628C448.544 550.479 447.268 551.126 445.603 551.569C443.949 552.024 441.96 552.252 439.636 552.252C437.3 552.252 435.293 552.024 433.616 551.569C431.95 551.126 430.674 550.479 429.788 549.628C428.901 548.777 428.458 547.741 428.458 546.519C428.458 545.285 428.901 544.243 429.788 543.392C430.674 542.541 431.956 541.894 433.634 541.451C435.311 541.008 437.312 540.786 439.636 540.786ZM439.636 543.392C437.995 543.392 436.599 543.512 435.449 543.751C434.299 543.991 433.424 544.351 432.825 544.83C432.226 545.297 431.926 545.86 431.926 546.519C431.926 547.178 432.226 547.741 432.825 548.208C433.424 548.676 434.299 549.029 435.449 549.269C436.599 549.52 437.995 549.646 439.636 549.646C441.253 549.646 442.637 549.52 443.787 549.269C444.95 549.029 445.83 548.676 446.429 548.208C447.028 547.741 447.328 547.178 447.328 546.519C447.328 545.86 447.028 545.297 446.429 544.83C445.83 544.351 444.956 543.991 443.805 543.751C442.667 543.512 441.277 543.392 439.636 543.392ZM439.654 520.676C442.002 520.676 444.033 520.916 445.746 521.395C447.472 521.874 448.801 522.569 449.736 523.48C450.67 524.378 451.138 525.463 451.138 526.733C451.138 527.967 450.67 529.039 449.736 529.949C448.813 530.848 447.49 531.537 445.764 532.016C444.039 532.483 442.002 532.717 439.654 532.717C437.294 532.717 435.245 532.483 433.508 532.016C431.783 531.537 430.453 530.848 429.518 529.949C428.584 529.039 428.116 527.967 428.116 526.733C428.116 525.463 428.584 524.378 429.518 523.48C430.453 522.569 431.783 521.874 433.508 521.395C435.245 520.916 437.294 520.676 439.654 520.676ZM439.654 523.336C437.989 523.336 436.551 523.474 435.341 523.749C434.143 524.013 433.226 524.396 432.591 524.9C431.968 525.403 431.657 526.014 431.657 526.733C431.657 527.439 431.968 528.045 432.591 528.548C433.226 529.051 434.143 529.44 435.341 529.716C436.551 529.979 437.989 530.111 439.654 530.111C441.307 530.111 442.733 529.979 443.931 529.716C445.129 529.44 446.046 529.051 446.681 528.548C447.316 528.045 447.633 527.439 447.633 526.733C447.633 526.014 447.316 525.403 446.681 524.9C446.046 524.396 445.129 524.013 443.931 523.749C442.733 523.474 441.307 523.336 439.654 523.336Z" fill="#3771B1"/>
<path d="M422.528 538.325H393.162V535.593H422.528V538.325ZM407.827 540.751C410.151 540.739 412.14 540.955 413.793 541.398C415.459 541.829 416.735 542.482 417.621 543.357C418.508 544.219 418.951 545.274 418.951 546.52C418.951 547.754 418.508 548.802 417.621 549.665C416.735 550.539 415.459 551.198 413.793 551.642C412.14 552.097 410.151 552.324 407.827 552.324C405.503 552.324 403.502 552.097 401.825 551.642C400.147 551.198 398.865 550.539 397.979 549.665C397.092 548.802 396.649 547.754 396.649 546.52C396.649 545.274 397.092 544.219 397.979 543.357C398.865 542.482 400.147 541.829 401.825 541.398C403.502 540.955 405.503 540.739 407.827 540.751ZM407.827 543.339C406.186 543.339 404.79 543.459 403.64 543.698C402.489 543.926 401.615 544.279 401.016 544.759C400.417 545.238 400.117 545.825 400.117 546.52C400.117 547.203 400.417 547.778 401.016 548.245C401.615 548.7 402.489 549.048 403.64 549.287C404.79 549.527 406.186 549.647 407.827 549.647C409.456 549.647 410.846 549.527 411.996 549.287C413.147 549.048 414.021 548.694 414.62 548.227C415.219 547.748 415.519 547.179 415.519 546.52C415.519 545.825 415.219 545.238 414.62 544.759C414.021 544.279 413.147 543.926 411.996 543.698C410.846 543.459 409.456 543.339 407.827 543.339ZM407.845 520.893C410.169 520.893 412.194 521.138 413.919 521.629C415.657 522.121 416.992 522.833 417.927 523.768C418.861 524.703 419.329 525.805 419.329 527.075C419.329 528.345 418.861 529.447 417.927 530.381C416.992 531.304 415.657 532.011 413.919 532.502C412.194 532.993 410.169 533.239 407.845 533.239C405.509 533.239 403.472 532.993 401.735 532.502C400.009 532.011 398.674 531.304 397.727 530.381C396.781 529.447 396.307 528.345 396.307 527.075C396.307 525.805 396.781 524.703 397.727 523.768C398.674 522.833 400.009 522.121 401.735 521.629C403.472 521.138 405.509 520.893 407.845 520.893ZM407.845 523.624C406.192 523.6 404.766 523.726 403.568 524.002C402.37 524.265 401.447 524.661 400.8 525.188C400.165 525.715 399.848 526.344 399.848 527.075C399.848 527.806 400.165 528.435 400.8 528.962C401.447 529.489 402.364 529.89 403.55 530.166C404.748 530.429 406.18 530.561 407.845 530.561C409.486 530.561 410.906 530.429 412.104 530.166C413.302 529.89 414.219 529.489 414.854 528.962C415.501 528.435 415.824 527.806 415.824 527.075C415.824 526.344 415.507 525.715 414.872 525.188C414.237 524.661 413.314 524.265 412.104 524.002C410.906 523.726 409.486 523.6 407.845 523.624Z" fill="#3771B1"/>
<path d="M378.407 531.585H356.285V528.8H378.407V531.585ZM359.681 530.058H356.285V520.712H359.681V530.058ZM381.768 537.803H352.367V535.018H381.768V537.803ZM367.032 540.427C369.356 540.427 371.351 540.655 373.016 541.11C374.681 541.553 375.951 542.218 376.826 543.105C377.713 543.991 378.156 545.058 378.156 546.304C378.156 547.538 377.713 548.592 376.826 549.467C375.951 550.353 374.681 551.024 373.016 551.479C371.351 551.947 369.356 552.18 367.032 552.18C364.707 552.18 362.706 551.947 361.029 551.479C359.352 551.024 358.07 550.353 357.183 549.467C356.297 548.592 355.853 547.538 355.853 546.304C355.853 545.058 356.297 543.991 357.183 543.105C358.07 542.218 359.352 541.553 361.029 541.11C362.706 540.655 364.707 540.427 367.032 540.427ZM367.032 543.087C365.39 543.087 363.988 543.213 362.826 543.464C361.664 543.704 360.79 544.063 360.202 544.542C359.615 545.022 359.322 545.609 359.322 546.304C359.322 546.987 359.621 547.574 360.22 548.065C360.819 548.544 361.694 548.915 362.844 549.179C363.994 549.431 365.39 549.556 367.032 549.556C368.649 549.556 370.033 549.431 371.183 549.179C372.345 548.915 373.226 548.544 373.825 548.065C374.424 547.574 374.723 546.987 374.723 546.304C374.723 545.609 374.424 545.022 373.825 544.542C373.226 544.063 372.351 543.704 371.201 543.464C370.063 543.213 368.673 543.087 367.032 543.087Z" fill="#3771B1"/>
<path d="M331.754 529.608C331.754 531.921 331.353 534.185 330.55 536.402C329.747 538.606 328.645 540.571 327.243 542.296C325.841 544.009 324.254 545.297 322.481 546.16L320.468 543.482C322.061 542.716 323.505 541.595 324.799 540.122C326.093 538.636 327.105 536.977 327.836 535.144C328.579 533.299 328.95 531.453 328.95 529.608V524.828H331.754V529.608ZM332.401 529.608C332.401 531.382 332.76 533.143 333.479 534.892C334.21 536.641 335.222 538.199 336.516 539.565C337.822 540.93 339.29 541.967 340.919 542.674L339.032 545.351C337.211 544.537 335.588 543.327 334.162 541.721C332.748 540.116 331.646 538.265 330.855 536.168C330.077 534.071 329.687 531.885 329.687 529.608V524.828H332.401V529.608ZM339.769 526.176H321.6V523.372H339.769V526.176ZM347.245 552.306H343.813V520.102H347.245V552.306Z" fill="#3771B1"/>
<path d="M303.287 540.373C305.623 540.373 307.642 540.607 309.344 541.074C311.045 541.529 312.357 542.206 313.279 543.105C314.202 544.003 314.663 545.081 314.663 546.339C314.663 547.561 314.202 548.616 313.279 549.502C312.357 550.389 311.039 551.072 309.326 551.551C307.612 552.03 305.599 552.27 303.287 552.27C300.987 552.27 298.986 552.03 297.285 551.551C295.583 551.072 294.272 550.389 293.349 549.502C292.426 548.616 291.965 547.561 291.965 546.339C291.965 545.093 292.426 544.021 293.349 543.123C294.272 542.212 295.583 541.529 297.285 541.074C298.986 540.607 300.987 540.373 303.287 540.373ZM303.287 542.943C301.67 542.943 300.262 543.081 299.064 543.356C297.866 543.62 296.943 544.009 296.296 544.524C295.661 545.027 295.344 545.633 295.344 546.339C295.344 547.01 295.661 547.597 296.296 548.101C296.943 548.592 297.866 548.969 299.064 549.233C300.262 549.484 301.67 549.61 303.287 549.61C304.929 549.61 306.342 549.484 307.528 549.233C308.726 548.969 309.649 548.586 310.296 548.083C310.943 547.579 311.266 546.998 311.266 546.339C311.266 545.633 310.943 545.027 310.296 544.524C309.649 544.009 308.726 543.62 307.528 543.356C306.342 543.081 304.929 542.943 303.287 542.943ZM312.992 524.432H292.217V521.701H312.992V524.432ZM318.078 537.695H288.802V534.928H318.078V537.695ZM303.898 535.736H300.538V528.889H303.898V535.736ZM314.447 524.378C314.447 526.128 314.393 527.625 314.286 528.871C314.19 530.105 313.938 531.471 313.531 532.969L310.188 532.591C310.572 531.106 310.805 529.782 310.889 528.62C310.985 527.458 311.039 526.044 311.051 524.378V521.701H314.447V524.378Z" fill="#3771B1"/>
<path d="M283.645 543.554H280.248V520.137H283.645V543.554ZM284.615 551.677H262.601V548.855H284.615V551.677ZM266.015 549.88H262.601V541.182H266.015V549.88ZM266.177 522.312C267.782 522.312 269.238 522.653 270.544 523.336C271.862 524.007 272.892 524.954 273.635 526.176C274.378 527.386 274.749 528.757 274.749 530.291C274.749 531.849 274.378 533.232 273.635 534.442C272.892 535.652 271.862 536.599 270.544 537.282C269.238 537.965 267.782 538.306 266.177 538.306C264.571 538.306 263.116 537.965 261.81 537.282C260.516 536.599 259.491 535.652 258.737 534.442C257.982 533.232 257.604 531.849 257.604 530.291C257.604 528.757 257.982 527.386 258.737 526.176C259.491 524.954 260.516 524.007 261.81 523.336C263.116 522.653 264.571 522.312 266.177 522.312ZM266.177 525.295C265.194 525.295 264.302 525.505 263.499 525.924C262.696 526.343 262.067 526.93 261.612 527.685C261.169 528.44 260.947 529.309 260.947 530.291C260.947 531.273 261.169 532.148 261.612 532.915C262.067 533.682 262.696 534.275 263.499 534.694C264.302 535.113 265.194 535.323 266.177 535.323C267.159 535.323 268.046 535.113 268.837 534.694C269.627 534.275 270.25 533.682 270.706 532.915C271.161 532.148 271.389 531.273 271.389 530.291C271.389 529.309 271.161 528.44 270.706 527.685C270.25 526.93 269.627 526.343 268.837 525.924C268.046 525.505 267.159 525.295 266.177 525.295Z" fill="#3771B1"/>
<path d="M235.428 529.968H230.036V527.236H235.428V529.968ZM219.685 533.598C222.213 533.61 224.321 533.568 226.011 533.472C227.7 533.364 229.425 533.154 231.186 532.843L231.528 535.467C229.635 535.778 227.808 536 226.047 536.132C224.285 536.252 222.165 536.317 219.685 536.329H217.582V533.598H219.685ZM229.856 524.72H220.799V535.359H217.582V522.042H229.856V524.72ZM228.563 530.309H219.828V527.721H228.563V530.309ZM243.605 537.426H240.352V520.137H243.605V537.426ZM237.297 537.174H234.026V520.694H237.297V537.174ZM243.605 546.519H225.453V551.066H222.057V544.021H240.244V541.469H222.003V538.791H243.605V546.519ZM244.827 552H222.057V549.305H244.827V552Z" fill="#00285A"/>
<path d="M211.04 543.554H207.644V520.137H211.04V543.554ZM212.011 551.677H189.996V548.855H212.011V551.677ZM193.411 549.88H189.996V541.182H193.411V549.88ZM193.572 522.312C195.178 522.312 196.633 522.653 197.939 523.336C199.257 524.007 200.288 524.954 201.03 526.176C201.773 527.386 202.145 528.757 202.145 530.291C202.145 531.849 201.773 533.232 201.03 534.442C200.288 535.652 199.257 536.599 197.939 537.282C196.633 537.965 195.178 538.306 193.572 538.306C191.967 538.306 190.511 537.965 189.205 537.282C187.911 536.599 186.887 535.652 186.132 534.442C185.377 533.232 185 531.849 185 530.291C185 528.757 185.377 527.386 186.132 526.176C186.887 524.954 187.911 524.007 189.205 523.336C190.511 522.653 191.967 522.312 193.572 522.312ZM193.572 525.295C192.59 525.295 191.697 525.505 190.895 525.924C190.092 526.343 189.463 526.93 189.008 527.685C188.564 528.44 188.343 529.309 188.343 530.291C188.343 531.273 188.564 532.148 189.008 532.915C189.463 533.682 190.092 534.275 190.895 534.694C191.697 535.113 192.59 535.323 193.572 535.323C194.555 535.323 195.441 535.113 196.232 534.694C197.023 534.275 197.646 533.682 198.101 532.915C198.556 532.148 198.784 531.273 198.784 530.291C198.784 529.309 198.556 528.44 198.101 527.685C197.646 526.93 197.023 526.343 196.232 525.924C195.441 525.505 194.555 525.295 193.572 525.295Z" fill="#00285A"/>
<g clip-path="url(#clip0_92_8)">
<path d="M509.959 236.968H520.858V330.396H510.087V319.982C507.153 323.724 503.638 326.612 499.514 328.661C495.39 330.709 490.982 331.734 486.291 331.734C477.334 331.734 469.823 328.59 463.757 322.33C457.677 316.056 454.644 308.074 454.644 298.371C454.644 288.669 457.776 280.46 464.012 274.015C470.262 267.556 477.958 264.34 487.085 264.34C491.521 264.34 495.702 265.251 499.642 267.072C503.582 268.893 507.026 271.497 509.945 274.883V236.968H509.959ZM487.496 322.259C493.959 322.259 499.401 319.925 503.78 315.245C508.173 310.578 510.356 304.816 510.356 297.959C510.356 291.101 508.23 285.283 503.978 280.744C499.727 276.206 494.398 273.944 488.02 273.944C481.643 273.944 476.101 276.163 471.935 280.616C467.768 285.069 465.685 290.902 465.685 298.101C465.685 305.3 467.725 311.133 471.793 315.586C475.875 320.039 481.104 322.259 487.482 322.259" fill="#2B66AE"/>
<path d="M535.71 244.309H547.672V256.188H535.71V244.309ZM536.249 265.934H547.148V330.396H536.249V265.934Z" fill="#2B66AE"/>
<path d="M614.566 322.799V318.261C611.646 321.817 608.117 324.577 603.993 326.541C599.869 328.504 595.461 329.471 590.77 329.471C581.728 329.471 574.189 326.441 568.165 320.395C562.142 314.348 559.123 306.566 559.123 297.034C559.123 287.502 562.199 279.791 568.364 273.616C574.529 267.428 582.125 264.34 591.167 264.34C595.773 264.34 600.124 265.322 604.192 267.271C608.259 269.234 611.774 271.994 614.693 275.537V265.934H625.464V322.401C625.464 333.085 622.63 341.081 616.961 346.43C611.292 351.765 602.732 354.44 591.295 354.44H575.081V345.093H591.833C599.359 345.093 605.042 343.229 608.854 339.487C612.667 335.746 614.566 330.197 614.566 322.799ZM592.372 319.854C598.764 319.854 604.135 317.649 608.528 313.253C612.908 308.842 615.104 303.436 615.104 297.034C615.104 290.632 612.908 284.955 608.528 280.545C604.135 276.149 598.764 273.944 592.372 273.944C585.98 273.944 580.354 276.035 576.286 280.218C572.204 284.4 570.178 289.963 570.178 296.906C570.178 303.849 572.233 309.298 576.357 313.523C580.481 317.748 585.824 319.868 592.386 319.868" fill="#2B66AE"/>
<path d="M640.331 244.309H652.293V256.188H640.331V244.309ZM640.856 265.934H651.754V330.396H640.856V265.934Z" fill="#2B66AE"/>
<path d="M669.796 313.181V275.537H661.023V265.934H669.796V246.172H680.567V265.919H695.462V275.523H680.567V312.228C680.567 315.074 681.204 317.193 682.494 318.573C683.77 319.954 685.754 320.636 688.404 320.636H695.448V330.382H686.803C680.864 330.382 676.542 329.002 673.835 326.242C671.128 323.482 669.781 319.128 669.781 313.167" fill="#2B66AE"/>
<path d="M761.732 330.396H751.23V319.854C748.665 323.596 745.179 326.512 740.8 328.604C736.406 330.695 731.687 331.748 726.641 331.748C719.541 331.748 713.787 329.941 709.351 326.342C704.915 322.742 702.704 318.005 702.704 312.129C702.704 305.641 705.184 300.719 710.145 297.376C715.105 294.032 722.46 292.368 732.211 292.368H751.089C751.004 286.321 749.431 281.641 746.369 278.354C743.308 275.068 738.943 273.417 733.274 273.417C729.901 273.417 726.585 274.129 723.311 275.551C720.023 276.974 716.791 279.151 713.603 282.096L707.891 274.883C711.619 271.326 715.686 268.637 720.122 266.816C724.558 264.995 729.292 264.084 734.351 264.084C742.94 264.084 749.657 266.645 754.49 271.753C759.323 276.875 761.732 283.917 761.732 292.908V330.411V330.396ZM751.089 300.776H732.339C725.862 300.776 721.072 301.672 717.982 303.451C714.878 305.229 713.333 308.032 713.333 311.859C713.333 315.06 714.68 317.734 717.387 319.868C720.094 322.003 723.566 323.07 727.818 323.07C734.195 323.07 739.581 321.007 743.974 316.867C748.368 312.727 750.734 307.363 751.089 300.776Z" fill="#2B66AE"/>
<path d="M787.526 236.968H776.627V330.396H787.526V236.968Z" fill="#2B66AE"/>
<path d="M457.578 386.892H468.222V395.029C470.177 392.184 472.7 390.05 475.804 388.627C478.908 387.205 482.578 386.493 486.844 386.493H492.697V396.765H486.717C480.608 396.765 476.016 398.373 472.955 401.574C469.894 404.775 468.377 409.626 468.377 416.128V451.368H457.606V386.906L457.578 386.892Z" fill="#2B66AE"/>
<path d="M530.679 444.155C534.931 444.155 538.857 443.245 542.442 441.424C546.028 439.603 549.33 436.814 552.349 433.073L558.868 439.076C555.226 443.885 550.974 447.47 546.099 449.818C541.223 452.179 535.767 453.36 529.744 453.36C520.078 453.36 512.17 450.188 506.005 443.814C499.84 437.455 496.765 429.288 496.765 419.315C496.765 409.342 499.911 401.517 506.203 395.03C512.496 388.542 520.248 385.284 529.475 385.284C538.701 385.284 546.496 388.357 552.349 394.489C558.202 400.635 561.122 408.645 561.122 418.518C561.122 419.23 561.079 420.055 560.994 420.994C560.909 421.933 560.81 422.616 560.725 423.057H507.947C508.655 429.374 511.121 434.467 515.331 438.337C519.54 442.206 524.656 444.141 530.679 444.141M529.616 394.503C524.032 394.503 519.242 396.324 515.26 399.981C511.263 403.637 508.825 408.531 507.947 414.663H550.223C549.429 408.431 547.162 403.523 543.449 399.91C539.721 396.31 535.115 394.503 529.616 394.503Z" fill="#2B66AE"/>
<path d="M626.924 451.354H616.422V440.812C613.843 444.554 610.371 447.47 605.991 449.561C601.598 451.653 596.879 452.706 591.833 452.706C584.747 452.706 578.979 450.899 574.557 447.299C570.121 443.7 567.91 438.962 567.91 433.087C567.91 426.585 570.39 421.677 575.351 418.333C580.311 414.99 587.667 413.325 597.417 413.325H616.295C616.21 407.279 614.637 402.598 611.575 399.312C608.514 396.011 604.149 394.375 598.48 394.375C595.107 394.375 591.791 395.086 588.503 396.509C585.229 397.932 581.983 400.108 578.795 403.053L573.083 395.84C576.81 392.284 580.878 389.595 585.314 387.774C589.75 385.953 594.483 385.028 599.543 385.028C608.131 385.028 614.849 387.589 619.682 392.696C624.515 397.818 626.924 404.86 626.924 413.852V451.354ZM616.295 421.733H597.545C591.068 421.733 586.292 422.616 583.188 424.394C580.084 426.172 578.539 428.975 578.539 432.802C578.539 436.003 579.886 438.678 582.593 440.812C585.3 442.946 588.772 444.013 593.024 444.013C599.401 444.013 604.787 441.95 609.18 437.81C613.574 433.67 615.94 428.306 616.295 421.719" fill="#2B66AE"/>
<path d="M693.308 357.925H704.206V451.354H693.435V440.94C690.516 444.681 686.987 447.57 682.863 449.618C678.739 451.667 674.331 452.691 669.64 452.691C660.683 452.691 653.172 449.547 647.106 443.273C641.026 436.999 637.993 429.018 637.993 419.315C637.993 409.612 641.125 401.403 647.361 394.958C653.611 388.513 661.307 385.284 670.434 385.284C674.87 385.284 679.05 386.194 682.99 388.015C686.93 389.836 690.374 392.44 693.294 395.826V357.925H693.308ZM670.845 443.216C677.307 443.216 682.749 440.883 687.129 436.202C691.522 431.536 693.705 425.774 693.705 418.916C693.705 412.059 691.579 406.24 687.327 401.702C683.075 397.163 677.761 394.901 671.369 394.901C664.977 394.901 659.45 397.121 655.283 401.574C651.117 406.027 649.033 411.846 649.033 419.059C649.033 426.272 651.074 432.091 655.142 436.544C659.223 440.997 664.453 443.216 670.83 443.216" fill="#2B66AE"/>
<path d="M719.059 365.267H731.021V377.146H719.059V365.267ZM719.598 386.892H730.496V451.354H719.598V386.892Z" fill="#2B66AE"/>
<path d="M745.958 386.892H756.602V396.908C759.167 393.166 762.427 390.292 766.381 388.3C770.321 386.294 774.728 385.298 779.604 385.298C788.121 385.298 794.768 388.058 799.544 393.578C804.334 399.099 806.73 406.653 806.73 416.27V451.368H795.959V416.939C795.959 410.181 794.3 404.846 790.97 400.92C787.639 397.007 783.019 395.044 777.081 395.044C771.143 395.044 766.041 397.135 762.327 401.318C758.6 405.501 756.743 410.921 756.743 417.608V451.383H745.972V386.92L745.958 386.892Z" fill="#2B66AE"/>
<path d="M851.458 444.155C855.71 444.155 859.635 443.245 863.221 441.424C866.807 439.603 870.109 436.814 873.127 433.073L879.647 439.076C876.004 443.885 871.753 447.47 866.877 449.818C862.002 452.179 856.546 453.36 850.522 453.36C840.857 453.36 832.949 450.188 826.798 443.814C820.633 437.455 817.557 429.288 817.557 419.315C817.557 409.342 820.704 401.517 826.996 395.03C833.289 388.542 841.041 385.284 850.267 385.284C859.494 385.284 867.288 388.357 873.142 394.489C878.995 400.635 881.914 408.645 881.914 418.518C881.914 419.23 881.872 420.055 881.787 420.994C881.702 421.933 881.603 422.616 881.517 423.057H828.739C829.448 429.374 831.914 434.467 836.123 438.337C840.332 442.206 845.449 444.141 851.486 444.141M850.381 394.503C844.797 394.503 840.006 396.324 836.024 399.981C832.042 403.637 829.59 408.531 828.711 414.663H870.987C870.194 408.431 867.926 403.523 864.213 399.91C860.486 396.31 855.88 394.503 850.381 394.503Z" fill="#2B66AE"/>
<path d="M944.386 432.546C944.386 438.592 941.807 443.529 936.677 447.356C931.532 451.183 924.843 453.09 916.594 453.09C911.18 453.09 906.107 452.222 901.373 450.486C896.625 448.75 892.359 446.147 888.547 442.676L894.131 434.395C898.213 437.781 902.025 440.229 905.568 441.737C909.111 443.245 912.881 443.999 916.878 443.999C922.008 443.999 926.161 442.989 929.307 440.997C932.453 438.991 934.026 436.387 934.026 433.186C934.026 429.985 932.694 427.51 930.044 426.044C927.38 424.579 923 423.796 916.878 423.711C907.921 423.355 901.387 421.705 897.263 418.774C893.139 415.843 891.084 411.262 891.084 405.031C891.084 399.34 893.451 394.603 898.199 390.818C902.946 387.034 909.04 385.142 916.481 385.142C921.54 385.142 926.274 385.953 930.71 387.546C935.146 389.154 939.171 391.515 942.813 394.617L937.626 402.755C933.984 399.81 930.483 397.676 927.124 396.352C923.751 395.015 920.166 394.346 916.353 394.346C912.002 394.346 908.445 395.328 905.653 397.277C902.861 399.241 901.472 401.631 901.472 404.49C901.472 407.606 902.705 409.868 905.2 411.291C907.68 412.714 911.62 413.553 917.034 413.823C926.699 414.094 933.672 415.687 937.98 418.632C942.275 421.577 944.429 426.201 944.429 432.517" fill="#2B66AE"/>
<path d="M1007 432.546C1007 438.592 1004.42 443.529 999.29 447.356C994.146 451.183 987.456 453.09 979.208 453.09C973.794 453.09 968.72 452.222 963.987 450.486C959.239 448.75 954.973 446.147 951.161 442.676L956.745 434.395C960.826 437.781 964.639 440.229 968.182 441.737C971.725 443.245 975.495 443.999 979.477 443.999C984.622 443.999 988.76 442.989 991.906 440.997C995.053 438.991 996.626 436.387 996.626 433.186C996.626 429.985 995.294 427.51 992.643 426.044C989.979 424.579 985.6 423.796 979.477 423.711C970.52 423.355 963.987 421.705 959.863 418.774C955.738 415.843 953.683 411.262 953.683 405.031C953.683 399.34 956.05 394.603 960.798 390.818C965.532 387.034 971.64 385.142 979.08 385.142C984.14 385.142 988.874 385.953 993.309 387.546C997.745 389.154 1001.77 391.515 1005.41 394.617L1000.23 402.755C996.597 399.81 993.097 397.676 989.724 396.352C986.351 395.015 982.765 394.346 978.953 394.346C974.602 394.346 971.045 395.328 968.253 397.277C965.461 399.241 964.072 401.631 964.072 404.49C964.072 407.606 965.305 409.868 967.799 411.291C970.279 412.714 974.219 413.553 979.633 413.823C989.299 414.094 996.272 415.687 1000.57 418.632C1004.86 421.577 1007.01 426.201 1007.01 432.517" fill="#2B66AE"/>
<path d="M202.871 237.309H185V255.249H202.871V237.309Z" fill="#0068B6"/>
<path d="M202.404 266.104H185.468V330.624H202.404V266.104ZM314.621 331.278V315.458C312.127 315.443 310.072 315.301 308.498 315.059C306.755 314.789 305.423 314.192 304.53 313.295C303.637 312.399 303.042 311.104 302.773 309.44C302.504 307.846 302.376 305.755 302.376 303.208V280.644H314.635V266.104H302.376V240.979H285.44V303.351C285.44 308.615 285.893 313.082 286.786 316.653C287.679 320.167 289.196 323.055 291.293 325.203C293.391 327.366 296.183 328.931 299.556 329.855C302.971 330.794 307.322 331.278 312.467 331.278H314.607H314.621ZM411.659 236H394.723V330.624H411.659V236ZM269.113 272.464C264.422 267.385 257.804 264.795 249.428 264.795C245.389 264.795 241.647 265.635 238.317 267.285C234.986 268.935 232.152 271.254 229.898 274.171L228.977 275.366V274.285V266.104H212.282V330.624H229.119V296.251V298.641C229.119 298.243 229.133 297.859 229.147 297.475C229.317 291.443 230.819 286.947 233.611 284.101C236.588 281.057 240.202 279.52 244.354 279.52C249.244 279.52 252.971 281.028 255.437 283.988C257.86 286.89 259.093 291.058 259.122 296.351V330.638H276.214V294.018C276.214 284.827 273.833 277.571 269.128 272.478M385.908 298.229C385.908 293.605 385.086 289.223 383.456 285.183C381.841 281.156 379.545 277.571 376.639 274.527C373.748 271.496 370.219 269.078 366.166 267.371C362.113 265.663 357.592 264.781 352.716 264.781C348.11 264.781 343.717 265.677 339.664 267.427C335.61 269.192 332.039 271.596 329.048 274.598C326.058 277.6 323.663 281.185 321.906 285.254C320.162 289.323 319.27 293.733 319.27 298.357C319.27 302.981 320.12 307.405 321.778 311.46C323.436 315.529 325.775 319.114 328.723 322.102C331.67 325.104 335.284 327.508 339.465 329.272C343.646 331.022 348.28 331.918 353.241 331.918C367.569 331.918 376.498 325.374 381.827 319.256L369.638 309.938C367.073 312.996 360.979 317.151 353.354 317.151C348.578 317.151 344.638 316.041 341.662 313.85C338.672 311.659 336.617 308.643 335.554 304.901L335.384 304.304H385.88V298.229H385.908ZM335.554 292.325C335.554 287.601 340.953 279.35 352.603 279.335C364.253 279.335 369.667 287.573 369.667 292.296H335.568L335.554 292.325Z" fill="#00285A"/>
<path d="M430.948 321.704C430.622 320.95 430.169 320.281 429.602 319.712C429.035 319.143 428.369 318.687 427.618 318.36C426.866 318.033 426.044 317.862 425.18 317.862C424.315 317.862 423.508 318.033 422.742 318.36C421.991 318.687 421.325 319.143 420.758 319.712C420.191 320.281 419.738 320.95 419.412 321.704C419.086 322.458 418.916 323.283 418.916 324.151C418.916 325.018 419.086 325.829 419.412 326.598C419.738 327.352 420.191 328.02 420.758 328.589C421.325 329.159 421.991 329.614 422.742 329.941C423.508 330.268 424.315 330.439 425.18 330.439C426.044 330.439 426.852 330.268 427.618 329.941C428.369 329.614 429.035 329.159 429.602 328.589C430.169 328.02 430.622 327.352 430.948 326.598C431.274 325.829 431.444 325.018 431.444 324.151C431.444 323.283 431.274 322.472 430.948 321.704ZM429.928 326.157C429.658 326.783 429.29 327.337 428.822 327.807C428.355 328.276 427.802 328.646 427.178 328.917C426.555 329.187 425.874 329.315 425.18 329.315C424.486 329.315 423.805 329.187 423.182 328.917C422.558 328.646 422.005 328.276 421.538 327.807C421.07 327.337 420.701 326.797 420.432 326.157C420.163 325.531 420.035 324.848 420.035 324.151C420.035 323.454 420.163 322.771 420.432 322.145C420.701 321.519 421.07 320.964 421.538 320.494C422.005 320.025 422.558 319.655 423.182 319.385C423.805 319.114 424.486 318.986 425.18 318.986C425.874 318.986 426.555 319.114 427.178 319.385C427.802 319.655 428.355 320.025 428.822 320.494C429.29 320.964 429.658 321.504 429.928 322.145C430.197 322.771 430.325 323.454 430.325 324.151C430.325 324.848 430.197 325.531 429.928 326.157ZM426.356 324.649C426.838 324.592 427.249 324.407 427.575 324.094C427.901 323.781 428.057 323.297 428.057 322.671C428.057 321.974 427.859 321.433 427.448 321.063C427.037 320.693 426.399 320.509 425.534 320.509H422.771V327.693H424.089V324.748H425.052L426.838 327.693H428.213L426.356 324.649ZM425.648 323.61C425.449 323.624 425.251 323.638 425.038 323.638H424.075V321.632H425.038C425.237 321.632 425.449 321.632 425.648 321.647C425.846 321.647 426.03 321.704 426.2 321.76C426.37 321.832 426.498 321.931 426.597 322.059C426.696 322.202 426.753 322.386 426.753 322.614C426.753 322.842 426.696 323.041 426.597 323.169C426.498 323.297 426.37 323.411 426.2 323.468C426.044 323.539 425.86 323.582 425.648 323.596" fill="#00285A"/>
</g>
<defs>
<clipPath id="clip0_92_8">
<rect width="822" height="217.36" fill="white" transform="translate(185 236)"/>
</clipPath>
</defs>
</svg>
