<svg width="844" height="222" viewBox="0 0 844 222" fill="none" xmlns="http://www.w3.org/2000/svg">
<g clip-path="url(#clip0_250_745)">
<path d="M333.656 0.988281H344.847V96.4114H333.787V85.7749C330.775 89.5965 327.166 92.5462 322.932 94.6386C318.697 96.731 314.172 97.7773 309.355 97.7773C300.158 97.7773 292.446 94.566 286.218 88.1725C279.975 81.7644 276.861 73.6127 276.861 63.7028C276.861 53.7928 280.077 45.4086 286.48 38.8262C292.897 32.2293 300.799 28.9453 310.17 28.9453C314.725 28.9453 319.017 29.8753 323.063 31.7352C327.108 33.5952 330.644 36.2543 333.642 39.7126V0.988281H333.656ZM310.592 88.0998C317.228 88.0998 322.815 85.7168 327.312 80.9362C331.823 76.1701 334.064 70.2852 334.064 63.2814C334.064 56.2776 331.881 50.3345 327.516 45.6992C323.15 41.0639 317.679 38.7536 311.13 38.7536C304.582 38.7536 298.892 41.0204 294.614 45.5685C290.336 50.1166 288.197 56.0742 288.197 63.4267C288.197 70.7792 290.292 76.7368 294.469 81.2849C298.66 85.833 304.029 88.0998 310.577 88.0998" fill="#2B66AE"/>
<path d="M360.097 8.48633H372.379V20.6195H360.097V8.48633ZM360.65 30.573H371.84V96.4116H360.65V30.573Z" fill="#2B66AE"/>
<path d="M441.063 88.6519V84.0167C438.065 87.6493 434.442 90.4683 430.207 92.4735C425.973 94.4788 421.447 95.4668 416.63 95.4668C407.346 95.4668 399.605 92.3718 393.42 86.1963C387.236 80.0207 384.136 72.0724 384.136 62.3369C384.136 52.6013 387.294 44.7257 393.624 38.4193C399.954 32.0985 407.754 28.9453 417.038 28.9453C421.767 28.9453 426.235 29.9479 430.411 31.9386C434.587 33.9439 438.196 36.7628 441.194 40.381V30.5728H452.253V88.2451C452.253 99.1576 449.343 107.324 443.522 112.787C437.701 118.236 428.912 120.968 417.169 120.968H400.522V111.422H417.722C425.449 111.422 431.284 109.518 435.198 105.696C439.113 101.875 441.063 96.2079 441.063 88.6519ZM418.275 85.6441C424.838 85.6441 430.353 83.3918 434.864 78.9018C439.36 74.3973 441.616 68.8757 441.616 62.3369C441.616 55.798 439.36 50.0003 434.864 45.4958C430.353 41.0058 424.838 38.7535 418.275 38.7535C411.712 38.7535 405.935 40.8895 401.759 45.1616C397.568 49.4336 395.487 55.1151 395.487 62.2061C395.487 69.2971 397.597 74.8623 401.831 79.1779C406.066 83.4936 411.552 85.6586 418.289 85.6586" fill="#2B66AE"/>
<path d="M467.518 8.48633H479.799V20.6195H467.518V8.48633ZM468.056 30.573H479.247V96.4116H468.056V30.573Z" fill="#2B66AE"/>
<path d="M497.771 78.8292V40.381H488.763V30.5728H497.771V10.3896H508.83V30.5583H524.124V40.3665H508.83V77.8557C508.83 80.7618 509.485 82.9269 510.809 84.3364C512.119 85.7458 514.156 86.4433 516.877 86.4433H524.109V96.3968H515.233C509.136 96.3968 504.697 94.9874 501.918 92.1684C499.139 89.3495 497.756 84.9031 497.756 78.8147" fill="#2B66AE"/>
<path d="M592.168 96.4112H581.385V85.6439C578.751 89.4655 575.171 92.4443 570.675 94.5803C566.164 96.7163 561.318 97.7916 556.138 97.7916C548.847 97.7916 542.939 95.9462 538.385 92.2699C533.83 88.5937 531.56 83.7549 531.56 77.7538C531.56 71.1278 534.106 66.1001 539.199 62.6854C544.293 59.2707 551.845 57.5706 561.856 57.5706H581.239C581.152 51.3951 579.537 46.6145 576.394 43.2579C573.25 39.9013 568.769 38.2157 562.948 38.2157C559.485 38.2157 556.079 38.9423 552.718 40.3953C549.342 41.8484 546.024 44.0716 542.75 47.0795L536.886 39.7124C540.713 36.0797 544.889 33.3334 549.444 31.4735C553.999 29.6136 558.859 28.6836 564.054 28.6836C572.872 28.6836 579.77 31.2991 584.732 36.5156C589.694 41.7467 592.168 48.9394 592.168 58.1228V96.4257V96.4112ZM581.239 66.1583H561.987C555.337 66.1583 550.419 67.0737 547.247 68.89C544.06 70.7064 542.474 73.5689 542.474 77.4777C542.474 80.7471 543.856 83.4789 546.635 85.6585C549.415 87.8381 552.98 88.9279 557.345 88.9279C563.894 88.9279 569.423 86.8209 573.934 82.5925C578.445 78.3641 580.876 72.886 581.239 66.1583Z" fill="#2B66AE"/>
<path d="M618.652 0.988281H607.462V96.4114H618.652V0.988281Z" fill="#2B66AE"/>
<path d="M279.873 154.113H290.802V162.424C292.81 159.518 295.4 157.339 298.587 155.886C301.774 154.433 305.543 153.706 309.923 153.706H315.932V164.197H309.792C303.52 164.197 298.805 165.839 295.662 169.109C292.519 172.378 290.962 177.333 290.962 183.974V219.966H279.902V154.127L279.873 154.113Z" fill="#2B66AE"/>
<path d="M354.931 212.599C359.296 212.599 363.327 211.669 367.009 209.809C370.69 207.949 374.081 205.101 377.181 201.279L383.874 207.411C380.134 212.323 375.769 215.984 370.763 218.382C365.757 220.794 360.155 222 353.971 222C344.046 222 335.926 218.76 329.596 212.25C323.266 205.755 320.109 197.414 320.109 187.228C320.109 177.042 323.339 169.05 329.8 162.424C336.261 155.798 344.221 152.471 353.694 152.471C363.167 152.471 371.171 155.609 377.181 161.872C383.19 168.149 386.188 176.33 386.188 186.414C386.188 187.141 386.144 187.984 386.057 188.943C385.97 189.902 385.868 190.599 385.781 191.05H331.59C332.318 197.501 334.85 202.703 339.171 206.656C343.493 210.608 348.746 212.584 354.931 212.584M353.84 161.887C348.106 161.887 343.188 163.747 339.099 167.481C334.995 171.215 332.492 176.214 331.59 182.477H374.998C374.183 176.112 371.855 171.099 368.042 167.408C364.215 163.732 359.486 161.887 353.84 161.887Z" fill="#2B66AE"/>
<path d="M453.752 219.951H442.969V209.184C440.321 213.005 436.755 215.984 432.259 218.12C427.748 220.256 422.902 221.332 417.722 221.332C410.446 221.332 404.523 219.486 399.983 215.81C395.429 212.134 393.158 207.295 393.158 201.294C393.158 194.653 395.705 189.64 400.798 186.225C405.891 182.811 413.444 181.111 423.455 181.111H442.838C442.751 174.935 441.135 170.154 437.992 166.798C434.849 163.427 430.367 161.756 424.547 161.756C421.083 161.756 417.678 162.482 414.302 163.935C410.941 165.388 407.608 167.612 404.334 170.619L398.47 163.252C402.297 159.62 406.473 156.873 411.028 155.013C415.583 153.153 420.443 152.209 425.638 152.209C434.456 152.209 441.354 154.825 446.316 160.041C451.278 165.272 453.752 172.465 453.752 181.648V219.951ZM442.838 189.698H423.586C416.936 189.698 412.032 190.599 408.845 192.415C405.658 194.232 404.072 197.094 404.072 201.003C404.072 204.272 405.455 207.004 408.234 209.184C411.013 211.363 414.579 212.453 418.944 212.453C425.492 212.453 431.022 210.346 435.533 206.118C440.044 201.889 442.474 196.411 442.838 189.684" fill="#2B66AE"/>
<path d="M521.912 124.528H533.102V219.951H522.043V209.315C519.045 213.137 515.422 216.086 511.187 218.179C506.953 220.271 502.427 221.317 497.611 221.317C488.414 221.317 480.702 218.106 474.473 211.698C468.231 205.29 465.117 197.138 465.117 187.228C465.117 177.318 468.333 168.934 474.735 162.352C481.153 155.769 489.054 152.471 498.426 152.471C502.98 152.471 507.273 153.401 511.318 155.261C515.364 157.121 518.9 159.78 521.898 163.238V124.528H521.912ZM498.848 211.64C505.483 211.64 511.071 209.257 515.568 204.476C520.079 199.71 522.32 193.825 522.32 186.821C522.32 179.818 520.137 173.875 515.771 169.239C511.406 164.604 505.949 162.294 499.386 162.294C492.823 162.294 487.148 164.56 482.87 169.108C478.592 173.657 476.453 179.6 476.453 186.967C476.453 194.334 478.548 200.277 482.724 204.825C486.915 209.373 492.285 211.64 498.833 211.64" fill="#2B66AE"/>
<path d="M548.353 132.026H560.634V144.159H548.353V132.026ZM548.906 154.113H560.096V219.952H548.906V154.113Z" fill="#2B66AE"/>
<path d="M575.972 154.113H586.9V164.342C589.534 160.521 592.881 157.586 596.941 155.551C600.986 153.503 605.512 152.485 610.517 152.485C619.263 152.485 626.088 155.304 630.992 160.942C635.91 166.58 638.369 174.296 638.369 184.119V219.966H627.31V184.802C627.31 177.9 625.608 172.451 622.188 168.44C618.768 164.444 614.024 162.439 607.927 162.439C601.83 162.439 596.591 164.575 592.779 168.847C588.952 173.119 587.046 178.655 587.046 185.485V219.98H575.986V154.142L575.972 154.113Z" fill="#2B66AE"/>
<path d="M684.295 212.599C688.66 212.599 692.691 211.669 696.373 209.809C700.054 207.949 703.445 205.101 706.544 201.279L713.238 207.411C709.498 212.323 705.133 215.984 700.127 218.382C695.121 220.794 689.519 222 683.334 222C673.41 222 665.29 218.76 658.975 212.25C652.645 205.755 649.487 197.414 649.487 187.228C649.487 177.042 652.718 169.05 659.179 162.424C665.639 155.798 673.599 152.471 683.072 152.471C692.546 152.471 700.549 155.609 706.559 161.872C712.569 168.149 715.566 176.33 715.566 186.414C715.566 187.141 715.523 187.984 715.435 188.943C715.348 189.902 715.246 190.599 715.159 191.05H660.968C661.696 197.501 664.228 202.703 668.55 206.656C672.872 210.608 678.125 212.584 684.324 212.584M683.189 161.887C677.455 161.887 672.537 163.747 668.448 167.481C664.359 171.215 661.842 176.214 660.939 182.477H704.347C703.532 176.112 701.204 171.099 697.391 167.408C693.564 163.732 688.835 161.887 683.189 161.887Z" fill="#2B66AE"/>
<path d="M779.71 200.741C779.71 206.917 777.062 211.959 771.794 215.868C766.512 219.777 759.644 221.724 751.175 221.724C745.616 221.724 740.406 220.837 735.546 219.065C730.671 217.292 726.291 214.633 722.377 211.087L728.11 202.63C732.301 206.089 736.215 208.588 739.853 210.128C743.491 211.669 747.362 212.439 751.466 212.439C756.733 212.439 760.997 211.407 764.227 209.373C767.458 207.324 769.073 204.665 769.073 201.395C769.073 198.126 767.705 195.598 764.984 194.101C762.248 192.604 757.752 191.805 751.466 191.718C742.269 191.355 735.561 189.669 731.326 186.676C727.091 183.682 724.981 179.004 724.981 172.639C724.981 166.827 727.412 161.988 732.286 158.123C737.161 154.258 743.418 152.325 751.058 152.325C756.253 152.325 761.113 153.153 765.668 154.781C770.223 156.423 774.355 158.835 778.095 162.003L772.769 170.314C769.029 167.306 765.435 165.127 761.987 163.775C758.523 162.409 754.842 161.727 750.927 161.727C746.46 161.727 742.807 162.729 739.941 164.72C737.074 166.725 735.648 169.166 735.648 172.087C735.648 175.269 736.914 177.58 739.475 179.033C742.022 180.486 746.067 181.343 751.626 181.619C761.55 181.895 768.709 183.523 773.133 186.53C777.542 189.538 779.754 194.261 779.754 200.712" fill="#2B66AE"/>
<path d="M844 200.741C844 206.917 841.351 211.959 836.084 215.868C830.801 219.777 823.933 221.724 815.464 221.724C809.905 221.724 804.696 220.837 799.835 219.065C794.961 217.292 790.58 214.633 786.666 211.087L792.399 202.63C796.59 206.089 800.505 208.588 804.143 210.128C807.781 211.669 811.651 212.439 815.74 212.439C821.023 212.439 825.272 211.407 828.502 209.373C831.733 207.324 833.348 204.665 833.348 201.395C833.348 198.126 831.98 195.598 829.259 194.101C826.523 192.604 822.027 191.805 815.74 191.718C806.544 191.355 799.835 189.669 795.601 186.676C791.366 183.682 789.256 179.004 789.256 172.639C789.256 166.827 791.686 161.988 796.561 158.123C801.422 154.258 807.693 152.325 815.333 152.325C820.528 152.325 825.388 153.153 829.943 154.781C834.498 156.423 838.63 158.835 842.37 162.003L837.044 170.314C833.319 167.306 829.725 165.127 826.261 163.775C822.798 162.409 819.116 161.727 815.202 161.727C810.735 161.727 807.082 162.729 804.215 164.72C801.349 166.725 799.923 169.166 799.923 172.087C799.923 175.269 801.189 177.58 803.75 179.033C806.296 180.486 810.342 181.343 815.9 181.619C825.825 181.895 832.984 183.523 837.393 186.53C841.803 189.538 844.014 194.261 844.014 200.712" fill="#2B66AE"/>
<path d="M18.3497 1.33691H0V19.6601H18.3497V1.33691Z" fill="#0068B6"/>
<path d="M17.8695 30.747H0.480225V96.6437H17.8695V30.747ZM133.09 97.3121V81.1539C130.529 81.1394 128.419 80.9941 126.804 80.7471C125.014 80.471 123.646 79.8607 122.729 78.9453C121.812 78.0298 121.201 76.7076 120.925 75.0075C120.648 73.38 120.517 71.244 120.517 68.643V45.5973H133.105V30.747H120.517V5.08574H103.128V68.7883C103.128 74.1647 103.594 78.7273 104.51 82.3745C105.427 85.9636 106.984 88.9133 109.138 91.1075C111.292 93.3161 114.158 94.9145 117.622 95.859C121.129 96.818 125.596 97.3121 130.878 97.3121H133.076H133.09ZM232.726 0H215.336V96.6437H232.726V0ZM86.3645 37.2422C81.5479 32.0547 74.7522 29.4101 66.1522 29.4101C62.0049 29.4101 58.1633 30.2674 54.7436 31.953C51.3239 33.6386 48.4136 36.0071 46.0999 38.9859L45.154 40.2064V39.1021V30.747H28.0121V96.6437H45.2995V61.5375V63.9787C45.2995 63.5718 45.3141 63.1795 45.3286 62.7871C45.5033 56.6261 47.0457 52.0344 49.9124 49.1283C52.9683 46.0187 56.679 44.4494 60.9426 44.4494C65.963 44.4494 69.7901 45.9897 72.3221 49.012C74.8104 51.9763 76.0764 56.2338 76.1055 61.6392V96.6582H93.6549V59.2562C93.6549 49.8694 91.2102 42.4587 86.3791 37.2567M206.285 63.5573C206.285 58.8348 205.441 54.3593 203.768 50.2326C202.109 46.1204 199.752 42.4587 196.768 39.3491C193.8 36.2541 190.177 33.7839 186.015 32.0402C181.853 30.2965 177.211 29.3956 172.205 29.3956C167.476 29.3956 162.965 30.311 158.803 32.0983C154.641 33.9001 150.974 36.3558 147.904 39.4218C144.833 42.4878 142.374 46.1495 140.57 50.3053C138.78 54.4611 137.863 58.9656 137.863 63.6881C137.863 68.4105 138.736 72.9296 140.439 77.0708C142.141 81.2266 144.542 84.8883 147.569 87.9398C150.596 91.0058 154.307 93.4614 158.599 95.2633C162.892 97.0505 167.65 97.966 172.744 97.966C187.455 97.966 196.623 91.2818 202.094 85.0336L189.58 75.516C186.946 78.6401 180.689 82.8831 172.86 82.8831C167.956 82.8831 163.911 81.7497 160.855 79.512C157.784 77.2743 155.674 74.1937 154.583 70.3722L154.408 69.7619H206.256V63.5573H206.285ZM154.583 57.527C154.583 52.7028 160.127 44.275 172.089 44.2605C184.05 44.2605 189.609 52.6738 189.609 57.498H154.598L154.583 57.527Z" fill="#00285A"/>
<path d="M252.531 87.5327C252.196 86.7625 251.73 86.0796 251.148 85.4984C250.566 84.9171 249.882 84.4522 249.111 84.1179C248.34 83.7837 247.496 83.6094 246.608 83.6094C245.72 83.6094 244.891 83.7837 244.105 84.1179C243.334 84.4522 242.65 84.9171 242.068 85.4984C241.486 86.0796 241.02 86.7625 240.686 87.5327C240.351 88.3028 240.176 89.1456 240.176 90.0319C240.176 90.9183 240.351 91.7466 240.686 92.5312C241.02 93.3013 241.486 93.9843 242.068 94.5655C242.65 95.1468 243.334 95.6117 244.105 95.9459C244.891 96.2801 245.72 96.4545 246.608 96.4545C247.496 96.4545 248.325 96.2801 249.111 95.9459C249.882 95.6117 250.566 95.1468 251.148 94.5655C251.73 93.9843 252.196 93.3013 252.531 92.5312C252.865 91.7466 253.04 90.9183 253.04 90.0319C253.04 89.1456 252.865 88.3173 252.531 87.5327ZM251.483 92.0808C251.206 92.7201 250.828 93.2868 250.348 93.7663C249.868 94.2458 249.3 94.6236 248.66 94.8997C248.02 95.1758 247.321 95.3066 246.608 95.3066C245.895 95.3066 245.197 95.1758 244.556 94.8997C243.916 94.6236 243.349 94.2458 242.868 93.7663C242.388 93.2868 242.01 92.7347 241.733 92.0808C241.457 91.4414 241.326 90.7439 241.326 90.0319C241.326 89.3199 241.457 88.6225 241.733 87.9831C242.01 87.3438 242.388 86.7771 242.868 86.2976C243.349 85.818 243.916 85.4402 244.556 85.1642C245.197 84.8881 245.895 84.7573 246.608 84.7573C247.321 84.7573 248.02 84.8881 248.66 85.1642C249.3 85.4402 249.868 85.818 250.348 86.2976C250.828 86.7771 251.206 87.3292 251.483 87.9831C251.759 88.6225 251.89 89.3199 251.89 90.0319C251.89 90.7439 251.759 91.4414 251.483 92.0808ZM247.816 90.5405C248.311 90.4824 248.733 90.2935 249.067 89.9738C249.402 89.6541 249.562 89.1601 249.562 88.5207C249.562 87.8087 249.358 87.2566 248.936 86.8788C248.514 86.501 247.86 86.3121 246.972 86.3121H244.134V93.6501H245.488V90.6422H246.477L248.311 93.6501H249.722L247.816 90.5405ZM247.088 89.4798C246.885 89.4943 246.681 89.5088 246.463 89.5088H245.473V87.46H246.463C246.666 87.46 246.885 87.46 247.088 87.4745C247.292 87.4745 247.481 87.5327 247.656 87.5908C247.83 87.6634 247.961 87.7652 248.063 87.8959C248.165 88.0412 248.223 88.2301 248.223 88.4626C248.223 88.6951 248.165 88.8985 248.063 89.0293C247.961 89.1601 247.83 89.2763 247.656 89.3345C247.496 89.4071 247.307 89.4507 247.088 89.4652" fill="#00285A"/>
</g>
<defs>
<clipPath id="clip0_250_745">
<rect width="844" height="222" fill="white"/>
</clipPath>
</defs>
</svg>
