<svg width="64" height="64" viewBox="0 0 64 64" fill="none" xmlns="http://www.w3.org/2000/svg">
<path d="M63.8144 0H0V63.891H63.8144V0Z" fill="#0068B6"/>
<path d="M12.9592 23.9916H9.81757V27.137H12.9592V23.9916Z" fill="#00C7FD"/>
<path d="M12.8856 40.3906V29.0458H9.89941V40.3824H12.8856V40.3906ZM32.6599 40.5052V37.7284C32.2999 37.7284 31.9399 37.7121 31.5881 37.6629C31.3263 37.6383 31.0809 37.5237 30.8845 37.3516C30.7127 37.1632 30.6064 36.9257 30.5737 36.6718C30.5246 36.3114 30.5 35.9428 30.5082 35.5742V31.6178H32.6681V29.054H30.5082V24.639H27.522V35.6069C27.5057 36.3933 27.5875 37.1796 27.7593 37.9496C27.8902 38.5148 28.1602 39.0308 28.5529 39.4486C28.9538 39.8418 29.461 40.1284 30.0091 40.2677C30.7536 40.4479 31.5145 40.5298 32.2836 40.5134H32.6763L32.6599 40.5052ZM49.7589 40.3906V23.7543H46.7645V40.3906H49.7589ZM24.6422 30.1598C23.7341 29.2342 22.4659 28.7427 21.1733 28.8165C20.4942 28.8083 19.8234 28.9557 19.218 29.2506C18.6371 29.5373 18.1298 29.9468 17.729 30.4629L17.5735 30.6759V29.0376H14.6282V40.3742H17.5899V34.5503C17.549 33.6984 17.8271 32.8547 18.3753 32.1994C18.8662 31.6752 19.5534 31.3885 20.2652 31.3967C21.0015 31.3475 21.7214 31.6342 22.2205 32.183C22.6868 32.8056 22.9159 33.5755 22.8668 34.3537V34.3864V40.3824H25.8776V33.9523C25.9676 32.5762 25.5176 31.2247 24.634 30.168L24.6422 30.1598ZM45.2346 34.6977C45.2346 33.9114 45.0955 33.1332 44.8092 32.4042C44.5228 31.7079 44.1138 31.0772 43.6065 30.5284C43.0829 29.9878 42.453 29.5619 41.7575 29.2752C41.0049 28.9639 40.1949 28.8165 39.385 28.8247C38.5914 28.8247 37.806 28.9803 37.0778 29.2834C36.3824 29.5782 35.7443 30.0042 35.2125 30.5366C34.6807 31.069 34.2553 31.7079 33.9607 32.4042C33.6498 33.1332 33.4944 33.9196 33.5026 34.7141C33.5026 35.5004 33.6417 36.2868 33.9362 37.024C34.2143 37.7202 34.6316 38.3592 35.1552 38.8916C35.6952 39.4322 36.3415 39.8581 37.0533 40.1448C37.8223 40.4643 38.6486 40.6199 39.4831 40.6117C41.4139 40.6609 43.2629 39.8499 44.5147 38.3837L42.363 36.7455C41.6266 37.5482 40.5876 38.0069 39.4995 38.0151C38.7714 38.0479 38.0432 37.8431 37.4378 37.4336C36.9142 37.0486 36.5297 36.4916 36.366 35.8527L36.3333 35.7544H45.2264V34.6895L45.2346 34.6977ZM36.3579 33.6574C36.3579 32.8301 37.3069 31.3803 39.3604 31.3721C41.4139 31.3639 42.3711 32.8137 42.3711 33.6492H36.366L36.3579 33.6574ZM53.1623 38.9571C53.0478 38.695 52.8433 38.4902 52.5815 38.3755C52.4506 38.3182 52.3033 38.2854 52.156 38.2854C52.0088 38.2854 51.8615 38.3182 51.7306 38.3755C51.4688 38.4902 51.2643 38.695 51.1497 38.9571C51.0924 39.0882 51.0597 39.2356 51.0597 39.383C51.0597 39.5305 51.0924 39.6779 51.1497 39.809C51.2643 40.0711 51.4688 40.2759 51.7306 40.3906C51.8615 40.4479 52.0088 40.4807 52.156 40.4807C52.3033 40.4807 52.4506 40.4479 52.5815 40.3906C52.8433 40.2759 53.0478 40.0711 53.1623 39.809C53.2851 39.5387 53.2851 39.2274 53.1623 38.9571ZM52.9823 39.7353C52.8923 39.9564 52.7205 40.1284 52.4996 40.2185C52.3851 40.2677 52.2624 40.2841 52.1397 40.2841C52.0169 40.2841 51.8942 40.2595 51.7797 40.2185C51.5588 40.1284 51.387 39.9564 51.297 39.7353C51.2479 39.6206 51.2315 39.4977 51.2315 39.3749C51.2315 39.252 51.2561 39.1291 51.297 39.0144C51.387 38.7933 51.5588 38.6213 51.7797 38.5312C51.8942 38.482 52.0169 38.4656 52.1397 38.4656C52.2624 38.4656 52.3851 38.4902 52.4996 38.5312C52.7205 38.6213 52.8923 38.7933 52.9823 39.0144C53.0723 39.2438 53.0723 39.4977 52.9823 39.7353ZM52.3606 39.4813C52.4424 39.4813 52.516 39.4404 52.5733 39.383C52.6387 39.3175 52.6715 39.2274 52.6633 39.1373C52.6715 39.0308 52.6305 38.9243 52.5487 38.8588C52.4506 38.7851 52.336 38.7523 52.2133 38.7605H51.7224V40.0301H51.9515V39.5141H52.1233L52.4342 40.0301H52.6796L52.3606 39.4895V39.4813ZM52.2378 39.2929H51.9515V38.9325H52.2297C52.2297 38.9325 52.2951 38.9407 52.3278 38.9571C52.3606 38.9653 52.3769 38.9899 52.3933 39.0144C52.4178 39.039 52.4178 39.0718 52.4178 39.1127C52.4178 39.1455 52.4178 39.1783 52.3933 39.211C52.3769 39.2356 52.3524 39.252 52.3278 39.2684C52.2951 39.2848 52.2624 39.2848 52.2297 39.2929H52.2378Z" fill="white"/>
</svg>
